<svg width="57" height="55" viewBox="0 0 57 55" fill="none" xmlns="http://www.w3.org/2000/svg">
<g filter="url(#filter0_d_381_991)">
<ellipse cx="28.5" cy="26.5" rx="24.5" ry="23.5" fill="white"/>
<path fill-rule="evenodd" clip-rule="evenodd" d="M36.2852 16.9356C35.6768 16.3365 34.8518 16 33.9917 16C33.1315 16 32.3065 16.3365 31.6981 16.9356L30.9336 17.6898L36.2862 22.9625L37.0497 22.2094C37.351 21.9127 37.59 21.5604 37.753 21.1726C37.9161 20.7849 38 20.3693 38 19.9496C38 19.5299 37.9161 19.1143 37.753 18.7266C37.59 18.3388 37.351 17.9865 37.0497 17.6898L36.2852 16.9356ZM34.7562 24.4687L29.4036 19.196L19.5742 28.8797C19.3591 29.0916 19.2089 29.3589 19.1406 29.6509L18.0279 34.3964C17.9865 34.5726 17.9912 34.7562 18.0418 34.9301C18.0923 35.104 18.1869 35.2623 18.3167 35.3902C18.4465 35.518 18.6073 35.6113 18.7837 35.661C18.9602 35.7108 19.1467 35.7155 19.3255 35.6746L24.144 34.5796C24.44 34.5122 24.7109 34.3642 24.9258 34.1525L34.7562 24.4687Z" fill="#333333"/>
</g>
<defs>
<filter id="filter0_d_381_991" x="0" y="0" width="57" height="55" filterUnits="userSpaceOnUse" color-interpolation-filters="sRGB">
<feFlood flood-opacity="0" result="BackgroundImageFix"/>
<feColorMatrix in="SourceAlpha" type="matrix" values="0 0 0 0 0 0 0 0 0 0 0 0 0 0 0 0 0 0 127 0" result="hardAlpha"/>
<feOffset dy="1"/>
<feGaussianBlur stdDeviation="2"/>
<feComposite in2="hardAlpha" operator="out"/>
<feColorMatrix type="matrix" values="0 0 0 0 0 0 0 0 0 0 0 0 0 0 0 0 0 0 0.08 0"/>
<feBlend mode="normal" in2="BackgroundImageFix" result="effect1_dropShadow_381_991"/>
<feBlend mode="normal" in="SourceGraphic" in2="effect1_dropShadow_381_991" result="shape"/>
</filter>
</defs>
</svg>
