<svg width="98" height="98" viewBox="0 0 98 98" fill="none" xmlns="http://www.w3.org/2000/svg">
<rect opacity="0.08" width="98" height="98" rx="8" fill="#333333"/>
<path fill-rule="evenodd" clip-rule="evenodd" d="M50.5 40C50.5 39.4477 50.0523 39 49.5 39C48.9477 39 48.5 39.4477 48.5 40V47.5H40C39.4477 47.5 39 47.9477 39 48.5C39 49.0523 39.4477 49.5 40 49.5H48.5V58C48.5 58.5523 48.9477 59 49.5 59C50.0523 59 50.5 58.5523 50.5 58V49.5H58C58.5523 49.5 59 49.0523 59 48.5C59 47.9477 58.5523 47.5 58 47.5H50.5V40Z" fill="#333333"/>
</svg>
