<svg width="14" height="15" viewBox="0 0 14 15" fill="none" xmlns="http://www.w3.org/2000/svg">
<path d="M5.83336 8.08323C6.08387 8.41814 6.40348 8.69525 6.77051 8.89578C7.13754 9.0963 7.5434 9.21555 7.96057 9.24543C8.37774 9.2753 8.79645 9.21511 9.18831 9.06894C9.58017 8.92276 9.93601 8.69402 10.2317 8.39823L11.9817 6.64823C12.513 6.09814 12.807 5.36139 12.8003 4.59664C12.7937 3.8319 12.4869 3.10037 11.9462 2.55959C11.4054 2.01882 10.6739 1.71208 9.90911 1.70543C9.14437 1.69879 8.40761 1.99277 7.85752 2.52407L6.85419 3.52156M8.16669 6.91656C7.91618 6.58166 7.59657 6.30454 7.22954 6.10402C6.86251 5.90349 6.45665 5.78425 6.03948 5.75437C5.62231 5.72449 5.2036 5.78468 4.81174 5.93086C4.41988 6.07703 4.06404 6.30577 3.76836 6.60156L2.01836 8.35156C1.48706 8.90165 1.19308 9.63841 1.19973 10.4032C1.20637 11.1679 1.51311 11.8994 2.05389 12.4402C2.59466 12.981 3.3262 13.2877 4.09094 13.2944C4.85568 13.301 5.59243 13.007 6.14252 12.4757L7.14003 11.4782" stroke="#1E1E1E" stroke-width="1.4" stroke-linecap="round" stroke-linejoin="round"/>
</svg>
