<svg width="46" height="28" viewBox="0 0 46 28" fill="none" xmlns="http://www.w3.org/2000/svg">
<path d="M43.4758 15.3514C43.7101 15.0206 43.8805 14.6365 43.987 14.2418L44.2214 13.3563C44.3066 13.0362 44.3492 12.7054 44.3492 12.3854C44.3492 12.172 44.3279 11.9586 44.2853 11.7559L44.658 11.7239L45.6272 8.09642L43.8805 6.01595L37.1919 6.60275C36.8085 6.13331 36.3825 5.67454 35.9245 5.24778C35.7435 3.27401 34.082 1.71632 32.0583 1.71632C31.5791 1.71632 31.1317 1.80168 30.7057 1.96171C28.0537 0.85213 24.9863 0.222656 21.706 0.222656C15.9759 0.222656 10.8636 2.15375 7.60454 5.15176L1.18222 5.72789L4.2922 8.54452L0 24.5908L1.89581 26.6606L14.4209 24.4094C16.6469 25.1242 19.1072 25.519 21.706 25.519C26.2005 25.519 30.3116 24.3347 33.4536 22.3716L34.3376 27.3967L37.8203 19.5443L46 15.9275L43.4758 15.3514Z" fill="#D5D5D6"/>
<path d="M44.9989 8.24583L43.6356 6.61346L36.9364 7.20026C36.4784 6.60279 35.9459 6.02666 35.3601 5.49321C35.3068 3.71148 33.8477 2.28183 32.0477 2.28183C31.5685 2.28183 31.1105 2.38852 30.6951 2.56989C28.0751 1.44964 24.997 0.798828 21.706 0.798828C16.0186 0.798828 10.9702 2.72993 7.82823 5.70659L2.52423 6.1867L4.92062 8.36319L0.628418 24.4308L2.10885 26.0418L14.4636 23.8226C16.6682 24.5375 19.1285 24.9429 21.7166 24.9429C26.4562 24.9429 30.759 23.5986 33.8796 21.4221L34.5932 25.455L37.405 19.1069L44.2001 16.0982L42.4001 15.6928C42.8901 15.2874 43.2735 14.7219 43.4332 14.0925L43.6676 13.2069C43.7421 12.9295 43.7741 12.6521 43.7741 12.3854C43.7741 12.0974 43.7208 11.82 43.6356 11.5639C43.6037 11.4572 43.5504 11.3505 43.5078 11.2545L44.2107 11.1905L44.9989 8.24583Z" fill="#CF0022"/>
<path d="M32.7506 20.0138C30.5992 21.4861 27.9152 22.4677 24.9863 22.8944C26.4667 22.3503 27.8407 21.6568 29.0655 20.8246C29.14 20.7713 29.2253 20.7179 29.2998 20.6646L26.8289 21.102C24.0917 22.5103 20.6941 23.3425 16.9984 23.3425C16.6469 23.3425 16.2954 23.3319 15.9546 23.3212C17.7439 23.78 19.6823 24.036 21.6953 24.036C26.4348 24.036 30.695 22.6597 33.6772 20.4619L33.4962 19.459C33.2725 19.6404 33.0169 19.8324 32.7506 20.0138Z" fill="white"/>
<path d="M2.15137 24.0359L2.60934 24.548L34.2843 18.9041L34.1884 18.3386L2.15137 24.0359ZM36.3611 18.0612L34.7742 21.6353L35.2109 22.0728L36.7978 18.4986L40.2699 16.9623L39.8332 16.5249L36.3611 18.0612ZM43.0391 8.04297L42.677 9.3766L40.3658 9.57931C40.2699 9.58998 40.1741 9.67533 40.1528 9.77135L39.8971 10.7102C39.8758 10.8063 39.9291 10.8809 40.0143 10.8703L40.451 10.8276L40.6001 10.2728C40.6214 10.1768 40.6959 10.1341 40.7705 10.1234L43.1136 9.92072L43.4757 8.58709L43.0391 8.04297ZM28.6288 14.167L29.0655 14.1243L29.2465 13.4308L32.3459 13.1641L32.889 11.1263C32.9316 10.9663 32.9529 10.8169 32.9529 10.6782C32.9529 10.5395 32.9316 10.4008 32.889 10.2835C32.8464 10.1661 32.7932 10.0594 32.708 9.9634C32.6334 9.87805 32.3565 9.5473 32.2713 9.45128C32.4843 9.72868 32.5589 10.1341 32.4311 10.5929L31.8879 12.6307L28.7886 12.8974L28.4903 14.007C28.4797 14.103 28.5329 14.1777 28.6288 14.167Z" fill="#970022"/>
<path d="M36.1162 10.5289L38.1504 10.3475L38.4593 9.17388C38.47 9.12054 38.4913 9.07786 38.5126 9.02452L38.0439 8.46973L37.6925 9.80336L35.7115 9.97406C35.6156 9.98473 35.5197 10.0701 35.4984 10.1661L34.2097 14.9778L32.3246 15.1486L32.495 14.5191L31.9518 15.1912L27.8193 15.554C27.191 15.6073 26.7436 15.2873 26.6265 14.7645L25.8383 15.7354L24.6987 15.8314C24.4111 15.8527 24.1768 15.778 24.0384 15.618C23.9106 15.7887 23.7082 15.9167 23.5165 15.9274L21.7059 16.0874C21.0775 16.1408 20.6302 15.8207 20.513 15.2979L19.7249 16.2688L18.6918 16.3648C18.2657 16.3968 17.9249 16.2688 17.7119 16.0127C17.7971 16.1194 18.074 16.4502 18.1486 16.5355C18.2231 16.6209 18.3083 16.6956 18.4042 16.7596C18.5001 16.8129 18.6172 16.8663 18.7344 16.8876C18.8622 16.9089 18.99 16.9196 19.1391 16.9089L20.0124 16.8343L20.8112 15.8527C20.9284 15.9914 21.1095 16.2048 21.1627 16.2688C21.2373 16.3542 21.3225 16.4288 21.4183 16.4929C21.5142 16.5462 21.6313 16.5995 21.7485 16.6209C21.8763 16.6422 22.0041 16.6529 22.1532 16.6422L23.9638 16.4822C24.1555 16.4608 24.3579 16.3435 24.4857 16.1728C24.6242 16.3221 24.8478 16.4075 25.146 16.3862L26.1259 16.3008L26.9247 15.3193C27.0419 15.458 27.2229 15.6713 27.2762 15.7354C27.3507 15.8207 27.4359 15.8954 27.5318 15.9594C27.6276 16.0127 27.7448 16.0661 27.8619 16.0874C27.9898 16.1088 28.1176 16.1194 28.2667 16.1088L32.3991 15.746L32.5802 15.522L32.7719 15.714L34.657 15.5433L35.9564 10.6889C35.9777 10.5929 36.0523 10.5395 36.1162 10.5289ZM42.1657 11.6918C42.0912 11.6064 41.8143 11.2757 41.729 11.1797C41.9421 11.4571 42.0166 11.8625 41.8888 12.3213L41.548 13.6015C41.4415 14.0176 41.0368 14.3911 40.664 14.4231L36.4996 14.7858L36.6807 15.8207L37.2877 15.9594L37.1706 15.3086L40.7066 14.9992C41.3243 14.9458 41.9208 14.4017 42.0912 13.7509L42.3255 12.8654C42.3681 12.7053 42.3894 12.556 42.3894 12.4173C42.3894 12.2786 42.3681 12.1399 42.3255 12.0225C42.2935 11.8945 42.2403 11.7878 42.1657 11.6918Z" fill="#970022"/>
<path d="M36.276 13.495L36.8512 13.4524L36.8086 13.2283L36.1056 12.5241L36.276 13.495ZM38.2996 11.6279C38.3742 11.724 38.6724 12.0654 38.747 12.1614C38.8215 12.2467 38.9067 12.3214 39.0026 12.3854C39.0984 12.4388 39.2156 12.4921 39.3328 12.5135C39.4606 12.5348 39.5884 12.5455 39.7375 12.5348L40.0037 12.5135L40.1209 12.0974C40.1422 12.0014 40.089 11.9267 40.0037 11.9373L39.3008 12.0014C38.8535 12.0227 38.5127 11.884 38.2996 11.6279ZM25.6041 14.4339L26.0408 14.3912L28.3307 5.82398L27.8833 5.29053L25.4763 14.2739C25.455 14.3699 25.5083 14.4446 25.6041 14.4339ZM29.8324 11.2439C29.8537 11.1478 29.9496 11.0625 30.0454 11.0518L30.4714 11.0091L30.5886 10.593C30.6099 10.497 30.5567 10.4223 30.4714 10.433L29.5981 10.5077C29.5022 10.5184 29.4064 10.6037 29.3851 10.6997L29.0869 11.8093L29.694 11.756L29.8324 11.2439ZM9.35128 7.53103L8.90395 6.98691L5.65552 19.1283L6.2626 19.0749L9.35128 7.53103ZM11.8116 16.6851C11.6838 16.8558 11.4814 16.9838 11.2897 16.9945L9.47909 17.1545C9.07436 17.1865 8.73355 17.0692 8.52053 16.8238L8.93591 17.3252C9.01046 17.4106 9.09567 17.4853 9.19152 17.5493C9.28738 17.6026 9.40453 17.656 9.52169 17.6773C9.6495 17.6986 9.77731 17.7093 9.92641 17.6986L11.737 17.5386C11.9287 17.5173 12.1311 17.3999 12.2589 17.2292C12.3974 17.3786 12.621 17.4639 12.9192 17.4426L14.0589 17.3466L14.2612 17.1012L14.4316 17.3145L16.3168 17.1438L17.6481 12.1614L18.2445 12.1081L18.3617 11.692C18.383 11.5959 18.3297 11.5213 18.2445 11.5319L17.2114 11.6279L15.8695 16.5891L13.9843 16.7598L14.1547 16.1303L13.6115 16.7918L12.4719 16.8878C12.1737 16.9198 11.9394 16.8344 11.8116 16.6851ZM12.1417 12.6308L12.2589 12.2147C12.2802 12.1187 12.2269 12.044 12.1417 12.0547L9.21282 12.3108L9.66015 12.8442L12.1417 12.6308Z" fill="#970022"/>
<path d="M10.2883 15.7779L10.725 15.7352L10.8847 15.1591C10.906 15.0631 11.0019 14.9777 11.0978 14.9671L11.5238 14.9244L11.6835 14.3376L10.6504 14.4336C10.5546 14.4443 10.4587 14.5296 10.4374 14.6257L10.1712 15.6285C10.1392 15.7139 10.1925 15.7886 10.2883 15.7779ZM22.5152 14.7003L22.9519 14.6577L23.7187 11.777C23.74 11.681 23.8359 11.5956 23.9317 11.585L24.3578 11.5423L24.5175 10.9555L23.4844 11.0515C23.3886 11.0622 23.2927 11.1475 23.2714 11.2436L22.3874 14.5403C22.3661 14.6363 22.4194 14.711 22.5152 14.7003ZM13.377 15.5005L13.8137 15.4578L14.5486 12.7266C14.5912 12.5665 14.6125 12.4172 14.6125 12.2785C14.6125 12.1398 14.5912 12.0011 14.5486 11.8837C14.506 11.7663 14.4527 11.6597 14.3675 11.5636C14.2929 11.4783 14.016 11.1475 13.9308 11.0515C14.1438 11.3289 14.2184 11.7343 14.0906 12.1931L13.2492 15.3405C13.2279 15.4365 13.2811 15.5112 13.377 15.5005ZM19.4904 14.9671L19.9271 14.9244L20.662 12.1931C20.7046 12.0331 20.7259 11.8837 20.7259 11.745C20.7259 11.6063 20.7046 11.4676 20.662 11.3503C20.6194 11.2329 20.5662 11.1262 20.481 11.0302C20.4064 10.9448 20.1295 10.6141 20.0443 10.5181C20.2573 10.7955 20.3318 11.2009 20.204 11.6597L19.3626 14.807C19.3413 14.903 19.3946 14.9777 19.4904 14.9671Z" fill="#970022"/>
<path d="M40.1528 9.77144C40.1741 9.67542 40.2699 9.59006 40.3658 9.5794L42.677 9.37668L43.0391 8.04305L39.354 8.36312C38.9705 8.39513 38.5765 8.76855 38.47 9.18464L38.1291 10.4649C37.8842 11.3825 38.4061 12.0653 39.2901 11.9799L39.993 11.9159C40.0889 11.9052 40.1421 11.9799 40.1102 12.076L39.8545 13.0148C39.8332 13.1109 39.7374 13.1962 39.6415 13.2069L36.2653 13.5056L36.0949 12.5241L34.5079 16.0982L33.0914 16.7277L5.65542 19.1282L8.90386 6.98682L5.45306 7.29622L6.40096 8.16041L2.15137 24.036L34.1884 18.3387L34.7742 21.6354L36.3611 18.0613L39.8439 16.525L36.6913 15.8208L36.5103 14.7859L40.6746 14.4231C41.0581 14.3911 41.4521 14.0177 41.5586 13.6016L41.8995 12.3213C42.1444 11.4038 41.6225 10.721 40.7385 10.7957L40.0356 10.8597C39.9397 10.8704 39.8865 10.7957 39.9184 10.6996L40.1528 9.77144Z" fill="white"/>
<path d="M32.0478 8.3418C33.5595 8.3418 34.785 7.11419 34.785 5.59986C34.785 4.08552 33.5595 2.85791 32.0478 2.85791C30.536 2.85791 29.3105 4.08552 29.3105 5.59986C29.3105 7.11419 30.536 8.3418 32.0478 8.3418Z" fill="white"/>
<path d="M30.3863 3.41262C27.8728 2.33504 24.9012 1.70557 21.7061 1.70557C20.5558 1.70557 19.4375 1.79092 18.3618 1.94029C22.6859 2.13233 26.5521 3.47663 29.3106 5.53576C29.3319 4.67156 29.7473 3.90339 30.3863 3.41262ZM37.6926 9.81405L38.0441 8.48042L34.6998 8.77915C34.3164 8.81116 33.9223 9.18457 33.8158 9.60067L32.6868 13.8256L28.629 14.1777C28.5331 14.1884 28.4799 14.1137 28.5118 14.0177L28.81 12.9081L31.9094 12.6413L32.4525 10.6036C32.6975 9.68602 32.1756 9.0032 31.2916 9.07788L28.597 9.3126C28.2136 9.34461 27.8195 9.71803 27.713 10.1341L26.6692 14.039C26.6373 14.1457 26.6266 14.2524 26.616 14.3591L25.6255 14.4444C25.5296 14.4551 25.4764 14.3804 25.5083 14.2844L27.9154 5.30104L24.816 5.57843L25.7639 6.44263L24.9119 9.64334L22.5049 9.85672C22.1214 9.88873 21.7274 10.2621 21.6209 10.6782L20.5771 14.5831C20.5451 14.6898 20.5345 14.7965 20.5238 14.9032L19.5333 14.9885C19.4375 14.9992 19.3842 14.9245 19.4162 14.8285L20.2576 11.6811C20.5025 10.7636 19.9807 10.0808 19.0967 10.1555L15.7204 10.4542L14.3891 15.4366L13.4199 15.522C13.324 15.5327 13.2708 15.458 13.3027 15.362L14.1441 12.2146C14.3891 11.297 13.8672 10.6142 12.9832 10.6889L9.60696 10.9876L9.24484 12.3213L12.1738 12.0652C12.2696 12.0545 12.3229 12.1292 12.2909 12.2253L12.014 13.2708L9.62826 13.4842C9.24484 13.5162 8.84011 13.8683 8.73361 14.2737L8.37149 15.65C8.12652 16.5676 8.6484 17.2504 9.53241 17.1757L11.343 17.0157C11.5347 16.9943 11.7371 16.877 11.8649 16.7063C12.0033 16.8556 12.227 16.941 12.5252 16.9196L13.6648 16.8236L14.208 16.1621L14.0376 16.7916L15.9228 16.6209L17.2541 11.6385L18.2872 11.5424C18.3831 11.5318 18.4363 11.6064 18.4044 11.7025L17.563 14.8498C17.318 15.7674 17.8399 16.4502 18.7239 16.3755L19.757 16.2795L20.5451 15.3086C20.6623 15.8314 21.1096 16.1515 21.738 16.0981L23.5486 15.9381C23.7403 15.9167 23.9427 15.7994 24.0705 15.6287C24.209 15.778 24.4326 15.8634 24.7308 15.8421L25.8704 15.746L26.6586 14.7752C26.7758 15.2979 27.2231 15.618 27.8515 15.5647L31.9839 15.2019L32.5271 14.5298L32.3567 15.1592L34.2418 14.9885L35.5306 10.1768C35.5519 10.0808 35.6477 9.99542 35.7436 9.98475L37.6926 9.81405ZM29.3852 10.7102C29.4065 10.6142 29.5023 10.5289 29.5982 10.5182L30.4715 10.4435C30.5674 10.4329 30.6206 10.5075 30.5887 10.6036L30.2905 11.7131L29.0869 11.8198L29.3852 10.7102ZM11.3643 15.5113C11.343 15.6073 11.2472 15.6927 11.1513 15.7034L10.2779 15.778C10.1821 15.7887 10.1288 15.714 10.1608 15.618L10.4271 14.6151C10.4484 14.5191 10.5442 14.4337 10.6401 14.4231L11.6732 14.3271L11.3643 15.5113ZM23.5912 14.4444C23.5699 14.5404 23.4741 14.6258 23.3782 14.6365L22.5049 14.7111C22.409 14.7218 22.3557 14.6471 22.3877 14.5511L23.2717 11.2544C23.293 11.1583 23.3889 11.073 23.4847 11.0623L24.5178 10.9663L23.5912 14.4444Z" fill="white"/>
<path d="M9.88375 16.461C9.39383 16.5036 9.10626 16.1302 9.24472 15.6181L9.56424 14.4339C9.59619 14.3058 9.68139 14.1885 9.77725 14.1031L9.0317 13.719C8.87195 13.8577 8.74414 14.0498 8.69088 14.2525L8.32876 15.6288C8.0838 16.5463 8.60568 17.2291 9.48968 17.1545L11.3003 16.9944C11.492 16.9731 11.6944 16.8557 11.8222 16.685C11.9606 16.8344 12.1843 16.9197 12.4825 16.8984L13.6008 16.8024L13.3452 16.1729L9.88375 16.461ZM16.4445 11.0198L15.6777 10.433L13.9842 16.7597L15.8694 16.589L15.1026 16.0022L16.4445 11.0198ZM24.7946 5.56787L25.7425 6.4214L24.8798 9.63278L25.6467 10.2196L26.7543 6.07999L24.7946 5.56787ZM31.0891 12.172L28.0005 12.4387L28.7992 12.8975L31.8986 12.6308L31.0891 12.172ZM34.1565 9.03531C33.9967 9.18468 33.8689 9.37672 33.8157 9.5901L32.3246 15.1487L34.2098 14.978L33.4429 14.3912L34.6464 9.87817C34.6784 9.75014 34.7636 9.63278 34.8594 9.53676L34.1565 9.03531ZM35.2109 9.37672C35.0938 9.38739 34.9766 9.45141 34.8701 9.53676L35.5837 10.0382C35.6263 10.0062 35.6689 9.98486 35.7115 9.97419L37.6925 9.80349L37.0961 9.20602L35.2109 9.37672ZM19.4587 15.6288L19.0859 15.6608C18.596 15.7035 18.3084 15.3301 18.4468 14.8179L19.2882 11.6706C19.4267 11.1691 19.1391 10.785 18.6492 10.8277L16.4445 11.0198L17.2114 11.6066L18.2445 11.5105C18.3403 11.4999 18.3936 11.5745 18.3616 11.6706L17.5202 14.8179C17.2753 15.7355 17.7972 16.4183 18.6812 16.3436L19.7143 16.2476L19.4587 15.6288Z" fill="#D5D5D6"/>
<path d="M12.7701 13.7191L10.1075 13.9538C9.99029 13.9645 9.86249 14.0285 9.76663 14.1138L10.5122 14.4979C10.5548 14.4659 10.5974 14.4446 10.64 14.4339L11.6731 14.3379L11.3642 15.5115C11.3536 15.5541 11.3216 15.6075 11.279 15.6395L11.8329 16.2903C11.9713 16.2796 12.1098 16.1516 12.1417 16.0129L12.7701 13.7191ZM12.5358 11.3612L10.1607 11.5639L9.56427 10.9665L9.20215 12.3001L12.1311 12.044C12.2269 12.0334 12.2802 12.108 12.2482 12.2041L11.9713 13.2496L12.7701 13.7084L13.1748 12.1934C13.3133 11.7026 13.0257 11.3185 12.5358 11.3612ZM30.8762 9.76085L29.0975 9.92089C28.9803 9.93155 28.8632 9.99557 28.7567 10.0809L29.4703 10.5824C29.5129 10.5504 29.5555 10.529 29.5981 10.5184L30.4714 10.4437C30.5673 10.433 30.6205 10.5077 30.5886 10.6037L30.2904 11.7133L31.0892 12.1721L31.5152 10.593C31.6536 10.0916 31.3661 9.71817 30.8762 9.76085ZM42.0806 8.7793L39.8546 8.97134C39.7375 8.98201 39.6203 9.04602 39.5138 9.13138L40.2274 9.63282C40.27 9.60081 40.3126 9.57948 40.3552 9.56881L42.6664 9.36609L42.0806 8.7793Z" fill="#D5D5D6"/>
<path d="M38.8109 8.62988L39.5245 9.13133C39.4287 9.22735 39.3435 9.34471 39.3115 9.47274L39.0133 10.5823C38.8748 11.0838 39.1624 11.4679 39.6523 11.4252L40.3553 11.3612C40.8452 11.3185 41.1328 11.6919 40.9943 12.204L40.6961 13.3136C40.6641 13.4416 40.5789 13.559 40.4831 13.655L39.7695 13.1536C39.8121 13.1216 39.8334 13.0789 39.8547 13.0255L40.1103 12.0867C40.1316 11.9906 40.0784 11.916 39.9932 11.9266L39.2902 11.9906C38.4062 12.0653 37.8843 11.3932 38.1293 10.4756L38.4701 9.18467" fill="#D5D5D6"/>
<path d="M40.4937 13.6444C40.3978 13.7404 40.27 13.7938 40.1529 13.8045L36.9896 14.0819L36.2654 13.4951L36.489 14.786L40.6534 14.4233C40.8451 14.4019 41.0369 14.3059 41.1966 14.1565L40.4937 13.6444ZM25.5722 15.0847L22.1107 15.3835C21.6208 15.4262 21.3332 15.0527 21.4717 14.5406L22.4302 10.9452C22.4622 10.8171 22.5474 10.6998 22.6432 10.6037L21.9297 10.1023C21.7699 10.2517 21.6421 10.4437 21.5888 10.6571L20.5451 14.562C20.3001 15.4795 20.822 16.1623 21.706 16.0876L23.5166 15.9276C23.7083 15.9063 23.9107 15.7889 24.0385 15.6182C24.1769 15.7676 24.4006 15.8529 24.6988 15.8316L25.8384 15.7356L25.5722 15.0847ZM31.6856 14.5513L28.2242 14.85C27.7342 14.8927 27.4467 14.5193 27.5851 14.0072L28.5437 10.4117C28.5756 10.2837 28.6608 10.1663 28.7567 10.0703L28.0431 9.56885C27.8833 9.71821 27.7555 9.91026 27.7023 10.1236L26.6585 14.0285C26.4136 14.946 26.9354 15.6289 27.8194 15.5542L31.9519 15.1914L31.6856 14.5513Z" fill="#D5D5D6"/>
<path d="M34.1884 18.3389L32.6654 17.9974L3.6105 22.6918L7.57253 7.86185L5.45306 7.29639L6.40096 8.16058L2.15137 24.0361L34.1884 18.3389Z" fill="#D5D5D6"/>
<path d="M22.9839 10.4543C22.8667 10.465 22.7496 10.529 22.6431 10.6143L23.3567 11.1158C23.3993 11.0838 23.4419 11.0624 23.4845 11.0518L24.5176 10.9557L23.591 14.4232C23.5803 14.4659 23.5484 14.5192 23.5058 14.5512L24.0596 15.202C24.1981 15.1914 24.3365 15.0633 24.3685 14.9246L25.6359 10.1982L22.9839 10.4543Z" fill="#D5D5D6"/>
<path d="M36.2868 16.2263L35.8927 13.9858L34.817 16.4077L33.1555 17.1439L4.98462 20.3126L6.02838 21.2621L32.9531 17.5706L34.5933 17.9334L34.9874 20.1739L36.0631 17.752L38.4276 16.7064L36.2868 16.2263Z" fill="#FAC109"/>
<path d="M35.6476 15.6289L35.9245 16.5891L36.8404 16.8985L35.7967 17.464L35.2322 18.5309L34.9553 17.56L34.0393 17.2506L35.0831 16.6958L35.6476 15.6289Z" fill="#004537"/>
<path d="M29.8643 3.93551C28.5437 3.39139 27.1165 2.9753 25.6147 2.71924C27.01 3.26336 28.2987 3.94618 29.4383 4.75703C29.5342 4.45829 29.6833 4.1809 29.8643 3.93551Z" fill="#FAC109"/>
<path d="M32.6442 7.50967C31.2596 7.50967 30.1413 6.38941 30.1413 5.00244C30.1413 4.19159 30.5247 3.46609 31.1212 3.00732C30.0667 3.39141 29.3105 4.40497 29.3105 5.58924C29.3105 7.10424 30.5354 8.33118 32.0478 8.33118C33.23 8.33118 34.2418 7.57368 34.6252 6.51744C34.1672 7.12558 33.4536 7.50967 32.6442 7.50967Z" fill="#D5D5D6"/>
<path d="M32.7398 6.53881L32.5801 6.17606L32.4629 6.31476L32.6014 6.63483L32.4949 6.75219L32.8996 6.91222L33.0061 6.78419L32.6546 6.63483L32.7398 6.53881ZM33.1233 6.16539L33.0487 5.7813L32.8996 5.89866L32.9741 6.2294L32.8463 6.33609L33.2085 6.57081L33.3469 6.46412L33.0274 6.25074L33.1233 6.16539ZM33.5812 5.88799L33.5706 5.49324L33.4215 5.56792V5.92L33.2724 5.99468L33.5812 6.29342L33.741 6.20807L33.4641 5.94134L33.5812 5.88799ZM34.0818 5.69595L34.1564 5.31187L33.986 5.35454L33.922 5.69595L33.7623 5.73863L33.9966 6.09071L34.167 6.04803L33.954 5.72796L34.0818 5.69595ZM34.6143 5.6106L34.7528 5.24785L34.5824 5.25852L34.4546 5.57859L34.2842 5.58926L34.4546 5.98402L34.625 5.97335L34.4865 5.62127L34.6143 5.6106ZM32.431 6.97624L32.2073 6.65617L32.1221 6.8162L32.3138 7.0936L32.2393 7.24296L32.6546 7.31765L32.7398 7.15761L32.3671 7.0936L32.431 6.97624ZM32.218 7.46701L31.9304 7.20029L31.8771 7.37099L32.1327 7.60571L32.0795 7.76575L32.5055 7.75508L32.5588 7.58437L32.1753 7.59504L32.218 7.46701ZM32.1008 7.9898L31.7706 7.78709L31.7493 7.95779L32.0369 8.13916L32.0262 8.30987L32.4416 8.21385L32.4629 8.04314L32.0901 8.11783L32.1008 7.9898ZM31.5683 4.35165L31.1742 4.19161L31.0677 4.33031L31.4192 4.47968L31.334 4.5757L31.4937 4.92778L31.6109 4.79975L31.4618 4.47968L31.5683 4.35165ZM30.8653 4.54369L30.7269 4.65038L31.0464 4.86377L30.9399 4.93845L31.0251 5.32253L31.1635 5.21584L31.089 4.87443L31.2274 4.77841L30.8653 4.54369ZM30.4926 4.82109L30.3328 4.89577L30.6097 5.17317L30.4926 5.22651V5.62127L30.6523 5.53592V5.19451L30.8014 5.11982L30.4926 4.82109ZM30.0772 5.01313L29.8961 5.06648L30.1091 5.38655L29.992 5.41856L29.9174 5.80264L30.0878 5.75997L30.1517 5.41856L30.3115 5.37588L30.0772 5.01313ZM29.6512 5.13049L29.4701 5.14116L29.6192 5.49324L29.4914 5.50391L29.3423 5.86666L29.5233 5.85599L29.6512 5.53592L29.8109 5.52525L29.6512 5.13049ZM31.8665 4.45834L31.9517 4.29831L31.7493 4.02091L31.8345 3.87154L31.4192 3.79686L31.3233 3.94623L31.7067 4.02091L31.6428 4.13827L31.8665 4.45834ZM31.8452 3.6795L32.1327 3.9569L32.186 3.78619L31.9304 3.5408L31.9836 3.39144H31.5576L31.5044 3.56214H31.8878L31.8452 3.6795ZM31.973 3.18872L32.3032 3.39144L32.3245 3.22073L32.0262 3.03936L32.0475 2.86865L31.6322 2.96467L31.6109 3.13538L31.9836 3.0607L31.973 3.18872Z" fill="#CF0022"/>
<path d="M10.6187 8.23509L11.066 7.69097C11.3748 7.94702 11.705 8.11773 12.0991 8.11773C12.408 8.11773 12.5997 7.9897 12.5997 7.78699V7.77632C12.5997 7.58428 12.4825 7.48826 11.8967 7.33889C11.1938 7.15751 10.7465 6.96547 10.7465 6.27198V6.26131C10.7465 5.63184 11.247 5.21575 11.9606 5.21575C12.4612 5.21575 12.8979 5.37578 13.2494 5.65318L12.8553 6.22931C12.5464 6.01593 12.2482 5.8879 11.95 5.8879C11.6624 5.8879 11.5027 6.0266 11.5027 6.18663V6.1973C11.5027 6.42135 11.6518 6.49603 12.2482 6.65607C12.9511 6.83744 13.3452 7.0935 13.3452 7.70164V7.71231C13.3452 8.40579 12.8233 8.78988 12.0671 8.78988C11.5666 8.78988 11.034 8.60851 10.6187 8.23509ZM13.5795 8.23509L14.0268 7.69097C14.3357 7.94702 14.6659 8.11773 15.06 8.11773C15.3688 8.11773 15.5605 7.9897 15.5605 7.78699V7.77632C15.5605 7.58428 15.4434 7.48826 14.8576 7.33889C14.1547 7.15751 13.7073 6.96547 13.7073 6.27198V6.26131C13.7073 5.63184 14.2079 5.21575 14.9215 5.21575C15.4221 5.21575 15.8588 5.37578 16.2102 5.65318L15.8162 6.22931C15.5073 6.01593 15.2091 5.8879 14.9109 5.8879C14.6126 5.8879 14.4635 6.0266 14.4635 6.18663V6.1973C14.4635 6.42135 14.6126 6.49603 15.2091 6.65607C15.912 6.83744 16.3061 7.0935 16.3061 7.70164V7.71231C16.3061 8.40579 15.7842 8.78988 15.028 8.78988C14.5274 8.78988 13.9949 8.60851 13.5795 8.23509ZM16.6256 7.00815C16.6256 6.01593 17.3924 5.20508 18.4469 5.20508C19.0752 5.20508 19.448 5.37578 19.8101 5.68519L19.3309 6.26131C19.0646 6.03726 18.8303 5.90924 18.4256 5.90924C17.8717 5.90924 17.435 6.40001 17.435 6.98681V6.99748C17.435 7.63762 17.8717 8.09639 18.4895 8.09639C18.7664 8.09639 19.0113 8.02171 19.203 7.88301V7.38156H18.4256V6.72008H19.9273V8.22442C19.5758 8.52315 19.0752 8.77921 18.4469 8.77921C17.3711 8.80055 16.6256 8.04305 16.6256 7.00815Z" fill="white"/>
</svg>
