<svg width="18" height="16" viewBox="0 0 18 16" fill="none" xmlns="http://www.w3.org/2000/svg">
<path d="M16.5876 8.11905C16.5876 12.2813 13.1785 15.6558 8.97328 15.6558C4.76821 15.6558 1.35913 12.2814 1.35913 8.11905C1.35913 3.95665 4.76801 0.58252 8.97308 0.58252C13.1783 0.58252 16.5876 3.95665 16.5876 8.11905Z" fill="white"/>
<path d="M16.3776 8.1125C16.3776 12.16 13.0628 15.4408 8.97362 15.4408C4.88464 15.4408 1.56982 12.16 1.56982 8.1125C1.56982 4.06521 4.88464 0.78418 8.97362 0.78418C13.0628 0.78418 16.3776 4.06521 16.3776 8.1125Z" fill="#131230"/>
<path d="M14.7608 8.10637C14.7608 11.2655 12.1738 13.8265 8.98198 13.8265C5.79034 13.8265 3.20312 11.2655 3.20312 8.10637C3.20312 4.94727 5.79054 2.38623 8.98198 2.38623C12.1736 2.38623 14.7608 4.94727 14.7608 8.10637Z" fill="white"/>
<path d="M7.52986 8.06061C7.52986 8.04829 7.52909 8.03615 7.52909 8.02383L7.94366 8.25308L8.01129 8.13305L7.52564 7.86454C7.52104 7.68551 7.50986 7.50671 7.49212 7.32848L7.92967 7.5401L7.99059 7.41685L7.47392 7.16654C7.45227 6.9902 7.42392 6.81593 7.38962 6.64357L7.86128 6.79564L7.90439 6.66518L7.3584 6.48884C7.32403 6.33483 7.28461 6.18198 7.2402 6.03052L7.70036 6.12343L7.72795 5.9888L7.19613 5.88129C7.15455 5.7497 7.1092 5.61932 7.06012 5.49029L7.53982 5.58718L7.5676 5.45255L7.00054 5.33783C6.93937 5.18741 6.87318 5.03905 6.80206 4.89298L7.29096 4.94417L7.30533 4.80765L6.73022 4.74735C6.65143 4.59459 6.56721 4.44463 6.47773 4.29775L6.95207 4.29756V4.16009H6.39382C6.30214 4.01681 6.20546 3.87672 6.10396 3.74007L6.5534 3.70291L6.5419 3.56619L6.00569 3.61037C5.95933 3.55045 5.91316 3.49072 5.86488 3.43213L5.68595 3.52922C5.73767 3.59122 5.78729 3.65437 5.83672 3.71808L5.64074 4.24447L5.77101 4.29188L5.93595 3.8493C6.03837 3.98678 6.13581 4.12782 6.2281 4.27215L5.99707 4.76214L6.12293 4.82016L6.31451 4.4138C6.40225 4.55981 6.4852 4.70866 6.56279 4.86093L6.29171 5.30654L6.41048 5.37727L6.63578 5.00751C6.70283 5.14745 6.76509 5.29042 6.82314 5.4353L6.50991 5.85322L6.6216 5.93476L6.88272 5.58623C6.92678 5.7038 6.96739 5.82288 7.00533 5.9431L6.67045 6.38928L6.78214 6.4712L7.05418 6.10807C7.09709 6.25769 7.1356 6.409 7.16874 6.56241L6.80781 6.94412L6.90935 7.03817L7.20246 6.72795C7.23292 6.8878 7.25763 7.04955 7.27717 7.213L6.86548 7.54256L6.95283 7.64932L7.29556 7.37513C7.31165 7.542 7.32104 7.71057 7.32525 7.88028L6.8808 8.19733L6.96222 8.30902L7.32909 8.04734L7.32928 8.06061C7.32928 8.1979 7.32391 8.33405 7.31625 8.46963L6.85015 8.73813L6.91988 8.85703L7.30495 8.63517C7.29457 8.76802 7.28038 8.90056 7.26242 9.03261L6.76873 9.28235L6.83214 9.40484L7.23598 9.20043C7.21338 9.33885 7.18809 9.47633 7.15782 9.61191L6.66719 9.83073L6.72409 9.95588L7.11606 9.78143C7.08403 9.91007 7.04838 10.0378 7.00916 10.1645L6.50704 10.3602L6.55781 10.488L6.95341 10.3338C6.90686 10.4703 6.85705 10.605 6.80264 10.7377L6.29075 10.8797L6.3283 11.0119L6.73329 10.8996C6.6808 11.0189 6.62524 11.1365 6.56662 11.2523L6.04362 11.3458L6.06833 11.4814L6.48616 11.4065C6.42707 11.5159 6.36511 11.6238 6.30033 11.73L5.76392 11.7685L5.77388 11.9056L6.21182 11.8743C6.14713 11.9745 6.07993 12.0732 6.01028 12.1701L5.49878 12.1788L5.50127 12.3163L5.90837 12.3091C5.83661 12.4051 5.76244 12.4993 5.68595 12.5916L5.79744 12.7693C5.9076 12.6388 6.01316 12.5045 6.11393 12.3667L6.3396 12.8247L6.46432 12.764L6.20588 12.2403C6.27343 12.144 6.33865 12.0461 6.40148 11.9467L6.63903 12.3677L6.7603 12.3007L6.48482 11.8123C6.55685 11.693 6.6262 11.5718 6.69153 11.4484L6.97793 11.8498L7.09134 11.7706L6.76183 11.3092C6.82601 11.1812 6.88751 11.0519 6.94421 10.9197L7.26912 11.294L7.37449 11.2042L7.00283 10.7758C7.06088 10.6317 7.11548 10.4861 7.16452 10.3376L7.52277 10.6742L7.61836 10.5744L7.21031 10.191C7.25188 10.0547 7.29001 9.91701 7.32391 9.77764L7.69691 10.0958L7.78753 9.99191L7.35916 9.62632C7.38943 9.48866 7.4151 9.34947 7.43771 9.20915L7.8109 9.49662L7.89615 9.38816L7.46223 9.05404C7.48177 8.9122 7.49556 8.76847 7.50668 8.62417L7.90209 8.89609L7.98121 8.78326L7.5176 8.46432C7.52488 8.33044 7.52986 8.19638 7.52986 8.06061ZM12.4658 12.1788L11.9545 12.1699C11.8849 12.073 11.8177 11.9743 11.7531 11.8741L12.1911 11.9056L12.2006 11.7685L11.6646 11.73C11.5998 11.6238 11.5378 11.5159 11.4788 11.4065L11.8964 11.4812L11.9211 11.3458L11.3983 11.2523C11.3395 11.1363 11.2839 11.0187 11.2317 10.8996L11.6363 11.0119L11.6738 10.8797L11.1621 10.7377C11.1077 10.6047 11.0575 10.47 11.0113 10.334L11.4066 10.488L11.4575 10.3602L10.9556 10.1645C10.9161 10.0382 10.8809 9.91037 10.8483 9.78124L11.2403 9.95588L11.2974 9.83073L10.8069 9.61191C10.7765 9.47633 10.7514 9.33885 10.7288 9.20043L11.1322 9.40484L11.1956 9.28235L10.7023 9.0328C10.6844 8.90068 10.6701 8.76808 10.6596 8.63517L11.0447 8.85703L11.1144 8.73813L10.6485 8.46963C10.6403 8.33337 10.6359 8.19692 10.6355 8.06042L10.6357 8.04715L11.0023 8.30883L11.0836 8.19733L10.6395 7.88066C10.6437 7.71057 10.6531 7.542 10.6692 7.37513L11.0117 7.64932L11.0989 7.54256L10.6872 7.21319C10.7069 7.04974 10.7318 6.8878 10.7623 6.72795L11.0554 7.03817L11.1568 6.94431L10.796 6.56241C10.8291 6.40982 10.8672 6.25836 10.9104 6.10826L11.1824 6.4712L11.2939 6.38928L10.9594 5.9431C10.997 5.82322 11.0377 5.70435 11.0817 5.58661L11.3428 5.93476L11.4545 5.85322L11.1414 5.4353C11.1997 5.29042 11.2615 5.14764 11.3288 5.00751L11.5539 5.37727L11.6729 5.30635L11.4018 4.86112C11.4792 4.70885 11.5623 4.55962 11.6503 4.41399L11.8414 4.82016L11.9673 4.76214L11.7365 4.27234C11.8284 4.12766 11.9265 3.98696 12.0286 3.84949L12.1934 4.29206L12.3238 4.24466L12.1277 3.71827C12.1773 3.65456 12.2273 3.59122 12.2788 3.52922L12.0997 3.43213C12.0514 3.49053 12.0052 3.55045 11.9589 3.61037L11.4227 3.56619L11.4112 3.7031L11.8606 3.74026C11.7591 3.87688 11.6624 4.01697 11.5707 4.16028H11.0125V4.29756H11.4868C11.3974 4.4445 11.3131 4.59453 11.2343 4.74735L10.659 4.80765L10.6736 4.94417L11.1623 4.89298C11.0914 5.0388 11.0253 5.18689 10.9642 5.33783L10.397 5.45255L10.4247 5.58718L10.9044 5.49048C10.8554 5.61944 10.81 5.74976 10.7684 5.88129L10.2364 5.98899L10.264 6.12362L10.7244 6.03052C10.6803 6.18146 10.6401 6.33391 10.606 6.48884L10.06 6.66518L10.1031 6.79564L10.5747 6.64357C10.5406 6.81593 10.5123 6.9902 10.4905 7.16673L9.97397 7.41685L10.0347 7.5401L10.4724 7.32829C10.4548 7.5054 10.4437 7.68421 10.4389 7.86473L9.95328 8.13305L10.0207 8.25289L10.4355 8.02401C10.4355 8.03615 10.4345 8.04829 10.4345 8.06042C10.4345 8.19619 10.4395 8.33063 10.447 8.46432L9.98336 8.78326L10.0625 8.89609L10.4579 8.62417C10.469 8.76847 10.4828 8.9122 10.5021 9.05404L10.0686 9.38816L10.1537 9.49662L10.5269 9.20896C10.5495 9.34928 10.5751 9.48866 10.6054 9.62632L10.177 9.99191L10.2677 10.0958L10.6407 9.77745C10.6746 9.91682 10.7127 10.0547 10.7544 10.1908L10.3464 10.5746L10.442 10.6742L10.8 10.3376C10.8491 10.4861 10.9037 10.6319 10.9619 10.7758L10.5903 11.2044L10.6954 11.294L11.0204 10.9197C11.0769 11.0519 11.1386 11.1814 11.2025 11.3092L10.8732 11.7704L10.9866 11.8496L11.2732 11.4482C11.3384 11.5718 11.4079 11.6928 11.4801 11.8123L11.2046 12.3006L11.3259 12.3675L11.5631 11.9465C11.6263 12.0459 11.6912 12.1439 11.7589 12.2401L11.5002 12.764L11.625 12.8245L11.851 12.3667C11.9517 12.5045 12.0572 12.6387 12.1673 12.7691L12.279 12.5916C12.2024 12.4995 12.1284 12.4049 12.0564 12.3091L12.4633 12.3161L12.4658 12.1788Z" fill="#C7C6C6"/>
<path d="M5.89847 4.92983H5.9751C6.12414 4.92926 6.1571 4.89324 6.24043 4.65488C6.32587 4.41861 6.3207 4.38107 6.17146 4.38145H6.09464L5.89847 4.92983ZM5.76877 4.21647L6.3276 4.21685C6.7732 4.21742 6.72071 4.42563 6.63833 4.65469C6.55519 4.88546 6.45768 5.09386 6.01418 5.09386H5.45459L5.76877 4.21647ZM7.11363 4.95714C7.23164 4.95676 7.2667 4.89305 7.35176 4.65488C7.43624 4.4188 7.44716 4.35376 7.32953 4.35433C7.21133 4.35452 7.17551 4.4188 7.09198 4.65488C7.00577 4.89286 6.99543 4.95657 7.11363 4.95714ZM7.3849 4.19922C7.77763 4.19941 7.86633 4.32702 7.74985 4.65488C7.63184 4.98406 7.45157 5.11187 7.05807 5.11187C6.66458 5.11149 6.57664 4.98369 6.6935 4.65488C6.81037 4.3274 6.99102 4.19979 7.3849 4.19922ZM8.22649 4.95676C8.34373 4.95752 8.37975 4.89343 8.46442 4.65488C8.54872 4.41899 8.55964 4.35471 8.44048 4.35414C8.32362 4.35433 8.28894 4.41842 8.20331 4.65564C8.1192 4.89361 8.10886 4.95676 8.22649 4.95676ZM8.49718 4.19941C8.89029 4.19941 8.97957 4.3274 8.86213 4.65488C8.74412 4.98387 8.56462 5.11149 8.17093 5.1113C7.77724 5.1113 7.68874 4.98387 7.80579 4.65488C7.92399 4.32759 8.10369 4.19998 8.49718 4.19941ZM9.57671 4.47038L9.58533 4.44971C9.60257 4.39756 9.58303 4.3549 9.5087 4.35471C9.42632 4.35471 9.37517 4.39301 9.36042 4.43151C9.2995 4.60539 9.95813 4.52082 9.84338 4.84147C9.7769 5.02806 9.56291 5.11168 9.22383 5.11187C8.90485 5.11187 8.75025 5.04683 8.8152 4.8646L8.82612 4.83426L9.19777 4.83464L9.19107 4.85512C9.16386 4.92983 9.20601 4.95676 9.2813 4.95638C9.35927 4.95752 9.41751 4.91978 9.43456 4.87162C9.49778 4.69849 8.86175 4.78477 8.97305 4.47303C9.03685 4.29725 9.23015 4.1996 9.55563 4.19941C9.89127 4.19998 10.0047 4.28189 9.93668 4.47L9.57671 4.47038ZM10.5836 4.39643H10.5796L10.3405 4.76941H10.556L10.5836 4.39643ZM10.4035 4.21723L10.8869 4.21761L10.9325 5.09442L10.5229 5.09405L10.5394 4.94064L10.2329 4.93988L10.1394 5.09423L9.7292 5.09386L10.4035 4.21723ZM11.2957 4.21742H11.7248L11.78 4.75804H11.7846L11.9781 4.21704H12.3383L12.0241 5.09461L11.6017 5.09405L11.5392 4.55305L11.5352 4.55248L11.3405 5.0948L10.9815 5.09386L11.2957 4.21742ZM7.71345 11.6629V12.0264L7.51804 12.2164H7.12129L6.9393 12.0329V11.8349H7.25597V11.9322H7.38873V11.778H7.07704L6.93106 11.6288V11.3188L7.12129 11.1337H7.52801L7.70023 11.3076V11.4858H7.39658V11.4162H7.25578V11.52H7.57379L7.71345 11.6629Z" fill="black"/>
<path d="M7.6183 11.7019L7.52156 11.6061H7.19684L7.15929 11.5688V11.3854L7.22155 11.3253H7.42807L7.48554 11.3854V11.4015H7.6183V11.3611L7.48535 11.2265H7.16734L7.02979 11.3611V11.5915L7.12979 11.692H7.45106L7.48554 11.7296V11.9632L7.42002 12.0265H7.22155L7.15929 11.9632V11.9177H7.02979V11.9842L7.16753 12.1223H7.47232L7.6183 11.9842V11.7019ZM8.57445 11.1338V11.4812H8.28115V11.4163H8.13996V11.5316H8.39916V11.8073H8.13996V11.9325H8.28115V11.8545H8.57445V12.2167H7.7367V11.9323H7.81218V11.4163H7.7367V11.1338H8.57445Z" fill="black"/>
<path d="M8.47641 11.2265H7.83521V11.3255H7.91069V12.0265H7.83521V12.1223H8.47641V11.9501H8.37813V12.0265H8.04019V11.7118H8.30265V11.6242H8.04019V11.3255H8.37813V11.3886H8.47641V11.2265ZM9.39462 11.3255V12.0265L9.20113 12.2165H8.78637L8.59767 12.0265V11.3204L8.79116 11.1338H9.20113L9.39462 11.3255Z" fill="black"/>
<path d="M9.29604 11.3644L9.15657 11.2266H8.83664L8.69238 11.3644V11.9826L8.82534 12.1223H9.15657L9.29604 11.9875V11.3644Z" fill="black"/>
<path d="M9.16496 11.3883V11.9614L9.10098 12.0262H8.8845L8.82568 11.9614V11.3883L8.89101 11.3252H9.10098L9.16496 11.3883Z" fill="black"/>
<path d="M9.06792 11.416H8.92041V11.932H9.06792V11.416Z" fill="white"/>
<path d="M10.3651 11.1335V11.416H10.2782V12.0262L10.0864 12.2162H9.68466L9.49443 12.0262V11.416H9.40918V11.1335H9.86494V11.4065H9.82241V11.932H9.95344V11.4064H9.91091V11.1333L10.3651 11.1335Z" fill="black"/>
<path d="M10.2685 11.2265H9.998V11.3255H10.0505V11.9649L9.98804 12.0265H9.78478L9.72577 11.9649V11.3255H9.77826V11.2265H9.50757V11.3255H9.59301V11.986L9.72577 12.1223H10.0438L10.1815 11.9924V11.3255H10.2685V11.2265ZM10.8997 11.1338V11.4163H10.8097V11.9323H10.9308V11.7588H11.2227V12.2165H10.4093V11.9323H10.485V11.4163H10.4093V11.1338H10.8997Z" fill="black"/>
<path d="M10.803 11.2266H10.5078V11.3255H10.5833V12.0266H10.5078V12.1223H11.1258V11.8512H11.0276V12.0266H10.713V11.3255H10.803V11.2266Z" fill="black"/>
<path d="M8.9821 2.70434C11.0651 2.70434 12.8749 3.8597 13.7947 5.55815H14.1558C13.209 3.67842 11.2482 2.38672 8.9821 2.38672C6.71577 2.38672 4.755 3.67842 3.80824 5.55815H4.16936C5.08892 3.8597 6.89873 2.70434 8.9821 2.70434ZM8.9821 13.5088C6.88417 13.5088 5.06401 12.3369 4.15058 10.619H3.79004C4.72991 12.5184 6.70121 13.8266 8.9821 13.8266C11.2626 13.8266 13.2341 12.5182 14.174 10.619H13.8134C12.8998 12.3369 11.0797 13.5088 8.98191 13.5088" fill="#ED1C24"/>
<path d="M3.44988 6.47314V7.65088L3.2516 7.86819L3.44988 8.07753V9.31898L2.64048 10.0968H0V8.84512H0.300006V7.0037L0.00134102 7.00142V5.75049H2.72285L3.44988 6.47314Z" fill="white"/>
<path d="M6.81669 5.75013V7.17116H5.53505V6.92674H5.12451V7.24056H6.12568V8.43973H5.12451V8.78655H5.53505V8.54345H6.80979L6.81669 10.035H3.42236V8.80627H3.69306V6.92351H3.44554V5.74805L6.81669 5.75013Z" fill="white"/>
<path d="M9.49194 5.75L10.4491 8.84634H10.841V10.0967H8.9245V8.91327H9.19136L9.15132 8.78187H8.43732L8.4105 8.91327H8.64422V10.0967H6.80396L6.81009 8.54332L7.15128 8.90171L8.20399 5.75H9.49194Z" fill="white"/>
<path d="M14.5989 8.84642V10.0968H12.7502V8.92739H12.8126L12.6433 8.53108H12.4632V8.92739H12.7168V10.0968H10.8013V8.84566H11.1352V7.00159H10.8363V5.74951H13.5232L14.264 6.49738L14.2519 7.7779L13.8981 8.13477L14.2186 8.84642H14.5989Z" fill="white"/>
<path d="M17.692 7.82853L17.6774 9.32995L16.874 10.0968H15.2954L14.5526 9.37129L14.5525 8.46888H15.9008V8.85438H16.2877V8.40498H15.1314L14.5239 7.80426L14.5191 6.5171L15.3034 5.75027L16.9498 5.74951L17.6251 6.43177V7.27919H16.3079V6.99135H15.8941V7.25265L17.1676 7.28374L17.692 7.82853ZM3.7938 6.87814V7.99691L3.78728 8.22635L3.7938 8.42356L3.72176 9.66483L2.96868 10.3979L0.296979 10.3966L0.00195312 10.0941L0.652542 9.19381V7.35068H0.344872V6.09614H3.02979L3.7938 6.87814Z" fill="white"/>
<path d="M7.1384 6.08832V7.54803H5.85677V7.31195H5.44641V7.49095H6.45716V8.82475H5.44641V9.17176H5.85677V8.8843L7.1384 8.89473L7.13687 10.3973H3.77205L3.37549 9.98771L4.01477 9.19129V7.30835H3.74427L6.80928 5.75439L7.1384 6.08832Z" fill="white"/>
<path d="M9.81983 6.08506L10.7879 9.21383H11.1798V10.3965L8.5131 10.3978V9.25915H9.53017L9.48994 9.12793H8.77613L8.74931 9.25915H8.98303V10.3978H7.13721V9.21383H7.50197L9.49205 5.75L9.81983 6.08506Z" fill="white"/>
<path d="M14.9218 9.23075V10.3964H12.6976L13.0942 9.29029H13.1566L12.9874 8.89379H12.8072V9.29029H13.061V10.3964H11.1453V9.23075H11.4723V7.35444H11.1652V6.11621H13.8859L14.5745 6.80833L14.5777 8.06704L14.211 8.42808L14.5597 9.17936L14.9218 9.23075Z" fill="white"/>
<path d="M18.0002 8.14133V9.61507L17.199 10.3995L15.6039 10.4014L14.9124 9.71823L14.883 8.83648H16.2448V9.20018H16.6317V8.75078L15.4727 8.75343L14.8865 8.15252L14.8447 6.84337L15.6231 6.08583L17.2634 6.06592L17.9492 6.75785L17.948 7.56564H16.6519V7.33714H16.2381V7.59844H17.4662L18.0002 8.14133Z" fill="white"/>
<path d="M17.9229 8.17251V9.58216L17.1662 10.3186H15.6273L14.9217 9.60719V8.83922H16.1489V9.21694H16.6639V8.61925H15.4558L14.8899 8.04034V6.83814L15.6275 6.12061H17.2041L17.8719 6.79414V7.48645H16.6957V7.21567H16.1489V7.61862H17.3827L17.9229 8.17251Z" fill="white"/>
<path d="M3.70508 6.86384V7.95265L3.49875 8.17261L3.70489 8.37646V9.5762L2.93552 10.3191H0.366505L0.0837402 10.0284L0.665745 9.21743V7.21616L0.701378 7.19815L0.366888 6.12109H2.98016L3.70508 6.86384Z" fill="#131230"/>
<path d="M0.160156 10.0011L0.696183 9.24813V7.14711H0.39177V6.14307L2.92133 6.14951L3.66732 6.87652V7.93139L3.4357 8.17525L3.66655 8.40109V8.95289L3.62441 8.94606L3.60697 9.61637L2.93454 10.2598L0.414951 10.2601L0.160156 10.0011Z" fill="#131230"/>
<path d="M3.42139 6.57313V7.66213L3.22445 7.86976L3.42139 8.07721V9.28586L2.65203 10.0286H0.0830078V8.92691H0.381865V6.92563H0.0830078V5.83057H2.69647L3.42139 6.57313Z" fill="#ED1C24"/>
<path d="M3.13265 6.76802L2.4675 6.11572H0.371668V6.63908H0.669951V9.21206H0.371094V9.74262H2.43531L3.13245 9.078V8.21579L2.70256 7.88224L3.13245 7.5487L3.13265 6.76802Z" fill="white"/>
<path d="M2.20347 6.63867L2.43872 6.81237V7.47927L2.2163 7.62641H1.35824V6.63867H2.20347ZM2.19006 8.14313L2.43796 8.32271V9.02753L2.17109 9.21127H1.35767V8.14313H2.19006Z" fill="#ED1C24"/>
<path d="M2.14958 6.92552H1.64746V7.3408H2.14996L2.14958 6.92552ZM2.14958 8.42999H1.64746V8.9268H2.14996L2.14958 8.42999ZM7.0583 6.12115L7.05696 7.46917H5.91268L5.92016 7.21622H5.37359L5.81862 7.07665L6.37802 7.66581V8.733H5.37359V9.21749H5.92016L6.77458 8.62492L7.05811 8.91542V10.3192H3.80938L3.52566 10.0285L4.22127 9.7545L4.10173 7.21622L4.27472 7.27064L6.77516 5.83008L7.0583 6.12115Z" fill="#131230"/>
<path d="M6.06934 7.42614L6.31743 7.68914V8.67423H5.31645V9.27533H5.97049L6.77127 8.70627L6.99829 8.93761V10.2598H3.83251L3.57446 9.99514L4.15493 9.26888V7.16787H3.86604L6.73487 5.87598L6.99829 6.14676V7.40964H6.06839L6.06934 7.42614Z" fill="#131230"/>
<path d="M6.77475 5.83057V7.17745H5.63679V6.92563H5.08984V7.37276H6.09446V8.44223H5.08984V8.92691H5.63679V8.62503H6.77475V10.0286H3.52563V8.92691H3.81817V6.92563H3.52563V5.83057H6.77475Z" fill="#ED1C24"/>
<path d="M6.48551 6.11475H3.81323V6.63867H4.10615V9.21184H3.81323V9.74165H6.48551V8.90996H5.92458V9.21184H4.80061V8.15565H5.80504V7.6577H4.79984V6.63867H5.92439V6.89068H6.48551V6.11475ZM9.64056 8.23491H8.38651V9.64873H9.64056V8.23491ZM13.4983 8.23491H12.2443V9.64873H13.4983V8.23491ZM16.8756 8.38016H15.6215V9.79398H16.8756V8.38016Z" fill="white"/>
<path d="M13.4953 8.23486H12.2412V9.64869H13.4953V8.23486ZM16.8727 8.38011H15.6185V9.79394H16.8727V8.38011Z" fill="white"/>
<path d="M9.74695 6.12175L10.6588 9.06278L10.8048 8.92739L11.0886 9.21808V10.3198H9.30805L9.04062 10.0325L9.58162 9.26208L9.50538 9.02315H8.69751L8.62145 9.26208H8.88199L9.37434 10.3196H7.15877L6.87524 10.0289L7.5084 9.21808L9.46342 5.83105L9.74695 6.12175Z" fill="#131230"/>
<path d="M9.69362 6.15343L10.6592 9.27005L10.7793 8.98714L11.0287 9.24389V10.2599H9.10663L8.82693 9.71548L9.68212 9.31253L9.56124 8.95907H8.64091L8.53325 9.31253H8.81448L9.30645 10.2599H7.18322L6.92383 9.99251L7.58419 9.28276L9.44687 5.8999L9.69362 6.15343Z" fill="#131230"/>
<path d="M9.64131 8.23535H8.38745V9.64936H9.64131V8.23535Z" fill="#131230"/>
<path d="M9.46337 5.83105L10.4232 8.92739H10.8048V10.0291H9.02447V8.97139H9.29785L9.2216 8.73246H8.41373L8.33748 8.97139H8.59802V10.0289H6.875V8.9272H7.22482L8.26124 5.83105H9.46337Z" fill="#ED1C24"/>
<path d="M9.24848 6.11719H8.46973L7.43484 9.21182H7.16357V9.74295H8.30996V9.21201H7.94271L8.21226 8.44688H9.42722L9.68393 9.21106H9.31266V9.74276H10.5165V9.21182H10.2088L9.24848 6.11719Z" fill="white"/>
<path d="M8.86559 6.57373L9.35506 8.13527H8.28052L8.79585 6.57373H8.86559Z" fill="#ED1C24"/>
<path d="M8.82757 7.4165L8.6814 7.85093H8.96742L8.82757 7.4165Z" fill="#131230"/>
<path d="M14.5137 8.9886L14.8015 9.27417V10.2632H13.1997L12.6715 9.68906L13.3397 9.3356L13.0396 8.69487H12.6723V9.33579H12.8993L13.3028 10.263H11.2535L10.9673 9.97368L11.5644 9.27625V7.17524H11.2535V6.16797L13.7513 6.182L14.4409 6.87393V8.00105L14.0407 8.40608L14.3802 9.08113L14.5137 8.9886Z" fill="white"/>
<path d="M13.4994 8.23535H12.2451V9.64936H13.4994V8.23535ZM16.8766 8.38079H15.6224V9.79461H16.8766V8.38079Z" fill="white"/>
<path d="M14.5566 8.92698L14.8416 9.21293L14.8435 10.3186L13.15 10.3179L12.5891 9.7251L13.2456 9.29067L12.9975 8.75575H12.7245V9.29048H12.9468L13.3504 10.3179L11.2153 10.3186L10.9207 10.0291L11.5034 9.22772V7.22645L11.3745 7.20142L11.2046 6.13138L13.7786 6.11621L14.497 6.83981L14.4974 8.03708L14.1154 8.41196L14.4234 9.0709L14.5566 8.92698ZM17.92 8.17304V9.58288L17.1633 10.3194L15.6296 10.3203L14.9238 9.60886L14.9188 8.84032H16.1461V9.21786H16.6612V8.61979H15.4526L14.8866 8.04106V6.83886L15.6242 6.12152H17.2011L17.8687 6.79487V7.48699H16.6926V7.21659H16.1461V7.61916H17.3796L17.92 8.17304Z" fill="#131230"/>
<path d="M17.9197 8.17299V9.58283L17.1629 10.3193L15.6292 10.3203L14.9234 9.60881L14.9184 8.84027H16.1457V9.21781H16.6608V8.61974H15.4522L14.8863 8.04101V6.83881L15.6238 6.12147L17.2013 6.11768L17.8687 6.78894L17.8683 7.48713H16.692V7.21654H16.1457L15.9947 7.47006H17.2285L17.9197 8.17299ZM14.5081 8.97395L14.7782 9.25137L14.7826 10.2596L13.1881 10.2598L12.6581 9.69072L13.3265 9.33727L13.0261 8.69654H12.6588V9.33746H12.886L13.2912 10.2598L11.2316 10.2605L10.9385 9.97288L11.5509 9.27792V7.1769H11.2402V6.16963L13.7364 6.17399L14.4263 6.86611L14.4276 8.00897L14.0343 8.40054L14.3558 9.09209C14.3659 9.10252 14.5081 8.97395 14.5081 8.97395Z" fill="#131230"/>
<path d="M17.8602 8.19602L17.8598 9.55922L17.1403 10.2597L15.6546 10.2604L14.9695 9.57287L14.9747 8.89876H16.1V9.26891H16.7209V8.56162H15.4728L14.9437 8.02005V6.86753L15.664 6.16726L17.1642 6.16309L17.8102 6.81614L17.8092 7.42768H16.7542V7.16126H16.087V7.66982L17.3345 7.65769L17.8602 8.19602ZM13.4957 8.23509H12.2417V9.6491H13.4956L13.4957 8.23509Z" fill="#131230"/>
<path d="M16.8731 8.38053H15.6189V9.79435H16.8731V8.38053ZM17.1 6.31934H15.8461V7.73335H17.1V6.31934Z" fill="#131230"/>
<path d="M14.557 8.9272V10.0289H12.8654V8.99035H12.9612L12.7129 8.45523H12.4395V8.99035H12.6623V10.0287H10.9199V8.92701H11.2188V6.92612H10.9199V5.83105H13.4949L14.2137 6.55465V7.73126L13.8194 8.1215L14.1943 8.92701L14.557 8.9272Z" fill="#ED1C24"/>
<path d="M14.2677 9.21035H14.0118L13.4725 8.06257L13.9254 7.60615L13.9241 6.66543L13.371 6.1123H11.2075V6.63794H11.5064V9.21054H11.2081V9.74148H12.3738V9.21054H12.1516V8.16857L12.9056 8.17046L13.3961 9.21054H13.1524V9.74148H14.2679L14.2677 9.21035Z" fill="white"/>
<path d="M13.2739 6.86957V7.37814L13.0068 7.64247H12.1936V6.63672H13.0321L13.2739 6.86957Z" fill="#ED1C24"/>
<path d="M12.9857 6.92334H12.4832V7.35757H12.9855L12.9857 6.92334Z" fill="#131230"/>
<path d="M17.6363 7.88277V9.29242L16.8796 10.0289H15.3406L14.6351 9.31763V8.54967H15.8621V8.92739H16.3771V8.32951H15.1692L14.6033 7.75041V6.54839L15.3408 5.83105H16.9175L17.5853 6.50459V7.19671H16.4091V6.92612H15.8621V7.32869H17.0959L17.6363 7.88277Z" fill="#ED1C24"/>
<path d="M17.3474 7.99883L16.9707 7.6139L15.7198 7.61295L15.5736 7.4677V6.87229L15.815 6.63981H16.4744L16.697 6.87248V6.91021H17.3491L17.3489 6.67223L16.7939 6.11475H15.4567L14.8906 6.67223L14.8914 7.634L15.2887 8.04282H16.532L16.6654 8.1875V8.96685L16.411 9.21222H15.8144L15.5728 8.96685V8.83412H14.923V9.20122L15.4661 9.74411L16.7577 9.74089L17.3472 9.17828L17.3474 7.99883Z" fill="white"/>
</svg>
