<svg width="46" height="36" viewBox="0 0 46 36" fill="none" xmlns="http://www.w3.org/2000/svg">
<g clip-path="url(#clip0_547_1060)">
<path d="M22.1743 0.55957C13.6233 0.55957 6.58229 6.95342 5.5478 15.2126C5.38477 15.9195 5.28238 16.617 5.21163 17.3073H4.39697C4.39697 27.1114 12.355 35.0594 22.1743 35.0594C31.9936 35.0594 39.9541 27.1114 39.9541 17.3073H38.9481C38.9481 18.0335 38.8857 18.7442 38.7959 19.4461C38.628 18.7278 38.3524 18.0122 37.942 17.3073H38.948C38.9481 8.05681 31.4376 0.55957 22.1743 0.55957Z" fill="#042445"/>
<path d="M22.1751 34.0546C31.4383 34.0546 38.9477 26.5569 38.9477 17.3081H37.9427C37.9427 26.0016 30.8822 33.0495 22.1751 33.0495C13.4681 33.0495 6.40759 26.0016 6.40759 17.3081H5.40259C5.40259 26.5569 12.9119 34.0546 22.1751 34.0546Z" fill="#D01031"/>
<path d="M22.1752 1.56494C17.9934 1.56494 13.9829 3.22358 11.0259 6.17598C8.06893 9.12838 6.40771 13.1327 6.40771 17.308H7.41447C7.41447 13.3993 8.96961 9.65065 11.7378 6.88676C14.506 4.12286 18.2604 2.57011 22.1752 2.57009C24.1136 2.57008 26.0331 2.95127 27.8239 3.69192C29.6148 4.43256 31.2421 5.51815 32.6127 6.88669C33.9834 8.25524 35.0707 9.87994 35.8125 11.668C36.5543 13.4561 36.9361 15.3726 36.9361 17.308H37.9428C37.9428 15.2406 37.535 13.1934 36.7426 11.2834C35.9502 9.37335 34.7888 7.63784 33.3246 6.17596C31.8604 4.71408 30.1222 3.55446 28.2092 2.7633C26.2962 1.97214 24.2459 1.56494 22.1752 1.56494Z" fill="#62B1E3"/>
<path d="M32.2392 17.3082C32.2392 19.9731 31.1789 22.529 29.2916 24.4134C27.4042 26.2978 24.8445 27.3564 22.1754 27.3564C19.5062 27.3564 16.9465 26.2978 15.0591 24.4134C13.1718 22.529 12.1115 19.9731 12.1115 17.3082C12.1115 14.6432 13.1718 12.0874 15.0591 10.203C16.9464 8.31857 19.5062 7.25992 22.1753 7.25992C24.8444 7.25992 27.4042 8.31857 29.2916 10.203C31.1789 12.0874 32.2392 14.6432 32.2392 17.3082ZM11.7563 9.07451L13.2673 10.3924L14.2221 9.3003L13.939 9.05279L13.279 9.80542L12.0529 8.73501L11.7563 9.07451ZM14.9708 8.6748C14.4449 9.113 14.0278 8.94072 13.6325 8.46743C13.2388 7.99579 13.1416 7.54922 13.6659 7.11272C14.202 6.66616 14.6174 6.8535 15.0077 7.32009C15.4063 7.79843 15.5052 8.22993 14.9709 8.6748M13.9122 7.40873C13.5822 7.68301 13.7564 7.91215 13.9809 8.17978C14.2237 8.47243 14.4114 8.64471 14.7246 8.38379C15.0093 8.14464 14.9708 7.97572 14.6643 7.60778C14.3879 7.27664 14.212 7.15787 13.9122 7.40873Z" fill="white"/>
<path d="M15.8702 6.08073L16.691 7.47893L16.2907 7.71473L15.4699 6.31483L14.9573 6.61428L14.7647 6.28474L16.1919 5.45022L16.3845 5.77967L15.8702 6.08073ZM17.7631 5.21102L18.346 6.72465L17.9138 6.89187L17.3292 5.3783L16.7764 5.59067L16.6374 5.23445L18.1818 4.64073L18.3192 4.99695L17.7631 5.21102ZM19.2003 6.43695L18.7916 4.47516L20.2304 4.17745L20.3075 4.55209L19.3142 4.7578L19.4013 5.17589L20.2606 4.9986L20.3377 5.36658L19.4784 5.54552L19.5672 5.97537L20.5604 5.76961L20.6375 6.13924L19.2003 6.43695ZM23.5287 5.48866C23.5119 5.88002 23.1434 6.1075 22.6844 6.08743C22.4014 6.07572 22.135 5.97367 22.0144 5.81981C21.8737 5.63917 21.8101 5.33815 21.8285 5.03544C21.8385 4.78623 21.8888 4.5136 22.0044 4.36309C22.2037 4.10052 22.4164 4.04031 22.7548 4.05537C23.1619 4.07209 23.522 4.30453 23.5505 4.77452L23.0932 4.75445C23.0831 4.57381 22.9675 4.45173 22.7414 4.44168C22.5773 4.43502 22.4533 4.47516 22.4047 4.56545C22.3232 4.71544 22.2801 4.88318 22.2791 5.05381C22.2691 5.27124 22.3092 5.47865 22.3913 5.58401C22.4433 5.64923 22.5638 5.69608 22.6979 5.69773C22.9173 5.70443 23.0513 5.61579 23.058 5.46359L23.0647 5.31638L22.661 5.29967L22.676 4.95681L23.5487 4.99195L23.5287 5.48866ZM23.9073 6.19109L24.3562 6.27138L24.7046 4.29783L24.2557 4.21759L23.9073 6.19109ZM26.1066 6.75473L26.0765 6.31487L25.3864 6.09409L25.1167 6.43865L24.6594 6.29145L26.0346 4.62736L26.4081 4.74779L26.5589 6.89862L26.1066 6.75473ZM26.0162 5.32474L25.6326 5.78633L26.0597 5.92181L26.0162 5.32474ZM27.9509 7.64115L27.7583 6.15261L27.177 7.22302L26.7767 7.00559L27.7315 5.24446L28.0414 5.41173L28.2357 6.90358L28.8169 5.83152L29.2206 6.04894L28.2641 7.81008L27.9509 7.64115ZM30.3697 7.37522L29.3597 8.64464L28.9962 8.35695L30.0062 7.08757L29.5405 6.71794L29.7784 6.41858L31.0749 7.44715L30.8371 7.74486L30.3697 7.37522ZM30.43 9.71501C30.2441 9.50263 30.1654 9.25007 30.1838 8.90722L30.5925 8.89886C30.5674 9.15973 30.6059 9.30358 30.7366 9.45078C30.884 9.62301 31.028 9.66315 31.1386 9.56951C31.2022 9.516 31.229 9.39222 31.1285 9.24507L31.0029 9.04601C30.8404 8.79515 30.7885 8.45229 31.0548 8.2215C31.3413 7.97565 31.7248 8.02915 32.0263 8.37536C32.1973 8.57906 32.2863 8.83899 32.276 9.10457L31.879 9.11794C31.8923 8.83364 31.8019 8.71652 31.7249 8.62788C31.6009 8.48412 31.477 8.4657 31.358 8.56601C31.2759 8.63794 31.2877 8.72998 31.3681 8.86041C31.3915 8.90051 31.4652 9.00922 31.4853 9.0377C31.6947 9.34372 31.7047 9.70334 31.4485 9.92242C31.1603 10.1733 30.745 10.0796 30.43 9.71501ZM42.8172 16.9585L45.9999 13.7808H34.8522L35.4369 11.6083H31.9761L31.3932 13.7808H9.64902L11.8266 11.6066H4.45959C3.8958 11.6075 3.348 11.7937 2.90081 12.1365C2.45362 12.4793 2.13195 12.9596 1.98548 13.5032L0.0725783 20.633C-0.0113517 20.9399 -0.0226603 21.2621 0.0395455 21.5741C0.101751 21.8861 0.235768 22.1794 0.43101 22.4309C0.826333 22.9477 1.42769 23.2421 2.07762 23.2421H40.3364C40.9002 23.2418 41.4481 23.0561 41.8953 22.7135C42.3426 22.3709 42.6643 21.8907 42.8105 21.3471L43.953 17.0907H42.6849L42.8172 16.9585Z" fill="white"/>
<path d="M10.1733 22.7402L12.4429 14.2824H12.7612L10.4915 22.7402H10.1733ZM17.026 21.8069H15.2839C15.1567 21.8082 15.0309 21.7799 14.9166 21.7243C14.8022 21.6688 14.7023 21.5874 14.6248 21.4867C14.5473 21.386 14.4944 21.2686 14.4701 21.144C14.4458 21.0193 14.4509 20.8907 14.4849 20.7683L15.7445 16.0753C15.8109 15.8287 15.9568 15.6109 16.1597 15.4555C16.3626 15.3001 16.6111 15.2158 16.8668 15.2157H20.8133L18.7932 22.7402H18.4749L20.4113 15.5218H16.8668C16.6787 15.5221 16.496 15.5844 16.347 15.699C16.198 15.8136 16.091 15.9741 16.0427 16.1556L14.783 20.8486C14.7618 20.9253 14.7586 21.0059 14.7739 21.084C14.7891 21.1621 14.8223 21.2356 14.8709 21.2986C14.9195 21.3617 14.9821 21.4127 15.0537 21.4475C15.1254 21.4823 15.2042 21.5 15.2839 21.4992H17.3325L17.026 21.8069ZM22.5755 22.7402L24.3427 16.1556C24.3914 15.9741 24.4988 15.8138 24.6481 15.6995C24.7974 15.5852 24.9804 15.5233 25.1685 15.5234H28.713L26.7749 22.7402H27.0949L29.1133 15.2157H25.1685C24.9127 15.216 24.664 15.3003 24.4609 15.4556C24.2577 15.611 24.1114 15.8288 24.0445 16.0753L22.2572 22.7402H22.5755ZM34.3865 21.8069H31.8873C31.7605 21.8077 31.6353 21.7789 31.5216 21.7228C31.4079 21.6668 31.3088 21.5851 31.2323 21.4842C31.1543 21.3842 31.1006 21.2675 31.0756 21.1432C31.0506 21.019 31.055 20.8906 31.0883 20.7683L33.4132 12.1099H33.7316L32.8973 15.2157H36.5189L36.2107 15.5234H32.8152L31.3864 20.8486C31.3651 20.9253 31.362 21.0059 31.3772 21.084C31.3925 21.1621 31.4257 21.2356 31.4743 21.2987C31.5228 21.3618 31.5854 21.4127 31.6571 21.4475C31.7288 21.4823 31.8076 21.5 31.8873 21.4992H34.4686L34.3865 21.8069ZM35.8287 21.4992H40.2258C40.4137 21.4989 40.5963 21.4369 40.7452 21.3226C40.8942 21.2083 41.0013 21.0482 41.05 20.867L41.6412 18.6643H37.6395L38.333 16.0753C38.3996 15.8284 38.5457 15.6103 38.7489 15.4546C38.952 15.299 39.2008 15.2144 39.4569 15.214H43.8507L43.5425 15.5217H39.4569C39.2689 15.5221 39.0862 15.5843 38.937 15.6985C38.7878 15.8127 38.6803 15.9728 38.6311 16.154L38.0398 18.3566H42.0433L41.3481 20.9456C41.2818 21.1924 41.136 21.4104 40.9331 21.5661C40.7303 21.7218 40.4817 21.8065 40.2258 21.8069H35.7466L35.8287 21.4992ZM4.57175 13.0431C4.31603 13.0432 4.06748 13.1275 3.86458 13.2829C3.66169 13.4383 3.51578 13.6562 3.44945 13.9028L1.60688 20.7684C1.5736 20.8906 1.56914 21.0188 1.59384 21.143C1.61855 21.2672 1.67174 21.384 1.74925 21.4842C1.82596 21.5849 1.92504 21.6665 2.03869 21.7225C2.15234 21.7785 2.27745 21.8074 2.40419 21.807H6.96039L8.18992 17.2261H5.48973L5.18148 17.5321H7.78959L6.72423 21.5009H2.40419C2.32476 21.5012 2.24633 21.4831 2.17511 21.448C2.10388 21.4129 2.04181 21.3617 1.99378 21.2986C1.94467 21.2358 1.91093 21.1624 1.89523 21.0843C1.87953 21.0062 1.88231 20.9255 1.90335 20.8486L3.74592 13.9831C3.79462 13.8016 3.90197 13.6413 4.0513 13.527C4.20063 13.4127 4.38358 13.3508 4.57175 13.3509H9.37083L9.67738 13.0432L4.57175 13.0431Z" fill="white"/>
<path d="M19.9541 10.6768C19.2439 10.6768 18.8787 11.1116 18.8787 11.6033C18.8787 12.0934 19.2623 12.53 19.9541 12.53C20.6325 12.53 21.0311 12.0934 21.0311 11.6033C21.0311 11.1116 20.666 10.6768 19.9541 10.6768ZM21.3075 10.7487V10.9527H21.9775V12.4546H22.5019V10.9527H23.1736V10.7487H21.3075ZM23.4081 10.7487V10.9527H24.0782V12.4546H24.6024V10.9527H25.2726V10.7487H23.4081ZM17.1417 10.7504V12.2305C17.1417 12.3844 17.222 12.4563 17.3627 12.4563H18.6442V12.2506H17.7647C17.6776 12.2506 17.6609 12.2021 17.6609 12.1336V10.7504H17.1417ZM25.8302 10.7504C25.7063 10.7504 25.5874 10.7754 25.5874 10.9979V12.2088C25.5874 12.4346 25.6996 12.458 25.8471 12.458H27.2072V12.2523H26.2272C26.11 12.2523 26.1067 12.2004 26.1067 12.1319V11.6502H27.1905V11.4479L26.1067 11.4478V11.0765C26.1067 10.9678 26.1469 10.9544 26.2407 10.9544H27.2072V10.7504H25.8302ZM19.9541 10.8675C20.2773 10.8675 20.5236 11.2019 20.5236 11.6033C20.5236 12.0064 20.2774 12.3342 19.9541 12.3342C19.6308 12.3342 19.3846 12.0064 19.3846 11.6033C19.3846 11.2019 19.6308 10.8675 19.9541 10.8675ZM4.46133 12.1101C4.00795 12.11 3.56722 12.2593 3.20745 12.5348C2.84768 12.8102 2.58895 13.1965 2.47137 13.6337L0.55842 20.7618C0.495988 20.9947 0.488042 21.2389 0.535198 21.4753C0.582354 21.7118 0.683348 21.9342 0.83037 22.1255C0.977391 22.3168 1.1665 22.4717 1.38308 22.5783C1.59965 22.685 1.83789 22.7404 2.07936 22.7404H7.75957L9.44639 16.4553H6.25873L5.48984 17.2246H8.18999L6.96046 21.8072H2.40435C2.2773 21.8082 2.15175 21.7797 2.03759 21.724C1.92343 21.6683 1.82377 21.5869 1.74647 21.4863C1.66918 21.3856 1.61634 21.2684 1.59214 21.1438C1.56793 21.0193 1.57302 20.8908 1.60699 20.7686L3.44956 13.903C3.51591 13.6564 3.66184 13.4385 3.86475 13.2831C4.06767 13.1277 4.31623 13.0435 4.57196 13.0434H9.67749L10.6121 12.1101L4.46133 12.1101ZM32.3631 12.1101L30.0398 20.7635C29.9777 20.9963 29.97 21.2403 30.0173 21.4765C30.0646 21.7127 30.1656 21.9349 30.3126 22.126C30.4596 22.317 30.6486 22.4718 30.8651 22.5783C31.0815 22.6848 31.3195 22.7403 31.5608 22.7404H34.1354L34.385 21.8071H31.8858C31.759 21.8076 31.6339 21.7787 31.5203 21.7227C31.4066 21.6667 31.3075 21.5851 31.2308 21.4844C31.1532 21.3842 31.1001 21.2674 31.0754 21.1432C31.0507 21.019 31.0551 20.8908 31.0884 20.7686L33.4117 12.1101H32.3631ZM33.7299 12.1101L32.8957 15.2159H36.5156L37.4503 14.2827H34.1956L34.7786 12.1101H33.7299ZM4.57182 13.3494C4.38366 13.3493 4.20072 13.4112 4.05139 13.5255C3.90206 13.6398 3.79471 13.8001 3.74598 13.9815L3.74608 13.9816L1.9035 20.8472C1.88247 20.924 1.87968 21.0047 1.89538 21.0828C1.91107 21.1609 1.9448 21.2343 1.99389 21.297C2.04192 21.3602 2.10399 21.4114 2.17522 21.4465C2.24644 21.4816 2.32487 21.4997 2.4043 21.4994H6.72434L7.7897 17.5306H5.18164L4.41105 18.2999H6.53339L5.92532 20.5661H3.02912L4.71594 14.2827H8.43623L9.37095 13.3494H4.57182ZM11.3944 14.281L9.12471 22.7387H10.175L12.4447 14.281H11.3944ZM12.7629 14.281L10.4932 22.7387H11.5419L13.8116 14.281H12.7629ZM16.7564 14.2827C16.3033 14.283 15.863 14.4325 15.5035 14.7079C15.1441 14.9834 14.8856 15.3694 14.7681 15.8063L13.4381 20.7618C13.3757 20.9946 13.3678 21.2386 13.4148 21.4749C13.4619 21.7112 13.5627 21.9336 13.7096 22.1248C13.8564 22.3161 14.0453 22.471 14.2616 22.5778C14.478 22.6845 14.716 22.7402 14.9574 22.7404H16.0914L17.0261 21.8072H15.284C15.1568 21.8084 15.031 21.7802 14.9167 21.7246C14.8023 21.669 14.7024 21.5876 14.6249 21.4869C14.5474 21.3862 14.4945 21.2689 14.4702 21.1442C14.4459 21.0196 14.4509 20.891 14.4849 20.7686L15.7446 16.0755C15.8109 15.8289 15.9568 15.6111 16.1597 15.4556C16.3626 15.3002 16.6112 15.216 16.8669 15.2159H20.8134L18.7932 22.7404H19.8435L22.1132 14.2827H16.7564ZM25.0564 14.2827C24.6033 14.283 24.163 14.4325 23.8035 14.7079C23.4441 14.9834 23.1856 15.3694 23.0681 15.8063L21.207 22.7403H22.2556L24.0447 16.0756V16.0755C24.111 15.8289 24.2569 15.611 24.4598 15.4556C24.6627 15.3002 24.9112 15.2159 25.1669 15.2158H29.1135L27.0932 22.7403H28.1435L30.4132 14.2827L25.0564 14.2827ZM39.3465 14.2827C38.8934 14.283 38.453 14.4325 38.0936 14.7079C37.7342 14.9834 37.4757 15.3694 37.3582 15.8063L36.385 19.4306H40.3884L40.0836 20.5678H36.0802L35.8306 21.5011H40.226C40.4144 21.5011 40.5975 21.439 40.7468 21.3243C40.8961 21.2097 41.0033 21.0489 41.0517 20.8672L41.6431 18.6663H37.6396L38.3347 16.0773C38.401 15.8305 38.5468 15.6124 38.7497 15.4567C38.9526 15.301 39.2012 15.2163 39.4571 15.2159H43.8525L44.7872 14.2827H39.3465ZM25.1669 15.5219C24.979 15.5222 24.7965 15.5843 24.6475 15.6985C24.4985 15.8128 24.3914 15.973 24.3428 16.1542L22.5755 22.7387H23.6242L25.311 16.4553H27.4133L25.7264 22.7387H26.775L28.7114 15.522L25.1669 15.5219ZM16.867 15.5236C16.679 15.5241 16.4963 15.5862 16.3471 15.7004C16.1979 15.8146 16.0904 15.9746 16.0412 16.1558C15.7279 17.3299 14.7815 20.8489 14.7815 20.8489C14.7606 20.9256 14.7577 21.0062 14.7731 21.0842C14.7885 21.1622 14.8217 21.2357 14.8702 21.2988C14.9187 21.3619 14.9811 21.413 15.0526 21.4481C15.1241 21.4832 15.2027 21.5013 15.2823 21.5011H17.3327L17.9139 20.9207L17.4247 22.7404H18.475L20.4114 15.5237L16.867 15.5236ZM32.8154 15.5236L31.3865 20.8489C31.3653 20.9257 31.3622 21.0063 31.3774 21.0845C31.3927 21.1627 31.4259 21.2362 31.4744 21.2995C31.523 21.3627 31.5855 21.4138 31.6572 21.4488C31.7289 21.4837 31.8077 21.5017 31.8874 21.5011H34.4687L34.7199 20.5678H32.5122L33.6144 16.457H35.276L36.2107 15.5237L32.8154 15.5236ZM39.4571 15.5236C39.2692 15.5239 39.0867 15.5859 38.9377 15.7002C38.7887 15.8145 38.6816 15.9746 38.633 16.1558L38.0416 18.3585H42.0434L41.3482 20.9474C41.2819 21.194 41.136 21.4119 40.9331 21.5673C40.7303 21.7228 40.4817 21.8071 40.226 21.8072H35.7467L35.4972 22.7404H40.3364C40.7898 22.7404 41.2305 22.5911 41.5903 22.3156C41.9501 22.0402 42.2088 21.6539 42.3264 21.2168L43.2979 17.5925H39.2962L39.6011 16.457H42.6095L43.5442 15.5237L39.4571 15.5236ZM17.0109 16.4569H19.1116L18.0077 20.5679H15.9071L17.0109 16.4569Z" fill="#D01031"/>
<path d="M10.9255 25.784L12.4649 24.4995L13.4063 25.6251L13.1132 25.8693L12.4632 25.0916L12.1332 25.3659L12.6961 26.0382L12.4063 26.2807L11.8451 25.6084L11.5067 25.8911L12.1567 26.6671L11.8669 26.9096L10.9255 25.784ZM12.6726 27.7258C12.4665 27.5334 12.3627 27.2892 12.3476 26.9464L12.7547 26.8979C12.7547 27.1588 12.8083 27.2993 12.9523 27.4314C13.1148 27.5903 13.2622 27.6153 13.3644 27.5117C13.4214 27.4515 13.4348 27.326 13.3225 27.1889L13.1768 27.0032C12.9892 26.7708 12.9054 26.4346 13.1466 26.1787C13.4063 25.9044 13.7949 25.9211 14.1283 26.2356C14.3187 26.4214 14.4332 26.6711 14.4499 26.9363L14.0545 26.9898C14.0412 26.7056 13.939 26.5968 13.8535 26.5166C13.7145 26.3844 13.5905 26.3794 13.4817 26.4915C13.408 26.5701 13.4281 26.6604 13.5202 26.7825C13.5641 26.8388 13.6093 26.894 13.6559 26.9481C13.8937 27.2324 13.9406 27.5886 13.7078 27.8311C13.4448 28.1088 13.0227 28.0569 12.6726 27.7258ZM15.4231 27.7575L14.5169 29.1022L14.1316 28.843L15.0378 27.4983L14.5454 27.1671L14.7597 26.8511L16.1317 27.7742L15.9173 28.0903L15.4231 27.7575ZM15.0395 29.6123L15.5152 29.8749L15.7665 29.4166L15.2907 29.154L15.0395 29.6123ZM17.3428 28.7209L17.1719 29.1724L17.6727 29.0587L17.1484 30.4485L17.5655 30.6058L18.2824 28.7075L17.9424 28.5804L17.3428 28.7209ZM19.3193 28.9918C19.7531 29.0972 19.9659 29.4635 19.8821 29.8046C19.8289 29.9794 19.738 30.1404 19.6158 30.2763L18.9625 31.0038L18.4667 30.8834L19.058 30.2495C18.9618 30.2506 18.8667 30.23 18.7796 30.1891C18.6926 30.1482 18.616 30.0882 18.5556 30.0135C18.4951 29.9388 18.4524 29.8514 18.4306 29.7579C18.4089 29.6644 18.4086 29.5671 18.4299 29.4735C18.5169 29.1189 18.8603 28.8797 19.3193 28.9918ZM19.0898 29.8916C19.3026 29.9435 19.4031 29.8448 19.4382 29.6976C19.4734 29.5555 19.4031 29.4133 19.2272 29.3698C19.0396 29.3246 18.9139 29.415 18.8754 29.5755C18.8369 29.731 18.9156 29.8498 19.0898 29.8916ZM20.6912 31.3366C20.192 31.2848 19.9609 30.9737 19.9977 30.6175C20.0089 30.5249 20.0448 30.4371 20.1017 30.3633C20.1585 30.2894 20.2343 30.2322 20.321 30.1977C20.2538 30.1503 20.2008 30.0856 20.1675 30.0105C20.1341 29.9354 20.1218 29.8527 20.1317 29.7712C20.1686 29.4183 20.4735 29.2176 20.9006 29.2628C21.3613 29.3096 21.5941 29.5822 21.5606 29.915C21.5552 29.9977 21.527 30.0772 21.4791 30.1448C21.4312 30.2124 21.3654 30.2655 21.2892 30.298C21.3643 30.3507 21.4247 30.4217 21.4646 30.5042C21.5045 30.5868 21.5225 30.6782 21.517 30.7697C21.4819 31.1092 21.2004 31.3902 20.6912 31.3366ZM20.7766 30.4502C20.6108 30.4318 20.4768 30.5439 20.4634 30.666C20.45 30.7948 20.5237 30.9202 20.7281 30.9403C20.9408 30.9637 21.0363 30.855 21.0497 30.7262C21.0631 30.6024 20.9592 30.4686 20.7766 30.4502ZM20.8604 29.6391C20.6962 29.6223 20.5974 29.701 20.584 29.8264C20.5723 29.9418 20.6694 30.0438 20.8169 30.0605C20.981 30.0773 21.0899 29.9936 21.1049 29.8749C21.12 29.7528 21.0313 29.6575 20.8604 29.6391M21.8721 31.3734L21.8621 31.0473L22.6528 30.1976C22.7432 30.0957 22.7918 29.9936 22.7901 29.9117C22.7867 29.7996 22.703 29.7076 22.5388 29.7127C22.3462 29.7177 22.2624 29.8632 22.2524 30.0355L21.8085 30.0488C21.8035 29.6056 22.1569 29.338 22.5254 29.328C22.9057 29.318 23.2407 29.522 23.2508 29.9016C23.2558 30.0689 23.1971 30.2378 23.0263 30.4235L22.5137 30.9687L23.2976 30.947L23.3093 31.3333L21.8721 31.3734ZM25.6495 30.9269L24.765 31.1409L24.2909 29.1942L25.1252 28.9918C25.559 28.8865 25.8806 29.052 25.966 29.4016C25.986 29.543 25.9571 29.6869 25.884 29.8097C26.013 29.8883 26.1486 30.0137 26.1871 30.1726C26.2776 30.5405 26.0682 30.8248 25.6495 30.9269ZM25.2575 29.3531L24.8203 29.4601L24.9191 29.8648L25.3714 29.7545C25.5054 29.7227 25.5456 29.5956 25.5238 29.5053C25.5167 29.4776 25.504 29.4517 25.4867 29.429C25.4693 29.4063 25.4476 29.3873 25.4228 29.3731C25.398 29.359 25.3706 29.3499 25.3422 29.3464C25.3138 29.343 25.285 29.3452 25.2575 29.3531ZM25.4618 30.1157L25.0062 30.2261L25.1151 30.6693L25.5825 30.5556C25.7215 30.5221 25.7617 30.3983 25.7349 30.288C25.7081 30.1759 25.6093 30.0806 25.4618 30.1157ZM28.1738 29.3297C28.348 29.7428 28.085 30.089 27.6428 30.2746C27.2123 30.457 26.7718 30.4067 26.5975 29.9936L26.0699 28.746L26.4971 28.567L27.0297 29.8264C27.1034 29.997 27.2944 30.0053 27.4937 29.92C27.6964 29.8348 27.8237 29.6926 27.7517 29.522L27.219 28.2626L27.6461 28.082L28.1738 29.3297ZM29.5139 29.343C29.271 29.4869 29.008 29.517 28.673 29.4367L28.74 29.032C28.9929 29.1055 29.142 29.0938 29.3095 28.9935C29.5072 28.8814 29.5742 28.7459 29.5021 28.6205C29.4603 28.5469 29.343 28.5001 29.1805 28.5703L28.9611 28.6573C28.6847 28.7711 28.3363 28.7577 28.1587 28.455C27.9694 28.1288 28.0934 27.7626 28.4887 27.5301C28.7205 27.3993 28.9928 27.3593 29.2525 27.418L29.1939 27.8111C28.9158 27.7458 28.7835 27.8127 28.683 27.8712C28.5172 27.9683 28.4753 28.0853 28.554 28.2208C28.6093 28.3145 28.7014 28.3211 28.8455 28.266C28.9114 28.2395 28.9768 28.2116 29.0415 28.1823C29.3815 28.0335 29.7366 28.0903 29.9058 28.3813C30.1001 28.7092 29.931 29.1005 29.5139 29.343ZM31.6345 27.7224L31.2459 27.5133L30.6914 27.98L30.8389 28.3914L30.472 28.7008L29.7919 26.652L30.0918 26.3995L31.998 27.418L31.6345 27.7224ZM30.3732 27.0384L30.5608 27.607L30.9042 27.3176L30.3732 27.0384ZM33.1789 26.0784L31.6814 25.9529L32.606 26.7456L32.3096 27.0902L30.7869 25.7873L31.0147 25.5214L32.5173 25.6452L31.5893 24.8524L31.8875 24.5046L33.4118 25.8074L33.1789 26.0784Z" fill="white"/>
</g>
<defs>
<clipPath id="clip0_547_1060">
<rect width="46" height="34.5" fill="white" transform="translate(0 0.55957)"/>
</clipPath>
</defs>
</svg>
