<svg width="46" height="36" viewBox="0 0 46 36" fill="none" xmlns="http://www.w3.org/2000/svg">
<g clip-path="url(#clip0_547_987)">
<path d="M23.7467 34.8443C16.6347 34.9374 10.4686 30.6334 7.8403 24.4583C7.95525 24.4118 8.06518 24.3514 8.17054 24.2813C10.7285 30.341 16.7625 34.5593 23.7417 34.4674C31.2979 34.3651 37.611 29.2519 39.5601 22.3321C39.6772 22.3763 39.7988 22.4071 39.9228 22.4242C37.9275 29.4973 31.4629 34.7398 23.7467 34.8443ZM6.48821 18.035C6.36691 8.64722 13.9087 0.904015 23.3001 0.774311C32.5198 0.659508 40.1483 7.9227 40.5425 17.0667C40.4196 17.0359 40.2927 17.019 40.1633 17.0173C39.7444 8.08915 32.3144 1.03903 23.3049 1.15118C14.103 1.27822 6.74644 8.83182 6.86552 18.0303C6.87068 18.4198 6.89031 18.8058 6.92188 19.1885C6.79498 19.2105 6.67098 19.2469 6.55225 19.2968C6.51532 18.8771 6.49396 18.4562 6.48821 18.035ZM42.2418 19.7268C42.2418 18.5359 41.6452 17.5268 40.8168 17.1625C40.4717 7.82325 32.6985 0.387707 23.2966 0.504868C13.7566 0.636639 6.09555 8.50217 6.21861 18.0385C6.22496 18.5081 6.25078 18.9732 6.29416 19.4328C5.59089 19.8718 5.10498 20.7975 5.10498 21.8718C5.10498 23.3693 6.04685 24.5832 7.20874 24.5832C7.33609 24.5832 7.46018 24.5663 7.58148 24.5381C10.2451 30.8246 16.5158 35.2089 23.7504 35.1137C31.6115 35.0075 38.1941 29.6512 40.2002 22.4342C41.333 22.3915 42.2418 21.1972 42.2418 19.7268Z" fill="#BEC0C2"/>
<path d="M12.3568 14.5648C14.1512 8.42218 20.5884 4.89491 26.7352 6.69086C32.8797 8.48504 36.4051 14.9212 34.6107 21.0659C32.8154 27.2089 26.3779 30.734 20.232 28.9401C14.0885 27.1446 10.5614 20.7099 12.3568 14.5648Z" fill="white"/>
<path d="M29.6909 9.97489L30.0327 8.80002L30.3501 8.66175L29.1761 8.04584C29.0688 7.988 28.984 8.02415 28.9549 8.08066L28.9199 8.15503C28.8889 8.21538 28.9239 8.30953 29.0194 8.35926L29.9316 8.84045L29.6201 8.97797L29.3654 9.87558C29.3337 9.97961 29.3757 10.0687 29.4414 10.0907L29.5164 10.1136C29.5758 10.1313 29.6591 10.0925 29.6909 9.97489Z" fill="#BEC0C2"/>
<path d="M28.4915 10.3874L28.911 9.24219L29.2356 9.12783L28.1074 8.42751C28.0036 8.36273 27.9172 8.39239 27.884 8.44669L27.8441 8.51561C27.8098 8.57625 27.8371 8.67128 27.9293 8.72794L28.8067 9.27332L28.4878 9.38798L28.1697 10.2639C28.1325 10.3672 28.1679 10.4594 28.2305 10.4849L28.3051 10.513C28.364 10.5354 28.4496 10.5019 28.4915 10.3874Z" fill="#BEC0C2"/>
<path d="M27.2642 10.7115L27.76 9.60086L28.0938 9.50893L27.0144 8.72966C26.9161 8.65839 26.8273 8.67993 26.7908 8.73232L26.7448 8.80064C26.7078 8.85657 26.7286 8.95336 26.8164 9.01667L27.6542 9.62417L27.329 9.71581L26.952 10.5665C26.9078 10.6665 26.9377 10.7607 26.9977 10.7914L27.0703 10.8244C27.1282 10.8513 27.2161 10.824 27.2642 10.7115Z" fill="#BEC0C2"/>
<path d="M26.0175 10.9486L26.5884 9.87481L26.9265 9.80723L25.9029 8.953C25.8114 8.87273 25.7208 8.89044 25.68 8.94105L25.63 9.00362C25.5875 9.0563 25.6032 9.15575 25.6867 9.22422L26.4822 9.89045L26.1499 9.95936L25.716 10.7811C25.6653 10.8753 25.688 10.9728 25.7473 11.0051L25.8173 11.0467C25.8723 11.0759 25.9614 11.0572 26.0175 10.9486Z" fill="#BEC0C2"/>
<path d="M24.7577 11.0931L25.4015 10.0638L25.7434 10.0222L24.7781 9.0946C24.6919 9.00886 24.6021 9.0189 24.5579 9.06597L24.5038 9.12544C24.4582 9.1765 24.4675 9.27492 24.5444 9.34988L25.2932 10.072L24.9574 10.1166L24.47 10.9028C24.4121 10.9968 24.4284 11.0951 24.4827 11.1321L24.5516 11.1756C24.604 11.2108 24.694 11.1964 24.7577 11.0931Z" fill="#BEC0C2"/>
<path d="M23.4926 11.1446L24.2022 10.1652L24.5488 10.1496L23.6489 9.15489C23.5686 9.06384 23.4747 9.06606 23.43 9.10959L23.3707 9.16521C23.3234 9.21243 23.3245 9.31248 23.397 9.39143L24.0948 10.1676L23.7578 10.1868L23.2161 10.9367C23.1526 11.0236 23.1625 11.1223 23.2161 11.1644L23.2795 11.2138C23.3296 11.2511 23.4212 11.2451 23.4926 11.1446Z" fill="#BEC0C2"/>
<path d="M22.2245 11.1069L23.0005 10.1813L23.3464 10.1885L22.5169 9.13225C22.4423 9.03486 22.3496 9.03205 22.3014 9.07175L22.2398 9.12339C22.1879 9.16663 22.1826 9.26653 22.2499 9.35078L22.8919 10.1749L22.5532 10.1693L21.9648 10.8783C21.8947 10.9601 21.897 11.0597 21.9468 11.1059L22.0077 11.1593C22.0539 11.2013 22.146 11.2007 22.2245 11.1069Z" fill="#BEC0C2"/>
<path d="M20.962 10.9768L21.7994 10.11L22.1441 10.1417L21.3877 9.02867C21.3208 8.927 21.2298 8.91697 21.1792 8.95253L21.1129 8.9996C21.0572 9.03811 21.0449 9.13875 21.1078 9.22743L21.6915 10.0943L21.3558 10.0656L20.7181 10.7287C20.6425 10.8063 20.6388 10.9071 20.686 10.9573L20.7423 11.012C20.7874 11.0581 20.878 11.0653 20.962 10.9768Z" fill="#BEC0C2"/>
<path d="M19.7109 10.7552L20.6054 9.95259L20.9473 10.009L20.2694 8.84353C20.2089 8.73685 20.1183 8.72002 20.0648 8.75293L19.9951 8.79322C19.9387 8.83011 19.9212 8.92794 19.9759 9.0212L20.5001 9.92884L20.1654 9.87483L19.4844 10.4922C19.4049 10.5625 19.3941 10.6616 19.4378 10.7131L19.4903 10.7758C19.5313 10.8239 19.6227 10.8375 19.7109 10.7552Z" fill="#BEC0C2"/>
<path d="M18.4788 10.4441L19.426 9.70751L19.7619 9.78866L19.1644 8.57853C19.1135 8.46594 19.0229 8.4438 18.9672 8.47199L18.8963 8.50873C18.8374 8.5406 18.8127 8.63578 18.8609 8.73391L19.3227 9.6777L18.992 9.59817L18.2708 10.1644C18.1855 10.23 18.1692 10.3286 18.2085 10.3829L18.2567 10.4484C18.2942 10.5008 18.3856 10.5203 18.4788 10.4441Z" fill="#BEC0C2"/>
<path d="M17.2706 10.0458L18.2654 9.37886L18.596 9.48554L18.0823 8.23276C18.0368 8.11958 17.9495 8.08992 17.8916 8.11427L17.8183 8.14496C17.7578 8.17211 17.7245 8.26596 17.7678 8.36748L18.1633 9.3402L17.8416 9.23941L17.0817 9.75159C16.9921 9.81003 16.9667 9.90668 17.0044 9.96585L17.048 10.0327C17.0817 10.0866 17.1713 10.1133 17.2706 10.0458Z" fill="#BEC0C2"/>
<path d="M16.091 9.55901L17.1299 8.96508L17.4513 9.09626L17.0243 7.8116C16.9874 7.69341 16.9028 7.65681 16.8417 7.67747L16.7675 7.70359C16.7048 7.72691 16.6656 7.81825 16.7013 7.92065L17.0302 8.9214L16.7138 8.79568L15.9238 9.25223C15.8305 9.30403 15.8003 9.39891 15.8308 9.45793L15.8699 9.5295C15.9008 9.58778 15.9875 9.61936 16.091 9.55901ZM16.6005 25.9079L16.4243 27.0305L16.1398 27.2019L17.3278 27.6116C17.4358 27.6506 17.5121 27.6068 17.5317 27.55L17.5571 27.4785C17.5778 27.4191 17.5347 27.3388 17.4376 27.3038L16.514 26.9817L16.7905 26.8136L16.9231 25.9568C16.9387 25.8561 16.8878 25.7792 16.8245 25.7691L16.7497 25.757C16.6902 25.7485 16.6157 25.7959 16.6005 25.9079Z" fill="#BEC0C2"/>
<path d="M17.6868 25.3708L17.4302 26.4797L17.1362 26.6285L18.2918 27.1216C18.3974 27.1684 18.4762 27.1299 18.5007 27.0748L18.5299 27.0045C18.5559 26.9463 18.5171 26.8621 18.4232 26.8218L17.5242 26.4355L17.8137 26.288L18.0033 25.4418C18.0278 25.3435 17.9825 25.2632 17.9179 25.2472L17.8453 25.2314C17.7877 25.2181 17.7107 25.26 17.6868 25.3708Z" fill="#BEC0C2"/>
<path d="M18.8066 24.9114L18.4737 25.9984L18.1707 26.125L19.2892 26.6996C19.3913 26.7534 19.4718 26.7202 19.5006 26.6678L19.5343 26.6014C19.5638 26.5432 19.532 26.4568 19.4411 26.4108L18.5716 25.9627L18.8694 25.8359L19.1204 25.005C19.1502 24.907 19.1106 24.8241 19.0497 24.8049L18.9771 24.7838C18.9192 24.7662 18.8387 24.8028 18.8066 24.9114Z" fill="#BEC0C2"/>
<path d="M19.9577 24.5319L19.5512 25.5917L19.2378 25.6988L20.3139 26.3494C20.4113 26.4089 20.4944 26.3832 20.5258 26.333L20.566 26.2665C20.5984 26.2122 20.5723 26.1242 20.4853 26.071L19.6502 25.5632L19.9548 25.4571L20.2635 24.6461C20.3002 24.5506 20.2663 24.4654 20.2076 24.4407L20.1357 24.4153C20.0798 24.3941 19.997 24.4248 19.9577 24.5319Z" fill="#BEC0C2"/>
<path d="M21.1324 24.2327L20.6521 25.2625L20.3335 25.3471L21.3596 26.0706C21.4523 26.1395 21.5377 26.1178 21.5731 26.0681L21.617 26.0071C21.6542 25.9558 21.6336 25.8646 21.55 25.8066L20.7515 25.2416L21.0644 25.1569L21.4296 24.3676C21.4719 24.2779 21.4454 24.1886 21.3871 24.1625L21.3176 24.129C21.2636 24.1049 21.1793 24.1287 21.1324 24.2327Z" fill="#BEC0C2"/>
<path d="M22.3251 24.0172L21.7725 25.011L21.4492 25.0721L22.4234 25.8674C22.5114 25.9412 22.5966 25.9271 22.6356 25.8792L22.6836 25.8211C22.7243 25.7712 22.7098 25.6811 22.6315 25.6157L21.8752 24.9957L22.1928 24.9341L22.6111 24.1748C22.6604 24.0846 22.6391 23.9946 22.5851 23.9638L22.5173 23.9282C22.4647 23.8987 22.3799 23.9174 22.3251 24.0172Z" fill="#BEC0C2"/>
<path d="M23.5293 23.8866L22.9101 24.8391L22.5803 24.8766L23.4974 25.738C23.5793 25.8176 23.6684 25.8091 23.7092 25.7662L23.7618 25.7112C23.8043 25.6645 23.7975 25.571 23.7236 25.5031L23.0127 24.8302L23.332 24.7905L23.8045 24.0626C23.8598 23.9778 23.8448 23.8861 23.7913 23.8516L23.728 23.8094C23.6773 23.778 23.5911 23.7904 23.5293 23.8866Z" fill="#BEC0C2"/>
<path d="M24.7404 23.8403L24.0554 24.747L23.7241 24.7635L24.5786 25.6856C24.6555 25.7714 24.7433 25.7684 24.7873 25.7283L24.8432 25.6762C24.8898 25.6334 24.8885 25.5406 24.8198 25.4667L24.1588 24.7463L24.4821 24.7289L25.0021 24.0355C25.0635 23.9558 25.055 23.863 25.0057 23.8233L24.944 23.7784C24.8972 23.7418 24.8099 23.7485 24.7404 23.8403Z" fill="#BEC0C2"/>
<path d="M25.9521 23.8794L25.2051 24.7354L24.8738 24.7288L25.6613 25.71C25.7312 25.799 25.819 25.8029 25.8648 25.7666L25.9259 25.7183C25.9763 25.6796 25.9818 25.5854 25.9169 25.5073L25.3083 24.7423L25.6306 24.7482L26.1996 24.0932C26.2667 24.0169 26.2644 23.9228 26.2167 23.8797L26.1595 23.8325C26.1139 23.7931 26.0267 23.7922 25.9521 23.8794Z" fill="#BEC0C2"/>
<path d="M27.1576 24.0024L26.3531 24.8032L26.0242 24.7734L26.7384 25.8079C26.8027 25.9025 26.8896 25.9121 26.9395 25.8779L27.0034 25.8363C27.0553 25.7989 27.0659 25.7079 27.0082 25.6247L26.4542 24.8183L26.7764 24.8469L27.3897 24.2322C27.461 24.1615 27.4655 24.0694 27.4214 24.0242L27.367 23.9702C27.3255 23.9273 27.2377 23.9211 27.1576 24.0024Z" fill="#BEC0C2"/>
<path d="M28.3514 24.2118L27.4916 24.9547L27.1665 24.9001L27.8078 25.9822C27.8633 26.0824 27.9511 26.0973 28.0027 26.0672L28.0678 26.029C28.1224 25.9959 28.1404 25.9062 28.0886 25.8186L27.5925 24.9757L27.9123 25.0272L28.5665 24.457C28.644 24.3914 28.6539 24.299 28.6129 24.2504L28.5633 24.193C28.5248 24.1472 28.4361 24.1353 28.3514 24.2118Z" fill="#BEC0C2"/>
<path d="M29.5274 24.5025L28.6172 25.1838L28.2961 25.1059L28.8609 26.2315C28.9106 26.3336 28.9965 26.3562 29.0494 26.3296L29.1176 26.296C29.1737 26.2666 29.1996 26.1782 29.1532 26.0875L28.7176 25.2126L29.0304 25.2844L29.7244 24.7616C29.807 24.7023 29.8247 24.6111 29.7859 24.5593L29.7403 24.4996C29.7052 24.4516 29.618 24.4332 29.5274 24.5025Z" fill="#BEC0C2"/>
<path d="M30.6803 24.8762L29.7254 25.4924L29.4106 25.3918L29.8943 26.5531C29.9368 26.6602 30.0192 26.6877 30.0764 26.665L30.1451 26.6362C30.2041 26.6104 30.2361 26.5242 30.1958 26.4312L29.8232 25.5267L30.1324 25.622L30.8588 25.1488C30.9441 25.0949 30.968 25.0049 30.9348 24.9522L30.8935 24.8886C30.8607 24.8368 30.7754 24.8137 30.6803 24.8762Z" fill="#BEC0C2"/>
<path d="M31.805 25.3302L30.8089 25.8753L30.5017 25.7548L30.9022 26.9469C30.9375 27.0561 31.0174 27.0905 31.0742 27.0719L31.1473 27.0471C31.2073 27.0273 31.2444 26.9422 31.2119 26.8468L30.9038 25.9188L31.2039 26.0357L31.9642 25.6132C32.0529 25.5656 32.0831 25.4784 32.0524 25.4227L32.0164 25.3559C31.9865 25.3037 31.9035 25.2733 31.805 25.3302Z" fill="#BEC0C2"/>
<path d="M15.5447 10.0683C14.356 10.279 13.3701 11.2737 13.3002 12.333C13.2975 12.3737 13.2962 12.4144 13.2963 12.4551C13.2963 12.9284 13.4823 13.3537 13.8275 13.6636C14.2584 14.0495 14.8894 14.2034 15.558 14.0847C16.7461 13.8755 17.7326 12.8809 17.8033 11.8203C17.8372 11.2973 17.6507 10.8251 17.276 10.4894C16.8447 10.103 16.214 9.94965 15.5447 10.0683ZM4.06646 13.0764L3.53864 15.125C3.53864 15.125 3.94236 15.0167 4.22582 14.9403C3.87522 16.5029 2.07086 24.5585 2.05905 24.6127C1.96565 24.918 1.56561 25.1424 1.21929 25.2519L0.925055 25.3449L0 28.4067L1.14034 27.9331C4.8739 26.3832 10.4571 24.8873 10.5134 24.8725L10.8082 24.7937L12.1024 21.2194L10.7065 21.5484C10.517 21.5926 10.3987 21.6734 10.3218 21.7652C10.147 21.9795 9.58224 22.5662 9.05118 22.7403L6.59298 23.4173L6.58117 23.4201C6.59298 23.3674 9.38274 11.2021 9.38274 11.2021L4.06646 13.0764Z" fill="#A1A1A4"/>
<path d="M12.586 14.9747L12.0778 16.9631C12.0778 16.9631 12.3841 16.8832 12.6627 16.8098C12.3348 18.063 11.6168 20.8116 11.6168 20.8116C11.5355 21.1436 11.4961 21.4656 11.4961 21.7692C11.4961 22.4389 11.6891 23.02 12.0623 23.4334C12.4135 23.8225 13.0914 24.2514 14.3272 24.0814C15.2857 23.9506 16.176 23.4868 16.9744 22.7018L17.5131 22.1722L15.8561 21.1775L15.5333 21.4852C15.5099 21.5081 15.4858 21.5274 15.4631 21.5466C15.4722 21.475 15.4867 21.3906 15.5099 21.2931C15.5083 21.2978 17.2205 14.2849 17.2205 14.2849L17.4774 13.2319L12.586 14.9747Z" fill="#A1A1A4"/>
<path d="M23.0374 13.6944C23.1064 13.6866 23.1806 13.6857 23.2503 13.6895L21.7517 19.7473C21.6943 19.9691 21.3555 20.1609 20.9649 20.1885C20.9482 20.1897 20.9312 20.1854 20.9135 20.1811C20.9919 19.8702 22.4635 13.9929 22.4712 13.9616C22.5264 13.8769 22.8064 13.7204 23.0374 13.6944ZM23.4008 11.4214C20.5762 11.7693 18.4472 13.4552 17.8469 15.8202L17.0058 19.2233L17.0091 19.209C16.711 20.2956 16.8267 21.1537 17.3538 21.7596C17.9626 22.4586 19.0259 22.7142 20.515 22.5198C23.3534 22.1488 25.4548 20.6035 26.0008 18.486C26.0011 18.4836 26.9518 14.7205 26.9518 14.7205C27.2188 13.6243 27.0842 12.7695 26.5549 12.1737C25.9461 11.4915 24.8854 11.2377 23.4008 11.4214ZM35.0425 8.99817C34.4569 9.09275 33.7751 9.33165 33.1588 9.63666C33.212 9.42491 33.2696 9.19781 33.2696 9.19781L28.3321 11.0339L27.8592 13.0091L28.4457 12.8321L26.4745 20.9055L30.6438 19.8851L32.3313 12.9023C32.4267 12.4894 32.6326 12.2308 32.9892 12.0748L31.9892 16.2835C31.9908 16.2779 31.9342 16.4986 31.9342 16.4986C31.7118 17.3509 31.408 18.5189 32.0487 19.2399C32.4025 19.6384 32.9516 19.7903 33.6804 19.6905C34.9696 19.5134 36.1038 18.8414 37.0526 17.6917L37.4746 17.181C37.4746 17.181 36.0548 16.2805 35.9207 16.1961C36.2367 14.8772 37.0163 11.6207 37.0163 11.6207C37.0954 11.2977 37.1358 11.0008 37.1358 10.7301C37.1358 10.2126 36.9893 9.79233 36.6986 9.47626C36.3182 9.06368 35.715 8.89015 35.0425 8.99817ZM3.20604 30.6244L2.94678 29.8788L3.82579 29.4798C8.5182 27.4766 14.9896 25.2246 21.5808 23.3C28.3421 21.3262 34.3487 19.9658 38.0613 19.5682L38.7212 19.4971L38.6839 21.3833L38.2195 21.4735C35.0169 22.0913 23.6887 24.6996 12.3913 32.3243L12.0763 32.5366L11.754 32.3348C9.30336 30.8015 5.88071 30.591 4.05879 30.6017C3.7889 30.5975 3.20604 30.6244 3.20604 30.6244Z" fill="#A1A1A4"/>
<path d="M41.2262 7.90226C38.8371 8.40367 37.4958 10.1162 37.5474 12.6032C37.578 14.0915 38.5024 15.3191 39.3968 16.5062C40.1641 17.5242 40.8888 18.4863 40.9128 19.4532C40.9569 21.2501 40.1647 21.503 39.9019 21.5625C39.439 21.6664 39.0967 21.3861 39.0002 21.2685C39.8042 20.8934 40.6119 20.1794 40.6119 19.1549C40.6119 19.088 40.6086 19.0202 40.6018 18.9508C40.5348 18.2899 40.215 17.9281 39.9588 17.7399C39.3887 17.3231 38.713 17.4227 38.5197 17.463C37.113 17.756 36.2188 19.1453 36.4837 20.6261C36.9125 23.0236 39.1535 23.7629 41.0546 23.4338C42.4305 23.1957 43.5801 22.5038 44.2911 21.4846C44.9943 20.4748 45.2322 19.2123 44.9781 17.8339C44.7154 16.4063 43.952 15.2808 43.2139 14.1914C42.448 13.0617 41.7235 11.9938 41.6704 10.7119C41.6531 10.3031 41.7716 9.99732 41.8963 9.87602C41.9449 9.82895 41.9761 9.82629 42.0058 9.82821C42.0505 9.83131 42.155 9.83883 42.2665 10.0081C42.515 10.3864 42.5491 11.1695 42.3434 11.7542L42.275 11.9491L42.6289 12.9497L45.9998 11.3735L45.9526 10.957C45.8422 9.95482 45.342 9.08658 44.5462 8.50917C43.6459 7.85784 42.4672 7.64241 41.2262 7.90226Z" fill="#A1A1A4"/>
<path d="M15.6177 10.482C14.628 10.657 13.776 11.5003 13.7195 12.3614C13.7172 12.392 13.7161 12.4227 13.7164 12.4534C13.7164 12.8066 13.8533 13.1224 14.1077 13.3505C14.4419 13.6502 14.9436 13.7672 15.4847 13.6712C16.4747 13.4968 17.3267 12.6539 17.3841 11.7921C17.4098 11.4017 17.2717 11.0501 16.9953 10.8026C16.6614 10.5025 16.1594 10.3859 15.6177 10.482ZM4.41744 13.3982L4.12512 14.532C4.12512 14.532 4.59967 14.4047 4.78737 14.3536C4.67448 14.8587 2.46772 24.7095 2.46389 24.7256C2.297 25.2962 1.62619 25.5643 1.34568 25.6526L1.2626 25.679L0.658936 27.6781L0.979584 27.5452C4.73926 25.9847 10.3483 24.4817 10.4044 24.4669L10.4878 24.4441L11.4426 21.8067L10.9428 21.9239C10.728 21.9745 10.6484 21.9938 10.6234 22.0594C10.4932 22.2116 9.86121 22.9204 9.1758 23.1417L6.6906 23.8259C6.4427 23.8857 6.2609 23.8766 6.18491 23.7997C6.11659 23.7297 6.10921 23.5727 6.16425 23.3561C6.16558 23.352 8.80247 11.8526 8.80247 11.8526L4.41744 13.3982ZM12.9371 15.2946L12.661 16.3759C12.661 16.3759 13.0922 16.2632 13.2505 16.2216C13.1233 16.7069 12.0255 20.9084 12.0255 20.9084C11.9514 21.2104 11.9155 21.5006 11.9155 21.7719C11.9155 22.3357 12.0717 22.8166 12.3746 23.1523C12.6573 23.4656 13.2169 23.8096 14.27 23.6654C15.1363 23.5468 15.9476 23.1218 16.6801 22.4021L16.8319 22.2535L15.914 21.7024L15.8241 21.7892C15.628 21.9755 15.4322 22.0831 15.241 22.1088C15.1521 22.1215 15.1232 22.0898 15.1104 22.0762C15.0307 21.989 14.981 21.7073 15.1011 21.197L16.8843 13.889L12.9371 15.2946ZM22.0677 13.8426C22.1394 13.5533 22.6612 13.3148 22.9896 13.277C23.2661 13.2459 23.6457 13.2882 23.7376 13.393C23.7468 13.4029 23.7518 13.4113 23.746 13.4361L22.1593 19.8485C22.0544 20.2538 21.5756 20.5663 20.9943 20.6078C20.8187 20.6201 20.6272 20.5489 20.5258 20.4349C20.4827 20.3857 20.4622 20.3354 20.4622 20.2817C20.4622 20.268 20.4638 20.2537 20.4668 20.2388C20.4694 20.2268 22.0677 13.8426 22.0677 13.8426ZM23.4528 11.8382C20.8031 12.165 18.8109 13.73 18.254 15.9241L17.4138 19.3243C17.1555 20.2633 17.2419 20.9904 17.6705 21.4836C18.1742 22.0619 19.1386 22.276 20.4609 22.1036C23.1254 21.7549 25.0923 20.3298 25.5938 18.3813L26.5452 14.6176C26.7759 13.667 26.674 12.9394 26.2408 12.4539C25.7301 11.8798 24.7913 11.6729 23.4528 11.8382ZM35.1102 9.41288C34.2839 9.54657 33.2194 10.0036 32.5044 10.506L32.6657 9.87135L28.6885 11.3498L28.4378 12.3961C28.4378 12.3961 28.8708 12.266 29.0282 12.2181L27.0466 20.3332L30.2961 19.5386L31.9235 12.8032C32.0607 12.2069 32.4067 11.8227 32.98 11.6269C33.2024 11.5516 33.3737 11.5833 33.445 11.6492C33.4611 11.6638 33.5102 11.7092 33.4791 11.8301L32.3979 16.3807C32.3989 16.3793 32.3405 16.6045 32.3405 16.6045C32.1426 17.3659 31.8717 18.4081 32.3622 18.961C32.6178 19.2491 33.0417 19.3538 33.6235 19.2742C34.8047 19.1124 35.8498 18.4902 36.7289 17.4245L36.8476 17.2811L35.9067 16.6843L35.817 16.8117C35.6048 17.1103 35.3661 17.2442 35.2688 17.2309C35.2632 17.2139 35.2607 17.1961 35.2613 17.1782C35.2613 17.1508 35.2651 17.116 35.2774 17.0773L35.2793 17.0717L36.6073 11.5233C36.6795 11.232 36.7149 10.9674 36.7149 10.7316C36.7149 10.3217 36.607 9.99678 36.39 9.76127C36.1071 9.45479 35.6405 9.32745 35.1102 9.41288ZM38.1058 19.9861C34.4171 20.381 28.4374 21.7362 21.6985 23.7036C15.1232 25.6232 8.66864 27.8698 3.99099 29.8662L3.81554 29.9422L3.88371 30.1778L4.05621 30.1818C5.92402 30.1701 9.43609 30.3893 11.9771 31.9795L12.0681 32.0366L12.1561 31.9766C23.5197 24.3068 34.9169 21.6826 38.1396 21.0613L38.2706 21.0359L38.2916 19.9661L38.1058 19.9861Z" fill="white"/>
<path d="M41.3125 8.31371C39.108 8.77587 37.92 10.296 37.9672 12.5946C37.9949 13.9474 38.8783 15.1196 39.7324 16.253C40.5416 17.3265 41.3056 18.3413 41.3321 19.4434C41.3669 20.8569 40.9212 21.6936 40.0069 21.93C39.6579 22.0195 39.2124 21.93 38.8713 21.6995C38.6247 21.5333 38.4621 21.3074 38.392 21.0552C39.1631 20.8172 40.1916 20.1495 40.1916 19.1461C40.1916 19.0955 40.1891 19.0452 40.184 18.9935C40.1426 18.5864 39.983 18.2786 39.7109 18.0788C39.3691 17.8291 38.916 17.8092 38.6058 17.8741C37.4035 18.1247 36.6688 19.2756 36.8972 20.5512C37.2757 22.667 39.2803 23.3138 40.9827 23.02C42.2476 22.8014 43.2997 22.1709 43.9457 21.2441C44.5845 20.3282 44.7988 19.176 44.5649 17.9097C44.318 16.5692 43.5801 15.4806 42.8659 14.4265C42.0652 13.2461 41.3081 12.1312 41.2502 10.7297C41.23 10.2488 41.3655 9.80628 41.6028 9.57521C41.7274 9.45406 41.8731 9.39857 42.035 9.40949C42.2716 9.42632 42.4675 9.54953 42.6172 9.77721C42.9389 10.2678 42.9919 11.1773 42.7393 11.8937L42.7204 11.9483L42.8703 12.3728L45.5485 11.1202L45.5354 11.003C45.4377 10.1201 44.9985 9.35593 44.299 8.84965C43.4965 8.26842 42.4362 8.07791 41.3125 8.31371Z" fill="white"/>
<path d="M17.2199 11.7821C17.1667 12.5732 16.3774 13.3476 15.4564 13.5092C14.5346 13.6729 13.8304 13.1631 13.8831 12.3722C13.9353 11.5798 14.7252 10.8065 15.6467 10.6441C16.5679 10.4805 17.2719 10.9903 17.2199 11.7821ZM10.777 22.1323L11.1848 22.0361L10.3622 24.3085C10.3622 24.3085 4.73054 25.8103 0.91626 27.3931L1.39524 25.8103C1.91613 25.6457 2.46638 25.3063 2.6225 24.77L5.00751 14.1242L4.35485 14.3007L4.55406 13.5239L8.57551 12.1063L6.00531 23.3157C5.8548 23.9045 6.11317 24.1333 6.73469 23.9846L9.22669 23.2981C10.0489 23.0322 10.777 22.1323 10.777 22.1323ZM15.937 21.9078C15.726 22.1097 15.5003 22.2401 15.2623 22.2721C14.8462 22.3309 14.7915 21.7973 14.9409 21.1595L16.6526 14.1462L13.0749 15.4209L12.89 16.1468L13.481 15.9913L12.1845 20.95C11.8367 22.3769 12.3073 23.7686 14.2473 23.5025C15.1317 23.3811 15.9038 22.9338 16.5648 22.285L15.937 21.9078ZM26.3857 14.5776C26.9064 12.4337 25.6166 11.7368 23.4726 12.0012C21.0005 12.3068 18.9786 13.7393 18.4133 15.9643L17.5736 19.364C16.988 21.4938 18.2978 22.2199 20.4393 21.9407C22.8949 21.6198 24.9216 20.3331 25.4347 18.3407L26.3857 14.5776ZM21.0061 20.7725C20.6489 20.7971 20.2354 20.5498 20.3053 20.2054L21.9083 13.8031C22.0015 13.4245 22.6014 13.1557 22.9712 13.114C23.2939 13.0772 23.9895 13.1203 23.9057 13.4737L22.3191 19.8883C22.186 20.4029 21.6112 20.7293 21.0061 20.7725ZM28.8284 11.474L28.6645 12.1557L29.2559 11.9778L27.2705 20.1095L30.1598 19.4028L31.7635 12.7649C31.9298 12.0477 32.3666 11.6624 32.9269 11.4708C33.3623 11.3228 33.7333 11.4981 33.6386 11.8707L32.5577 16.4187C32.3117 17.408 31.6534 19.3785 33.6012 19.1116C35.055 18.9125 36.0215 18.0235 36.602 17.3197L35.9508 16.9072C35.713 17.2423 35.4021 17.4462 35.2077 17.3861C35.0925 17.3495 35.0737 17.1784 35.1208 17.0283L36.4469 11.4848C36.8624 9.80231 35.9371 9.4458 35.136 9.5758C34.1423 9.73575 32.8385 10.3661 32.2257 10.939L32.4299 10.1345L28.8284 11.474Z" fill="#0066B3"/>
<path d="M41.0863 10.7356C41.0527 9.92422 41.4276 9.20279 42.0468 9.24558C43.032 9.3142 43.2699 10.8832 42.8953 11.9483L42.9648 12.1469L45.3723 11.0219C45.1702 9.20353 43.4731 8.02896 41.3457 8.47444C39.0547 8.95445 38.0903 10.5711 38.1314 12.5908C38.1844 15.1381 41.439 17.0806 41.497 19.4387C41.5404 21.199 40.8375 21.8848 40.0481 22.0893C39.3399 22.272 38.3087 21.8094 38.1944 20.9393C39.0156 20.7404 40.1253 20.0393 40.02 19.0099C39.9169 17.991 39.029 17.9534 38.6396 18.0345C37.6511 18.2404 36.9383 19.1623 37.0284 20.2844C28.8051 21.4265 13.2381 26.098 4.05542 30.0177C6.63344 30.0018 9.78827 30.4154 12.0641 31.8401C21.1889 25.6818 30.9298 22.4141 37.212 21.0828C37.7805 22.5984 39.4007 23.1262 40.9551 22.8581C43.2885 22.455 44.8957 20.6135 44.4033 17.9403C43.8922 15.1614 41.2007 13.4704 41.0863 10.7356ZM15.5896 7.92419C15.0047 8.37631 14.6291 8.11646 14.3521 7.70624L14.8245 7.34118C14.9914 7.55691 15.141 7.73147 15.4009 7.53079C15.5602 7.40743 15.5587 7.24364 15.4403 7.09048C15.126 6.68365 14.1555 7.39312 13.6359 6.72054C13.3626 6.36684 13.3141 5.95471 13.8897 5.50996C14.3499 5.15479 14.7377 5.18489 15.0717 5.68142L14.6114 6.0369C14.4808 5.86779 14.32 5.71743 14.1289 5.86499C13.9757 5.98318 13.9503 6.13797 14.0709 6.29439C14.4023 6.72305 15.3244 5.95101 15.8731 6.66122C16.325 7.24659 15.9495 7.64648 15.5896 7.92419ZM16.6919 4.46052L16.6848 4.46376L16.989 5.69013L17.4989 5.43691L16.6919 4.46052ZM16.6867 7.03647L16.1249 4.12806L16.8298 3.77834L18.7936 5.99012L18.2305 6.26974L17.8077 5.77365L17.0782 6.13576L17.2147 6.7744L16.6867 7.03647ZM19.2346 5.80493L18.6076 3.01974L19.5452 2.80932L20.4073 4.60497L20.4148 4.6032L20.4518 2.6051L21.3583 2.40117L21.9851 5.18636L21.4181 5.31385L20.9345 3.16508L20.9267 3.16685L20.8739 5.43618L20.3186 5.56101L19.3258 3.5272L19.3181 3.52868L19.8017 5.67729L19.2346 5.80493ZM23.4554 5.22694C22.7158 5.22237 22.5804 4.78647 22.6148 4.2923L23.2119 4.29643C23.2103 4.56912 23.2209 4.79828 23.5488 4.80079C23.7505 4.80182 23.85 4.67212 23.8515 4.47807C23.8544 3.96442 22.6528 3.92487 22.6581 3.07493C22.6608 2.62811 22.8767 2.27368 23.604 2.27825C24.1852 2.28179 24.4723 2.54489 24.4292 3.14147L23.8481 3.13749C23.8494 2.92427 23.815 2.70632 23.5739 2.70514C23.3799 2.70396 23.2648 2.80976 23.2636 3.00749C23.26 3.54918 24.4625 3.50934 24.4569 4.4068C24.4523 5.14637 23.9101 5.22989 23.4554 5.22694ZM27.544 2.8406L27.1359 4.82336C27.0495 5.24155 26.7224 5.6345 26.01 5.48782C25.3669 5.35531 25.1258 4.95838 25.2343 4.43189L25.6424 2.44913L26.227 2.56953L25.827 4.51334C25.7557 4.85818 25.8751 5.02405 26.0882 5.06787C26.3438 5.1204 26.495 4.97402 26.5589 4.66414L26.9591 2.72019L27.544 2.8406ZM27.6346 5.84005L28.7913 3.23031L29.5287 3.557L29.4219 5.67168L29.4291 5.67508L30.2302 3.86791L30.7397 4.09383L29.5831 6.70357L28.8636 6.38469L28.9976 4.16067L28.9902 4.15742L28.1444 6.06596L27.6346 5.84005ZM32.4045 6.23404C32.5634 6.02229 32.6658 5.80803 32.4099 5.62181C32.1094 5.40327 31.8139 5.80936 31.488 6.25676C30.9622 6.97906 30.9394 7.15835 31.2147 7.35844C31.2945 7.41658 31.3947 7.46011 31.4868 7.48829L31.8591 6.9767L31.5969 6.78591L31.8551 6.43088L32.6 6.97316L31.7487 8.14331C31.5988 8.07322 31.2324 7.88479 31.0404 7.74534C30.2284 7.15422 30.3798 6.75094 31.0177 5.87547C31.4412 5.29334 31.9003 4.72287 32.6899 5.29762C33.1631 5.64202 33.264 6.12174 32.8838 6.58331L32.4045 6.23404ZM18.9827 31.0943L19.2668 31.1846C19.3597 31.2143 19.5086 31.1936 19.5712 30.9967C19.6187 30.8476 19.5522 30.7055 19.4089 30.6601L19.1473 30.577L18.9827 31.0943ZM18.7002 31.9831L18.9364 32.0582C19.0264 32.0868 19.2299 32.1485 19.32 31.8645C19.3773 31.6844 19.3447 31.5531 19.131 31.4852L18.8834 31.4064L18.7002 31.9831ZM18.176 32.1602L18.8219 30.1297L19.5756 30.3694C19.8989 30.4721 20.1366 30.65 19.999 31.0831C19.9248 31.3167 19.7558 31.4485 19.5108 31.4203L19.5091 31.4259C19.7967 31.5639 19.8136 31.7828 19.7251 32.0614C19.5615 32.576 19.1071 32.4562 18.9271 32.3989L18.176 32.1602ZM21.007 31.1436L21.0012 31.1424L20.636 32.012L21.0542 32.088L21.007 31.1436ZM19.8541 32.6827L20.8162 30.6921L21.3939 30.7972L21.5817 32.997L21.12 32.9129L21.0886 32.4272L20.4903 32.3183L20.2869 32.7613L19.8541 32.6827ZM22.4854 33.0896C21.9345 33.0579 21.8501 32.7278 21.8948 32.3608L22.3397 32.3865C22.3281 32.5899 22.327 32.7612 22.5715 32.7755C22.7219 32.784 22.8011 32.6909 22.8095 32.5466C22.8315 32.1637 21.9373 32.0883 21.9739 31.455C21.9928 31.1219 22.1674 30.8661 22.7095 30.8973C23.1426 30.9223 23.3465 31.1292 23.2913 31.5723L22.8582 31.5473C22.8674 31.3883 22.8503 31.2249 22.6705 31.2145C22.5262 31.206 22.4361 31.2807 22.4277 31.428C22.4043 31.8315 23.3021 31.8479 23.2634 32.5168C23.2317 33.0677 22.8243 33.1091 22.4854 33.0896ZM23.6682 33.0908L23.5555 30.9632L24.7166 30.9016L24.7342 31.2289L24.0179 31.2667L24.0457 31.7914L24.7057 31.7564L24.7231 32.0834L24.0629 32.1184L24.0958 32.7402L24.8355 32.7011L24.8528 33.0283L23.6682 33.0908ZM25.6489 32.59L25.8934 32.5488C25.9865 32.5332 26.1956 32.495 26.146 32.201C26.1146 32.0148 26.0258 31.9131 25.8046 31.9503L25.5484 31.9936L25.6489 32.59ZM25.494 31.6704L25.7879 31.621C25.8841 31.6047 26.0072 31.518 25.9728 31.3145C25.9468 31.1603 25.823 31.0644 25.6746 31.0895L25.4038 31.1349L25.494 31.6704ZM25.2638 32.9869L24.9099 30.8858L25.6898 30.7545C26.0246 30.6983 26.3172 30.7477 26.3927 31.196C26.4333 31.4374 26.3435 31.6322 26.1127 31.7188L26.1137 31.7247C26.4324 31.716 26.5478 31.903 26.5962 32.1913C26.6861 32.7238 26.2272 32.8251 26.0408 32.8562L25.2638 32.9869ZM27.3179 30.7899L27.3123 30.7915L27.3838 31.7318L27.7906 31.609L27.3179 30.7899ZM26.9935 32.6852L26.9423 30.4749L27.5046 30.305L28.6745 32.1774L28.2253 32.3132L27.9756 31.8954L27.3936 32.0712L27.4144 32.5581L26.9935 32.6852ZM28.9778 32.0429L28.1393 30.0841L28.5489 29.9088L29.2482 31.542L29.8616 31.2795L30.0007 31.605L28.9778 32.0429ZM30.2805 31.4597L29.26 29.5894L29.6512 29.376L30.5021 30.9356L31.0877 30.6162L31.2574 30.9269L30.2805 31.4597ZM31.5041 29.4988C31.1598 29.0521 30.8322 28.6267 31.4142 28.1781C31.7744 27.9008 32.0723 27.9879 32.3375 28.3611L31.9915 28.6276C31.8185 28.4031 31.7139 28.3497 31.6088 28.4307C31.4101 28.5838 31.5286 28.7906 31.8616 29.223C32.1949 29.6556 32.3648 29.8228 32.5636 29.6698C32.7272 29.5436 32.5579 29.3387 32.46 29.2019L32.8084 28.9333C33.156 29.3844 33.0877 29.6682 32.7582 29.9223C32.1759 30.3708 31.8446 29.9406 31.5041 29.4988ZM33.5422 29.2296L32.0722 27.6869L32.3949 27.3797L33.6205 28.6659L34.1035 28.2057L34.3477 28.4623L33.5422 29.2296ZM33.8631 25.7611L35.0194 26.7336C35.2633 26.939 35.405 27.2933 35.0553 27.7089C34.7399 28.0837 34.3937 28.1009 34.0865 27.8426L32.9304 26.8698L33.2172 26.529L34.3508 27.4827C34.5519 27.6516 34.703 27.6324 34.8076 27.508C34.9331 27.3593 34.8907 27.2076 34.71 27.0558L33.5763 26.1019L33.8631 25.7611Z" fill="#0066B3"/>
<path d="M35.7487 26.1887L35.8832 25.9805C35.9344 25.9013 36.0474 25.7211 35.7968 25.5592C35.6381 25.4568 35.5031 25.4539 35.3813 25.6424L35.2404 25.8604L35.7487 26.1887ZM34.9653 25.6827L35.1271 25.4325C35.1799 25.3504 35.1989 25.2014 35.0254 25.0892C34.8939 25.0044 34.7396 25.0309 34.658 25.1576L34.5091 25.388L34.9653 25.6827ZM35.7822 26.7407L33.9922 25.5844L34.4211 24.9203C34.6054 24.6353 34.8392 24.4524 35.2211 24.6992C35.4268 24.8322 35.51 25.0298 35.4184 25.2586L35.4232 25.2619C35.6317 25.0206 35.8476 25.0618 36.0931 25.2201C36.5467 25.5132 36.3121 25.9203 36.2096 26.0789L35.7822 26.7407Z" fill="#0066B3"/>
</g>
<defs>
<clipPath id="clip0_547_987">
<rect width="46" height="34.6118" fill="white" transform="translate(0 0.503418)"/>
</clipPath>
</defs>
</svg>
