<svg width="19" height="14" viewBox="0 0 19 14" fill="none" xmlns="http://www.w3.org/2000/svg">
<path d="M4.52887 0V2.94047L0.5 2.93725L1.57744 4.37449L2.44169 4.3301L2.44085 7.41756L4.52887 6.91515V9.88936L9.49741 13.4329L14.469 9.88781V6.92083L16.6322 7.50915C17.2883 7.52535 17.4572 7.15871 17.5005 6.91361C17.5214 6.79228 17.5344 6.66219 17.539 6.55665C17.5436 6.48182 17.5446 6.40748 17.5446 6.33434C17.5447 6.23412 17.5445 6.10221 17.5442 5.97071C17.5437 5.70773 17.5428 5.44656 17.5428 5.44642V5.44628C17.5425 5.29782 17.528 5.12789 17.437 4.96042C17.3736 4.84401 17.2764 4.74611 17.1614 4.66938L18.5 2.94265L14.4691 2.94244V0H4.52887Z" fill="white"/>
<path d="M9.49813 11.974L4.89185 9.35645V9.70289L9.49813 12.9857L14.1043 9.70289V9.35645L9.49813 11.974Z" fill="#06141F"/>
<path d="M8.69127 9.9168H10.3059L10.6937 10.7278L14.1043 8.96983V6.97786C11.0693 6.3139 7.9268 6.31402 4.89185 6.97822V8.9699L8.30239 10.7278L8.69127 9.9168Z" fill="#06141F"/>
<path d="M8.28242 3.31055H6.00952C6.04505 3.3264 6.33421 3.42633 6.33421 3.7173L6.33239 5.69328C6.32797 5.97541 6.53584 6.11104 6.93734 6.06987C7.58821 6.00525 8.24136 5.96601 8.89529 5.95227V4.52646C8.46625 4.5306 8.09747 4.53978 7.66878 4.55451V5.0335C7.80762 5.02704 7.88169 5.02171 8.02087 5.01631V5.51213C7.7779 5.52307 7.57319 5.53738 7.32952 5.55414C7.26581 5.55835 7.23659 5.53731 7.23659 5.48681V3.85742C7.23659 3.81485 7.26714 3.79353 7.3298 3.79276C7.5296 3.78946 7.71006 3.78694 7.9098 3.78476C7.97217 3.78427 7.99761 3.80679 7.99761 3.85468V4.13997C8.29847 4.13457 8.60052 4.13064 8.9011 4.12861L8.90258 3.72887C8.90307 3.46743 8.67902 3.31055 8.28256 3.31055" fill="#EA0029"/>
<path d="M13.5318 3.92699V4.62387C13.5318 4.67548 13.5029 4.70543 13.4406 4.70066C13.2136 4.68369 13.0322 4.66805 12.8044 4.65311V3.81878C13.0318 3.82439 13.2108 3.83084 13.4379 3.83652C13.5007 3.8389 13.5318 3.86661 13.5318 3.92699ZM14.4359 4.84597V3.80819C14.4298 3.49646 14.1733 3.31083 13.7767 3.31055H11.5762C11.6146 3.32668 11.9122 3.42275 11.9122 3.70671L11.9131 6.06931C12.205 6.09751 12.5137 6.1318 12.8044 6.17016V5.14065C12.9506 5.15286 13.1054 5.16618 13.2516 5.18042C13.4066 5.54579 13.5221 5.90731 13.6769 6.29226C13.97 6.34205 14.2893 6.40951 14.5809 6.46982C14.4227 6.06404 14.2599 5.66002 14.0927 5.25784C14.3153 5.21661 14.4394 5.06821 14.4359 4.84597Z" fill="#EA0029"/>
<path d="M1.76719 3.99452C2.12075 3.97503 2.45722 3.9563 2.81183 3.93961V6.83457C3.10288 6.7556 3.42183 6.68169 3.71519 6.61261V3.89929C3.92733 3.89038 4.17472 3.88196 4.38643 3.87446V3.31062H1.24585C1.41525 3.54187 1.58906 3.76993 1.76719 3.99452ZM16.8497 4.91638C16.5785 4.7947 15.9561 4.51152 15.7641 4.42232C15.6937 4.38921 15.6676 4.33276 15.6676 4.29412V4.00925C15.6667 3.9488 15.6979 3.9192 15.7598 3.92229C16.2214 3.94319 16.7612 3.96647 17.221 3.99207L17.7492 3.31062H14.4444C14.4899 3.33516 14.7867 3.4372 14.7867 3.77256C14.7867 3.77256 14.7892 4.13233 14.7892 4.32413C14.7892 4.5165 14.8884 4.67114 15.1285 4.78103C15.3679 4.89085 16.1472 5.22537 16.2067 5.2577C16.2845 5.29894 16.2975 5.3394 16.2975 5.454V6.16125C16.2979 6.25733 16.2286 6.24183 16.206 6.23671C16.0477 6.20081 15.9162 6.17395 15.757 6.14029C15.7344 6.13552 15.6778 6.12016 15.6767 6.02892V5.56101C15.388 5.51287 15.0986 5.46829 14.8087 5.42728V5.96615C14.8144 6.31217 15.0643 6.5692 15.4601 6.66787C15.8319 6.7589 16.1894 6.85806 16.557 6.96627C16.9484 7.08479 17.1762 6.92307 17.1754 6.50342C17.1782 6.4929 17.1747 5.4474 17.1747 5.4474C17.174 5.20335 17.1208 5.03904 16.8496 4.91638M4.85591 3.75047V6.37108C5.15488 6.31631 5.45883 6.26589 5.75983 6.22129V3.31055H4.53291C4.61434 3.33439 4.85598 3.46946 4.85598 3.75054M8.99629 3.31055C9.04128 3.33117 9.33983 3.42598 9.33983 3.68939C9.33906 4.44223 9.33906 5.19466 9.33857 5.94701C10.0432 5.9435 10.7359 5.97029 11.4384 6.02534V5.54383C11.0317 5.51694 10.6245 5.49866 10.217 5.48899V4.88461C10.5801 4.89183 10.9419 4.8999 11.3044 4.91561V4.42021C10.942 4.40894 10.5796 4.4012 10.217 4.397C10.218 3.7962 10.217 3.7962 10.217 3.78105C10.6225 3.78392 11.0028 3.78764 11.4079 3.79325V3.31062L8.99629 3.31055Z" fill="#EA0029"/>
<path d="M6.47437 7.93306C6.50345 7.92927 6.52413 7.91945 6.53625 7.90361C6.54816 7.88818 6.55412 7.86805 6.55412 7.84385C6.55412 7.81622 6.54732 7.79659 6.53247 7.78635C6.51845 7.77639 6.49911 7.77267 6.4743 7.77562C6.43281 7.78144 6.39111 7.78712 6.34927 7.7928V7.94954C6.39111 7.94393 6.43281 7.93846 6.47437 7.93306ZM6.45825 7.68494C6.48719 7.68094 6.50787 7.67134 6.51978 7.65619C6.53204 7.64125 6.53814 7.62203 6.53814 7.5984C6.53772 7.5707 6.5312 7.5519 6.51747 7.54209C6.50366 7.53227 6.48397 7.52918 6.45825 7.53262C6.42188 7.53724 6.38556 7.54215 6.34927 7.54735V7.69974C6.38613 7.69483 6.42181 7.6895 6.45825 7.68494ZM6.46056 7.43928C6.4949 7.43465 6.52328 7.43409 6.54732 7.43773C6.57143 7.44145 6.59021 7.44916 6.60584 7.46095C6.62056 7.47329 6.63212 7.48921 6.63836 7.50941C6.64481 7.52953 6.64845 7.55429 6.64845 7.58374C6.64845 7.60955 6.64432 7.63262 6.63696 7.65219C6.62925 7.67134 6.61733 7.68824 6.60178 7.70367C6.62133 7.71159 6.63696 7.7252 6.64803 7.74455C6.65896 7.76391 6.6645 7.79238 6.6645 7.83004C6.6645 7.8616 6.66043 7.88825 6.65118 7.91118C6.643 7.93311 6.62988 7.95286 6.61285 7.9689C6.5949 7.98539 6.5739 7.9982 6.55104 8.00663C6.52473 8.01663 6.49732 8.02344 6.46939 8.02689C6.39384 8.03671 6.31829 8.04723 6.24268 8.05754V7.46915C6.315 7.45898 6.38796 7.44895 6.46056 7.43928ZM6.93936 7.73473C6.98653 7.72947 7.03453 7.72407 7.08177 7.71895C7.05829 7.64602 7.03502 7.57301 7.01112 7.50008C6.98744 7.57806 6.96249 7.65626 6.93936 7.73473ZM7.11225 7.80914C7.04455 7.81615 6.97664 7.82359 6.90944 7.8313C6.89437 7.87997 6.87965 7.92864 6.86507 7.97766C6.82702 7.98208 6.78953 7.98664 6.75189 7.99099C6.81511 7.78712 6.87916 7.58374 6.94209 7.38023C6.98786 7.37518 7.03418 7.37034 7.07981 7.36536L7.26959 7.93481C7.23195 7.93846 7.19446 7.94218 7.15697 7.94638C7.14141 7.90038 7.12711 7.85472 7.11225 7.80914ZM7.72848 7.41557C7.69899 7.41016 7.66911 7.40709 7.63913 7.40639C7.6111 7.40519 7.58517 7.40638 7.56064 7.40779C7.54746 7.40901 7.53435 7.41098 7.52139 7.41368C7.50864 7.41578 7.49812 7.42006 7.48838 7.42609C7.47913 7.43125 7.4714 7.43874 7.46596 7.44783C7.45986 7.45709 7.45734 7.46887 7.45734 7.48353C7.4565 7.49481 7.45867 7.50611 7.46364 7.51628C7.46792 7.52494 7.47488 7.532 7.48348 7.53641C7.49301 7.54209 7.50485 7.54629 7.52006 7.54959C7.53464 7.5531 7.553 7.55618 7.57437 7.55983C7.6043 7.56516 7.63044 7.57119 7.65322 7.57792C7.67655 7.58437 7.69555 7.59384 7.71103 7.60562C7.72617 7.61748 7.73802 7.63192 7.74622 7.64924C7.75392 7.66699 7.75862 7.68859 7.75862 7.71433C7.75862 7.77639 7.73949 7.82359 7.70143 7.85711C7.66387 7.89063 7.61103 7.90915 7.54452 7.91398C7.51543 7.9156 7.4846 7.9156 7.45187 7.91335C7.41968 7.91142 7.38766 7.9072 7.35607 7.90073V7.81405C7.39209 7.81805 7.42524 7.82036 7.45552 7.82134C7.48516 7.82317 7.51438 7.82254 7.54382 7.82022C7.57956 7.81707 7.60619 7.80788 7.62217 7.79322C7.63913 7.77849 7.64691 7.75556 7.64691 7.72491C7.64716 7.71521 7.6446 7.70563 7.63956 7.69734C7.63451 7.68904 7.62719 7.68238 7.61846 7.67814C7.60719 7.67259 7.59517 7.66871 7.58278 7.66664C7.56877 7.66369 7.55069 7.66061 7.53183 7.65766C7.50489 7.65368 7.47832 7.64754 7.45236 7.63929C7.43114 7.63276 7.41125 7.6225 7.39363 7.60899C7.37797 7.59669 7.36553 7.58075 7.3574 7.56256C7.34875 7.54087 7.34446 7.51768 7.34479 7.49433C7.34479 7.44383 7.36118 7.40274 7.39461 7.37125C7.42755 7.33969 7.47969 7.32132 7.553 7.31487C7.61183 7.3099 7.67108 7.3144 7.72848 7.32819V7.41557ZM7.88217 7.29509C8.01463 7.28583 8.1475 7.27784 8.28024 7.27033C8.27989 7.30175 8.27989 7.33303 8.28024 7.36424C8.185 7.3695 8.08927 7.3749 7.9941 7.38128V7.53178C8.08611 7.5261 8.17813 7.52056 8.27029 7.51558C8.25837 7.54749 8.24583 7.57961 8.23364 7.61144C8.15402 7.61607 8.07385 7.62042 7.9941 7.62596V7.782C8.08927 7.77569 8.185 7.77029 8.28024 7.76531C8.27989 7.79638 8.27989 7.82794 8.28024 7.85928C8.1475 7.86595 8.01463 7.87436 7.88217 7.88369V7.29509ZM8.64579 7.7496C8.67515 7.7489 8.69569 7.74069 8.70746 7.72646C8.71965 7.71159 8.72596 7.69279 8.72596 7.66818C8.72596 7.64013 8.71909 7.62021 8.70424 7.6085C8.69022 7.59728 8.67004 7.59167 8.64579 7.59279C8.6036 7.5944 8.56197 7.59595 8.51971 7.59735V7.75444C8.56197 7.7529 8.60353 7.75114 8.64579 7.7496ZM8.62918 7.50015C8.65854 7.49903 8.67915 7.49138 8.69155 7.47708C8.70333 7.46361 8.70942 7.4444 8.70942 7.42111C8.70942 7.39376 8.70311 7.37412 8.68875 7.36318C8.67515 7.35182 8.65546 7.34684 8.62918 7.34769C8.59267 7.34909 8.5565 7.35042 8.51971 7.3521V7.50429C8.5565 7.50281 8.5926 7.5012 8.62918 7.50015ZM8.63212 7.25427C8.6659 7.25315 8.69478 7.25582 8.71909 7.2615C8.74285 7.26711 8.76304 7.27721 8.7781 7.29046C8.79282 7.30364 8.80417 7.32062 8.81076 7.34151C8.81756 7.36255 8.82057 7.38738 8.82057 7.41655C8.82057 7.44292 8.81707 7.46564 8.80929 7.48423C8.80158 7.50281 8.78953 7.51873 8.77404 7.5322C8.79415 7.54209 8.80929 7.5578 8.82029 7.57792C8.83151 7.59805 8.83711 7.62701 8.83711 7.66453C8.83711 7.6963 8.83263 7.72232 8.82387 7.74448C8.81554 7.76541 8.80218 7.78396 8.78497 7.79848C8.7666 7.81347 8.74535 7.82453 8.72253 7.83095C8.69599 7.8382 8.66867 7.84221 8.64116 7.84287C8.5647 7.84582 8.48817 7.84911 8.4122 7.85255V7.26388C8.48551 7.26002 8.5584 7.25729 8.63212 7.25427ZM9.1133 7.59546L9.25676 7.59307C9.23251 7.51789 9.20925 7.44271 9.18486 7.36725C9.16096 7.44334 9.13671 7.51922 9.1133 7.59546ZM9.28641 7.68592C9.21878 7.68669 9.15101 7.68796 9.08268 7.68859C9.06796 7.73628 9.05303 7.7841 9.03825 7.83151C9.00026 7.83214 8.96221 7.83305 8.92471 7.83383C8.98828 7.63634 9.05254 7.439 9.11611 7.24116C9.16201 7.2406 9.20827 7.24011 9.25389 7.23948C9.31766 7.43514 9.38074 7.6308 9.44486 7.82709C9.40702 7.82709 9.36896 7.82709 9.33091 7.82751C9.31626 7.78018 9.30169 7.73319 9.28641 7.68592ZM9.53695 7.82709V7.23779C9.57423 7.23779 9.61166 7.23863 9.64929 7.23863V7.7334C9.73858 7.73399 9.82787 7.73516 9.91715 7.73691C9.9046 7.76762 9.89248 7.7989 9.88049 7.83004C9.76599 7.82817 9.65147 7.82718 9.53695 7.82709ZM10.0161 7.83214V7.24347C10.0532 7.24474 10.09 7.24558 10.1276 7.24684V7.74118C10.2172 7.74364 10.3063 7.74679 10.3952 7.75002C10.3833 7.78123 10.3714 7.81174 10.3591 7.84259C10.2447 7.83881 10.1299 7.83502 10.0161 7.83214ZM11.1563 7.86005C11.1264 7.86702 11.0961 7.87217 11.0656 7.87548C11.0354 7.87913 11.0061 7.87969 10.9783 7.87808C10.9357 7.87513 10.9001 7.86588 10.8702 7.84911C10.8412 7.83283 10.8165 7.81002 10.7979 7.78249C10.7787 7.75284 10.765 7.71996 10.7574 7.68543C10.7485 7.64575 10.7442 7.60519 10.7445 7.56453C10.7445 7.51873 10.7489 7.47708 10.7574 7.44089C10.7658 7.40414 10.7792 7.37384 10.7979 7.3486C10.8166 7.32405 10.8403 7.30533 10.8702 7.29355C10.9001 7.28148 10.9366 7.27671 10.9783 7.27938C11.0094 7.28148 11.0392 7.2859 11.0673 7.29221C11.0947 7.29852 11.125 7.30813 11.1563 7.32062V7.40519C11.139 7.40077 11.1235 7.39636 11.1094 7.3925C11.095 7.3892 11.0815 7.38584 11.0686 7.38324C11.056 7.381 11.0434 7.37917 11.0309 7.37763C11.0184 7.37644 11.005 7.37483 10.9912 7.37413C10.9438 7.37132 10.9092 7.38703 10.8891 7.42111C10.8684 7.45604 10.8583 7.50576 10.8583 7.57098C10.8583 7.60226 10.8602 7.63087 10.8657 7.65626C10.8702 7.68192 10.8779 7.70437 10.8891 7.72232C10.9001 7.74118 10.9141 7.75563 10.9312 7.76657C10.9476 7.7773 10.9677 7.78354 10.9919 7.78481C11.005 7.78579 11.0178 7.78579 11.0295 7.78579C11.0421 7.78579 11.0544 7.78579 11.0677 7.78481C11.0803 7.78354 11.0937 7.78228 11.1084 7.7806C11.1226 7.77905 11.139 7.77695 11.1563 7.77344V7.86005ZM11.2734 7.89477V7.30596C11.31 7.30869 11.3469 7.31171 11.385 7.31487V7.80956C11.4737 7.81707 11.5629 7.82478 11.6522 7.8327C11.6395 7.86286 11.6276 7.89337 11.6156 7.92331C11.5016 7.91284 11.3876 7.90337 11.2734 7.89477ZM11.8664 7.75521C11.8664 7.79238 11.8764 7.81952 11.8963 7.83642C11.9162 7.85416 11.9415 7.8644 11.9741 7.86728C12.0079 7.87121 12.0344 7.86672 12.0541 7.85374C12.0738 7.84077 12.0836 7.81566 12.0836 7.77835V7.38247C12.1211 7.38647 12.1584 7.39096 12.1968 7.39566V7.79217C12.1968 7.82751 12.191 7.85739 12.1821 7.88123C12.172 7.90494 12.1575 7.92338 12.1388 7.93699C12.1197 7.95066 12.0959 7.95901 12.0687 7.96294C12.0373 7.96733 12.0055 7.9674 11.9741 7.96315C11.9419 7.96019 11.9103 7.95344 11.8797 7.94302C11.8544 7.93411 11.8311 7.92013 11.8114 7.90192C11.7924 7.88374 11.778 7.86132 11.7693 7.83649C11.7594 7.80689 11.7545 7.77579 11.755 7.74455V7.34811C11.7922 7.35182 11.8297 7.35526 11.8664 7.35898V7.75521ZM12.5749 7.93846C12.6036 7.94218 12.6244 7.93804 12.6362 7.92563C12.6484 7.91335 12.6547 7.89477 12.6547 7.87071C12.6547 7.84259 12.6475 7.82141 12.6331 7.80746C12.6182 7.79343 12.599 7.78481 12.5749 7.78144C12.5332 7.77562 12.491 7.77022 12.4493 7.76489V7.92191C12.491 7.9271 12.5332 7.93313 12.5749 7.93846ZM12.5585 7.68599C12.5872 7.68999 12.6082 7.68599 12.6199 7.67386C12.6321 7.66236 12.6381 7.64476 12.6381 7.62042C12.6386 7.59307 12.6316 7.57273 12.618 7.55899C12.6041 7.54587 12.5845 7.53725 12.5585 7.53395C12.5221 7.52894 12.4857 7.52421 12.4493 7.51978V7.67197C12.4857 7.67667 12.5219 7.68143 12.5585 7.68599ZM12.561 7.44089C12.595 7.4458 12.6234 7.45295 12.6478 7.46298C12.6715 7.4728 12.6913 7.48612 12.7059 7.50155C12.7205 7.51733 12.7319 7.53641 12.7385 7.55836C12.7453 7.58059 12.7485 7.60632 12.7489 7.63515C12.7489 7.66173 12.7443 7.68354 12.7372 7.70086C12.729 7.71811 12.7177 7.73235 12.7019 7.74252C12.722 7.75668 12.7372 7.77429 12.7485 7.79638C12.759 7.81861 12.7643 7.84827 12.7643 7.88628C12.7643 7.91749 12.7601 7.94309 12.7516 7.96357C12.7434 7.98275 12.73 7.99925 12.7129 8.01118C12.6958 8.0229 12.6751 8.03012 12.6508 8.03257C12.6239 8.0355 12.5967 8.03489 12.5699 8.03075C12.4942 8.02079 12.4184 8.01083 12.3421 8.00158V7.41298C12.4151 7.42195 12.4882 7.43142 12.561 7.44089Z" fill="white"/>
<path d="M5.4483 2.69601V0.919065H6.57059L7.36343 2.69601H11.5997L12.428 0.919065H13.548V2.69601H14.1044V0.362305H4.89185V2.69601H5.4483Z" fill="#06141F"/>
<path d="M9.82215 2.06841C9.82215 2.07543 9.82425 2.07942 9.82839 2.07942C9.83159 2.07898 9.83463 2.07773 9.83722 2.07578L10.9826 1.3317C11.0019 1.31817 11.025 1.31122 11.0487 1.31185H11.3004C11.3389 1.31185 11.3651 1.33759 11.3651 1.37623V1.85732C11.3651 1.91539 11.3522 1.94919 11.3007 1.98012L10.9954 2.164C10.9923 2.16613 10.9888 2.16742 10.9851 2.16772C10.9814 2.16772 10.9777 2.16477 10.9777 2.15411V1.59286C10.9777 1.5862 10.9759 1.58178 10.9715 1.58178C10.9683 1.58217 10.9652 1.58346 10.9627 1.5855L10.1257 2.12985C10.1067 2.14277 10.0843 2.14958 10.0613 2.14934H9.5065C9.46754 2.14934 9.44182 2.12361 9.44182 2.08461V1.39131C9.44182 1.38612 9.43964 1.38135 9.43523 1.38135C9.43201 1.38174 9.42895 1.383 9.4264 1.385L8.87415 1.71678C8.86854 1.72043 8.86714 1.7231 8.86714 1.72562C8.86714 1.72779 8.86826 1.73004 8.87191 1.73404L9.26654 2.12873C9.27173 2.13385 9.27537 2.13791 9.27537 2.14233C9.27537 2.14598 9.26948 2.14892 9.26254 2.14892H8.90611C8.87815 2.14892 8.85649 2.14493 8.84142 2.12985L8.60223 1.89071C8.60132 1.88963 8.6002 1.88874 8.59893 1.88812C8.59767 1.88749 8.59629 1.88713 8.59487 1.88706C8.59228 1.88721 8.58975 1.88798 8.58752 1.8893L8.1877 2.12985C8.16345 2.14458 8.14691 2.14857 8.12301 2.14857H7.75522C7.71598 2.14899 7.69019 2.12284 7.69019 2.08419V1.61236C7.69019 1.55387 7.70308 1.52035 7.75487 1.48949L8.06204 1.30484C8.06446 1.30325 8.06727 1.30235 8.07017 1.30225C8.07494 1.30225 8.07746 1.30709 8.07746 1.31767V1.94954C8.07746 1.95621 8.07893 1.95915 8.08377 1.95915C8.08704 1.95863 8.09015 1.95739 8.09288 1.95551L9.13058 1.33065C9.15041 1.31697 9.17473 1.31031 9.19891 1.3115H9.75746C9.79601 1.3115 9.82215 1.33724 9.82215 1.37581L9.8218 2.06841H9.82215Z" fill="white"/>
</svg>
