<svg width="19" height="12" viewBox="0 0 19 12" fill="none" xmlns="http://www.w3.org/2000/svg">
<path d="M15.6454 5.58864C15.6454 8.67512 13.1471 11.1775 10.065 11.1775C6.98294 11.1775 4.48462 8.67517 4.48462 5.58864C4.48467 2.50216 6.98294 0 10.065 0C13.1471 0 15.6454 2.50216 15.6454 5.58864Z" fill="#F15A28"/>
<path d="M15.3011 5.5888C15.3011 8.48452 12.957 10.8322 10.0653 10.8322C7.17374 10.8322 4.82959 8.48447 4.82959 5.5888C4.82959 2.69282 7.17379 0.345215 10.0653 0.345215C12.957 0.345215 15.3011 2.69282 15.3011 5.5888Z" fill="black"/>
<path d="M13.4621 5.80553C13.3427 7.68331 11.7257 9.1089 9.85058 8.98944C7.97526 8.86973 6.55187 7.25044 6.67131 5.37256C6.79074 3.49448 8.40744 2.06904 10.2829 2.18865C12.1582 2.30811 13.5814 3.9274 13.4621 5.80553Z" fill="white"/>
<path d="M7.39537 7.5055C7.39537 7.5055 7.38747 7.56703 7.38452 7.60893C7.40017 7.62936 7.41527 7.64894 7.43081 7.66821C7.42616 7.64483 7.41047 7.55546 7.42172 7.53574L7.39537 7.5055ZM7.51705 7.61289C7.51705 7.61289 7.5059 7.68133 7.50945 7.76669C7.52925 7.79007 7.5494 7.81225 7.57009 7.83513C7.55355 7.77921 7.55505 7.71828 7.5494 7.6564L7.51705 7.61289ZM7.74057 7.82312L7.66823 7.76093C7.66823 7.76093 7.68043 7.89091 7.70187 7.92796C7.70427 7.95209 7.70297 7.96611 7.70932 7.98193C7.73942 8.01137 7.76916 8.04 7.79956 8.06819C7.79011 8.04386 7.77066 7.99219 7.77976 7.96345C7.73972 7.91759 7.74327 7.86582 7.74057 7.82312ZM7.95069 7.96686L7.8763 7.90643C7.8669 7.92365 7.8856 8.04987 7.91829 8.10699C7.91459 8.13703 7.92299 8.16176 7.92989 8.18199C7.95868 8.20612 7.98673 8.22855 8.01558 8.25208C8.01193 8.24047 7.99178 8.17814 7.99793 8.13828C7.95529 8.09007 7.95039 8.02023 7.95069 7.96686ZM8.161 8.35817C8.14831 8.32994 8.10711 8.29754 8.12426 8.25999C8.09346 8.21519 8.07602 8.114 8.08837 8.04536L8.1607 8.1152C8.15911 8.16682 8.16255 8.25073 8.2025 8.3051C8.18425 8.33119 8.26204 8.4188 8.26999 8.43182L8.161 8.35817ZM8.39177 8.47243C8.37862 8.44339 8.38782 8.44229 8.38147 8.41385C8.35198 8.36904 8.31398 8.27061 8.30988 8.19511L8.40967 8.23356C8.40937 8.28423 8.42761 8.35903 8.46756 8.4139C8.44971 8.44038 8.4994 8.52555 8.5062 8.53836L8.39177 8.47243ZM8.79926 8.66017C8.78911 8.62202 8.81031 8.59339 8.826 8.55544C8.77286 8.49561 8.68533 8.41385 8.64788 8.30395L8.5394 8.27091C8.58644 8.39137 8.66283 8.50392 8.71377 8.55283C8.70087 8.58062 8.69852 8.62743 8.69852 8.62743L8.79926 8.66017ZM9.12521 8.72741C9.11576 8.68861 9.14611 8.65487 9.1619 8.61712C9.09936 8.57832 9.00528 8.46742 8.94649 8.33304L8.8251 8.31897C8.92634 8.51563 8.99763 8.57822 9.06157 8.61927C9.04017 8.66032 9.03797 8.70238 9.03797 8.70238L9.12521 8.72741ZM9.46286 8.74699C9.46081 8.69076 9.4896 8.67855 9.5057 8.6416C9.44336 8.6026 9.32018 8.52044 9.26109 8.38541L9.14036 8.37199C9.26304 8.56455 9.34543 8.66163 9.39927 8.64816C9.37722 8.68816 9.36462 8.74459 9.36462 8.74459L9.46286 8.74699ZM9.77276 8.75345C9.77706 8.70954 9.82136 8.65752 9.83665 8.61947C9.77331 8.58067 9.67503 8.54242 9.61759 8.40709L9.48531 8.40739C9.58179 8.5656 9.67618 8.64766 9.73107 8.63414C9.69612 8.68215 9.67093 8.76937 9.67093 8.76937L9.77276 8.75345ZM10.0845 8.73407C10.0828 8.67855 10.1328 8.63744 10.1479 8.6006C10.0865 8.56149 9.98278 8.50927 9.92334 8.37425L9.79701 8.3803C9.8896 8.53265 9.98673 8.61752 10.0404 8.60345C9.99363 8.66653 9.97408 8.7555 9.97408 8.7555L10.0845 8.73407ZM10.438 8.6794C10.4349 8.62413 10.479 8.57126 10.4953 8.53291C10.4321 8.49476 10.3445 8.4544 10.2856 8.31952L10.1708 8.33399C10.2986 8.51628 10.344 8.55619 10.3975 8.54237C10.3587 8.60455 10.3277 8.70849 10.3277 8.70849L10.438 8.6794ZM10.7651 8.62398C10.7624 8.56685 10.8064 8.51453 10.8223 8.47653C10.76 8.43828 10.6513 8.3762 10.5925 8.24177L10.4801 8.2673C10.603 8.44359 10.6695 8.51263 10.7242 8.49896C10.7025 8.53981 10.6602 8.66208 10.6602 8.66208L10.7651 8.62398ZM11.0982 8.53441C11.1117 8.46967 11.1636 8.39547 11.1804 8.35782C11.1171 8.31927 10.9863 8.27882 10.929 8.14494L10.8343 8.17603C10.9573 8.34881 10.9948 8.36478 11.0755 8.3762C11.0535 8.41755 10.987 8.57656 10.987 8.57656L11.0982 8.53441ZM11.4503 8.42351C11.4689 8.31066 11.5108 8.24387 11.5234 8.20672C11.4609 8.21103 11.3601 8.14745 11.2937 8.01722L11.1942 8.05653C11.2926 8.19941 11.3584 8.25143 11.4128 8.24447C11.3913 8.28758 11.3447 8.46792 11.3447 8.46792L11.4503 8.42351ZM11.7987 8.26685C11.7924 8.22049 11.8643 8.08361 11.8801 8.04556C11.8715 8.04431 11.8511 8.04887 11.8286 8.04566C11.7882 8.0401 11.7116 7.9991 11.6332 7.85811L11.5432 7.90262C11.6423 8.05958 11.712 8.08677 11.7353 8.09087C11.7545 8.09673 11.7784 8.08882 11.7926 8.08491C11.7422 8.14915 11.7024 8.31707 11.7024 8.31707L11.7987 8.26685ZM12.3976 7.91434C12.3786 7.85831 12.3726 7.78096 12.388 7.74311C12.3249 7.70536 12.2799 7.624 12.272 7.49338L12.1827 7.55136C12.2026 7.70421 12.2499 7.75903 12.3021 7.78732C12.28 7.82857 12.3091 7.97567 12.3091 7.97567L12.3976 7.91434ZM12.108 8.09663C12.1068 8.0404 12.132 7.93702 12.1495 7.90067C12.091 7.90067 12.0507 7.8855 11.9762 7.67627L11.8867 7.72939C12.0105 7.95519 12.0282 7.93912 12.0603 7.92866C12.0369 7.96971 12.0068 8.16061 12.0068 8.16061L12.108 8.09663ZM12.6274 7.71948C12.6081 7.6572 12.6123 7.60593 12.6287 7.56763C12.5933 7.57489 12.5872 7.53078 12.58 7.47326C12.5744 7.42104 12.5771 7.37858 12.5737 7.317L12.4845 7.37487C12.4811 7.51576 12.4923 7.64458 12.5455 7.63066C12.5231 7.67182 12.5398 7.80569 12.5398 7.80569L12.6274 7.71948ZM12.83 7.5463C12.8208 7.49153 12.825 7.44236 12.844 7.40266C12.8091 7.35825 12.8015 7.30593 12.8123 7.15879L12.7307 7.21902C12.7072 7.37648 12.7423 7.42484 12.7651 7.46204C12.7405 7.5046 12.7462 7.61529 12.7462 7.61529L12.83 7.5463ZM13.0322 7.26593C13.0605 7.1264 13.0361 7.05881 13.0279 6.97324L12.9467 7.05C12.9636 7.11914 12.9865 7.26894 12.9492 7.40506L13.0322 7.26593ZM13.1874 6.79811C13.1874 6.79811 13.1828 6.90275 13.1716 6.99132C13.1899 6.95081 13.2072 6.91026 13.2242 6.86891C13.2236 6.8287 13.2216 6.78024 13.2139 6.74609L13.1874 6.79811Z" fill="#F9A983"/>
<path d="M9.87695 3.7234C9.9 3.76436 9.86435 4.05679 9.83926 4.15522L9.71868 4.08628C9.71868 4.08628 9.79142 3.86854 9.80031 3.81102C9.80961 3.75349 9.79366 3.70408 9.76242 3.67794L9.87695 3.7234ZM9.48831 3.94204L9.39592 3.89403C9.44522 3.7217 9.44367 3.6466 9.44612 3.59959C9.44737 3.56995 9.36593 3.55187 9.37108 3.55293C9.43977 3.5317 9.69698 3.37905 9.75587 3.33984L9.85956 3.39076C9.74812 3.46681 9.51561 3.57806 9.45792 3.57746C9.40107 3.57671 9.45452 3.57951 9.45452 3.57951L9.50626 3.56975C9.57785 3.62587 9.49311 3.89217 9.48831 3.94204ZM9.14551 3.79855L9.06982 3.76716C9.07297 3.70342 9.09227 3.61896 9.16026 3.47007L9.24125 3.49755C9.16266 3.66903 9.13816 3.77031 9.14551 3.79855Z" fill="#F9A983"/>
<path d="M9.51851 3.25134L9.42882 3.2168C9.31259 3.27062 9.18911 3.35037 9.08447 3.43609L9.16181 3.47399C9.30584 3.37531 9.43977 3.27623 9.51851 3.25134Z" fill="#F9A983"/>
<path d="M13.3445 5.30452L13.2709 5.32154C13.2486 5.23733 13.2359 5.11162 13.1454 5.0237C13.1834 4.94069 13.2095 4.8732 13.1622 4.77081L13.2292 4.77317C13.2503 4.88416 13.2393 4.93814 13.2062 5.01404C13.2664 5.07862 13.3349 5.17114 13.3445 5.30452ZM13.1636 5.34823L13.0762 5.36074C13.0538 5.27498 13.0239 5.1408 12.9334 5.05244C13.0092 4.97213 13.0067 4.87791 12.9916 4.78413L13.0717 4.78093C13.0928 4.89182 13.0584 4.96908 13.0193 5.04493C13.0798 5.10991 13.1346 5.21585 13.1636 5.34823ZM13.3326 5.00813C13.4234 5.0968 13.4105 5.18236 13.4328 5.26787L13.4606 5.26121C13.4555 5.19886 13.4486 5.13666 13.4398 5.07472C13.4253 5.04587 13.4062 5.0196 13.3832 4.99696C13.4011 4.93593 13.403 4.89353 13.4 4.84727C13.3936 4.81482 13.3852 4.78243 13.3784 4.75019L13.3312 4.74854C13.3532 4.82118 13.3494 4.93393 13.3326 5.00813ZM12.7601 5.06535C12.8416 5.17009 12.8908 5.26121 12.9211 5.38102L12.8331 5.38378C12.8098 5.29881 12.7549 5.15848 12.6646 5.06986L12.7601 5.06535Z" fill="#F9A983"/>
<path d="M12.6405 5.06904C12.6984 5.01172 12.7552 4.86602 12.7417 4.78271L12.8318 4.79788C12.8347 4.94223 12.7956 4.97937 12.7456 5.06769L12.6405 5.06904ZM12.547 5.05357C12.601 5.14224 12.6574 5.24367 12.666 5.37715L12.579 5.37375C12.5556 5.28848 12.5357 5.13633 12.4539 5.04752L12.547 5.05357Z" fill="#F9A983"/>
<path d="M12.4424 5.04807C12.5011 4.99069 12.5613 4.83559 12.5473 4.75293L12.6373 4.768C12.6582 4.8786 12.5946 4.96611 12.5353 5.05353L12.4424 5.04807ZM12.2677 5.02804C12.3151 5.02579 12.3547 5.23056 12.3677 5.35633L12.2704 5.33665C12.242 5.15251 12.2954 5.16913 12.1819 4.9936L12.2677 5.02804Z" fill="#F9A983"/>
<path d="M12.1519 4.98267C12.2861 4.854 12.3347 4.78105 12.3159 4.71622L12.4058 4.73695C12.4286 4.81955 12.2988 4.94182 12.237 5.01742L12.1519 4.98267ZM11.8459 4.93215C11.9257 4.87112 12.0365 4.7039 12.0458 4.61719L12.1314 4.65659C12.1251 4.7746 11.9853 4.91854 11.9466 4.9655L11.8459 4.93215Z" fill="#F9A983"/>
<path d="M11.6788 4.80678C11.7269 4.87858 11.7271 5.044 11.7145 5.18063L11.6132 5.13056C11.6342 5.03649 11.6396 4.86986 11.5776 4.77344L11.6788 4.80678ZM11.9669 4.9702C12.0151 5.04169 12.0162 5.20801 12.0031 5.34354L11.9013 5.29317C11.9231 5.1998 11.9283 5.03328 11.8672 4.93635L11.9669 4.9702Z" fill="#F9A983"/>
<path d="M11.5486 4.7657C11.6284 4.70467 11.7705 4.58461 11.7782 4.49805L11.8798 4.54811C11.8307 4.66537 11.7611 4.69976 11.6484 4.79914L11.5486 4.7657Z" fill="#F9A983"/>
<path d="M11.3604 4.63747C11.4043 4.71677 11.388 4.89251 11.361 5.03489L11.2594 4.97151C11.2912 4.87488 11.3129 4.69925 11.2581 4.59131L11.3604 4.63747Z" fill="#F9A983"/>
<path d="M11.2285 4.57996C11.3182 4.52333 11.4804 4.41058 11.497 4.32031L11.5986 4.3836C11.5362 4.5021 11.4586 4.53184 11.3308 4.62426L11.2285 4.57996Z" fill="#F9A983"/>
<path d="M11.0126 4.43736C11.0509 4.51987 11.0216 4.69295 10.9859 4.83318L10.8877 4.76299C10.9264 4.66882 10.961 4.49574 10.9137 4.38379L11.0126 4.43736Z" fill="#F9A983"/>
<path d="M10.8843 4.37021C10.9786 4.32045 11.1473 4.22052 11.1714 4.13135L11.2681 4.20134C11.1963 4.31504 11.1171 4.33942 10.9832 4.42368L10.8843 4.37021Z" fill="#F9A983"/>
<path d="M10.6672 4.22984C10.7057 4.31255 10.6766 4.48573 10.6399 4.62616L10.543 4.55587C10.5813 4.4619 10.6155 4.28802 10.5686 4.17627L10.6672 4.22984Z" fill="#F9A983"/>
<path d="M10.5396 4.16314C10.6339 4.11318 10.8021 4.0126 10.8264 3.92383L10.9228 3.99342C10.8512 4.10752 10.7728 4.1311 10.638 4.21576L10.5396 4.16314Z" fill="#F9A983"/>
<path d="M10.2852 3.98594C10.3231 4.0679 10.2946 4.24178 10.2579 4.38231L10.1606 4.31162C10.1993 4.21794 10.2336 4.04436 10.1866 3.93262L10.2852 3.98594Z" fill="#F9A983"/>
<path d="M10.1572 3.91957C10.2518 3.86945 10.4209 3.76877 10.4436 3.6792L10.5409 3.74999C10.4689 3.86389 10.391 3.88833 10.2555 3.97174L10.1572 3.91957Z" fill="#F9A983"/>
<path d="M9.76559 3.67158C9.85963 3.62137 10.0292 3.52088 10.053 3.43152L10.1495 3.50261C10.0781 3.61581 9.99906 3.63984 9.86473 3.7239L9.76559 3.67158ZM9.27397 3.15765L9.18013 3.12366C9.0579 3.18374 8.92892 3.27276 8.84328 3.35311L8.90632 3.3787C9.0329 3.28407 9.19283 3.18599 9.27397 3.15765ZM9.01996 3.05812L8.92237 3.03044C8.7269 3.14799 8.67936 3.1913 8.59427 3.27236L8.67436 3.29183C8.70775 3.24908 8.7521 3.20407 9.01996 3.05812ZM8.7558 2.98182L8.64291 2.97056C8.52643 3.02748 8.411 3.14599 8.32531 3.22645L8.41235 3.23516C8.49238 3.14589 8.64861 3.02523 8.7558 2.98182ZM8.44874 2.94367L8.35196 2.94092C8.22502 3.02047 8.10969 3.20807 8.15783 3.22174L8.21123 3.22049C8.25352 3.10709 8.33026 3.02643 8.44874 2.94367ZM8.20783 2.94898L8.12114 2.96455C7.95067 3.10994 7.93252 3.24157 7.97916 3.22369L8.01506 3.2281C8.02186 3.18374 8.027 3.10689 8.20783 2.94898ZM7.99271 2.97952L7.89782 3.00936C7.79734 3.0816 7.7412 3.25033 7.78624 3.24212L7.83018 3.2333C7.83883 3.17338 7.86433 3.09562 7.99271 2.97952ZM8.65321 3.64255L8.57202 3.61816C8.57747 3.52539 8.62611 3.37249 8.67321 3.29739L8.74815 3.31301C8.6869 3.39527 8.65181 3.5698 8.65321 3.64255Z" fill="#F9A983"/>
<path d="M8.89641 3.70309L8.81637 3.67871C8.82157 3.58584 8.86956 3.43309 8.91645 3.35799L8.99074 3.37266C8.93085 3.45582 8.89571 3.62995 8.89641 3.70309ZM8.39128 3.57568L8.31814 3.55019C8.32264 3.45417 8.35679 3.31503 8.40553 3.23893L8.48307 3.24489C8.42223 3.32815 8.39253 3.52371 8.39128 3.57568ZM8.15977 3.5171L8.08518 3.50173C8.09058 3.40876 8.14322 3.29816 8.19131 3.22296L8.2592 3.22571C8.19876 3.30932 8.16037 3.4437 8.15977 3.5171ZM7.9475 3.48756L7.87956 3.4812C7.88481 3.38858 7.9334 3.30206 7.98045 3.22626L8.05428 3.22646C7.99419 3.30917 7.948 3.41421 7.9475 3.48756ZM7.76063 3.48195L7.70294 3.48145C7.72648 3.36224 7.75878 3.31218 7.80652 3.23638L7.86881 3.22992C7.79637 3.31944 7.78103 3.37221 7.76063 3.48195ZM7.5959 3.48901L7.54551 3.50033C7.57561 3.37797 7.5831 3.34863 7.63155 3.27233L7.68514 3.26747C7.6249 3.34998 7.60955 3.40805 7.5959 3.48901ZM7.65514 3.26557C7.65759 3.23137 7.66749 3.19352 7.69119 3.14551C7.66514 3.17164 7.63925 3.19738 7.61375 3.22491L7.599 3.27313L7.65514 3.26557ZM7.44932 3.50944C7.46862 3.44305 7.49002 3.37731 7.54051 3.30417C7.50105 3.34896 7.46276 3.39477 7.42568 3.44155C7.41853 3.46072 7.41193 3.48586 7.40283 3.52176L7.44932 3.50944Z" fill="#F9A983"/>
<path d="M8.27714 3.00542C7.86265 3.1798 7.29514 3.31398 6.42067 3.28199C6.42067 3.28199 5.06577 3.18301 4.33593 3.24504V3.24574C4.05062 3.2528 2.84125 3.37561 1.73312 3.78766C1.60999 3.83342 1.55115 3.87467 1.49546 3.9317C1.47136 3.96339 1.41942 4.05236 1.39332 4.10678C1.39332 4.10678 1.05482 4.14708 0.848604 4.23224C0.555199 4.3534 0.445265 4.51151 0.525403 4.78843C0.713175 5.43508 1.48051 5.562 1.48051 5.562C1.48051 5.562 1.29599 5.10615 1.46721 5.10279C1.54445 5.10134 1.76757 5.15581 1.93109 5.23217C2.02138 5.27117 2.43277 5.46918 2.841 5.81759L2.35953 7.34165H7.90969C8.08767 7.33925 8.26378 7.30498 8.42971 7.24047C8.39722 7.27937 8.37357 7.30255 8.34788 7.34746L7.93829 8.06611H10.1952C10.7602 8.058 11.245 7.77167 11.4447 7.3417H16.5558C17.1915 7.3417 17.6787 7.06078 17.8621 6.63392C18.0817 6.13921 17.829 5.87226 17.829 5.87226C18.0797 5.71796 18.1995 5.51018 18.2445 5.36484L18.5 4.57249H13.5427L13.8115 3.71511H13.1516C12.5336 3.72077 12.0674 4.08204 11.9103 4.57094H7.56044C7.97453 4.3909 8.64168 3.96724 8.97783 2.64795C8.97783 2.64795 8.68558 2.85212 8.27714 3.00542Z" fill="black"/>
<path d="M5.70081 6.0999C6.02067 6.09374 6.26028 5.95882 6.36671 5.86785C6.36671 5.86785 6.20319 6.83963 5.05686 6.84519H2.75371L3.14675 5.59048C3.14675 5.59048 2.68507 5.05041 1.8333 4.84174C1.53274 4.75547 1.09531 4.72919 1.06366 4.87353C1.05116 4.91754 1.07576 5.06078 1.10431 5.17558C1.10431 5.17558 0.968976 5.1128 0.886489 5.01186C0.859493 4.98478 0.729663 4.82432 0.719014 4.64828C0.713165 4.55266 0.758258 4.48487 0.830597 4.4354C1.01387 4.31639 1.52864 4.26212 1.52864 4.26212L1.57569 4.15768C1.62293 4.05204 1.66627 4.00403 1.73221 3.97785C2.90579 3.51013 4.29293 3.42947 4.30497 3.42947L4.29688 3.42967C4.39616 3.42346 4.52574 3.41911 4.67182 3.41666C5.29903 3.37575 6.1518 3.45676 6.21389 3.46282C6.82959 3.50182 7.23028 3.48354 7.49629 3.44314C7.90133 3.39948 8.26798 3.1499 8.26798 3.1499C8.26798 3.1499 7.92098 3.93309 7.0934 4.15273C6.74656 4.25041 6.39041 4.25501 6.06061 4.25581H5.4348C5.1224 4.25581 5.04051 4.37432 5.00517 4.47691L4.92293 4.75062H5.96877C6.35592 4.76404 6.62163 4.60473 6.74066 4.50334C6.74066 4.50334 6.57938 5.46371 5.43475 5.48043L4.70011 5.48063L4.50494 6.0999H5.70081Z" fill="white"/>
<path d="M5.39285 4.06748C5.0461 4.06748 4.89967 4.20356 4.83763 4.3833L4.70155 4.82949H5.92522C6.13448 4.82734 6.34705 4.82598 6.50318 4.69296C6.3825 4.98555 6.03755 5.30942 5.393 5.295L4.56022 5.29531L4.28676 6.17947H5.56427C5.77334 6.17742 5.97191 6.16716 6.13813 6.05145C6.023 6.34209 5.65176 6.66662 5.02045 6.651H2.90537L3.26887 5.48441C3.26887 5.48441 2.50328 4.6849 1.39875 4.62867C1.19443 4.62552 1.0605 4.64404 0.978309 4.68755C0.881374 4.73907 0.939365 4.90534 0.939365 4.90534C0.939365 4.90534 0.824033 4.79104 0.801886 4.64865C0.779839 4.50756 0.958412 4.42641 1.21987 4.37614C1.41369 4.34154 1.57617 4.32743 1.57617 4.32743L1.64716 4.17362C1.66716 4.13247 1.68955 4.09932 1.7167 4.07514C1.76079 4.03504 1.83513 4.00961 1.83513 4.00961C2.94981 3.61448 4.26292 3.50829 4.26292 3.50829H4.26312C4.3594 3.50238 4.48838 3.49793 4.63336 3.49553C5.26766 3.45347 6.16283 3.54144 6.16283 3.54144C7.64786 3.64918 7.93031 3.40105 8.07239 3.29992C8.07454 3.29776 8.07209 3.30227 8.07434 3.29992C7.54287 3.98753 6.89182 4.07149 6.0187 4.06748H5.39285Z" fill="#F15A28"/>
<path d="M3.40423 5.04783L3.53062 4.6439C3.6149 4.36052 3.68784 4.27036 3.9484 4.15936C4.20891 4.04836 4.71069 3.99089 4.71069 3.99089C3.981 3.88535 2.47128 3.95113 1.92191 4.13453C1.80448 4.17383 1.76258 4.27992 1.76258 4.27992L2.53257 4.21498L2.24191 4.39432C1.9563 4.29519 1.73954 4.34075 1.73954 4.34075C1.55601 4.42181 1.52637 4.57876 1.52637 4.57876C2.48787 4.58422 3.40423 5.04783 3.40423 5.04783Z" fill="white"/>
<path d="M13.1546 3.89941C12.6819 3.90147 12.268 4.17753 12.1634 4.51628L11.4433 6.84456H12.4293L13.3443 3.89941H13.1546ZM15.1654 5.8538C15.2977 5.75562 15.3948 5.62985 15.4405 5.48251C15.4408 5.48181 15.6608 4.76576 15.6608 4.76576H14.0894C13.5014 4.77778 13.2409 5.0597 13.1559 5.29896L13.1549 5.30142L12.6727 6.84426H14.275C14.7094 6.84356 15.0807 6.63863 15.2092 6.22674L15.3235 5.8538H15.1654ZM14.0806 5.49728L14.1329 5.33281H14.5031L14.4506 5.49728H14.0806ZM14.2218 6.26694H13.8417C13.8704 6.17482 13.8867 6.12711 13.9065 6.06327H14.3723C14.2992 6.12395 14.2592 6.17572 14.2218 6.26694ZM10.1693 6.99496H9.52514C9.05076 6.99496 8.76095 7.11231 8.61773 7.36304L8.50044 7.56917H10.1799C10.6549 7.56221 11.0509 7.31493 11.1671 6.9537L11.8462 4.76576H10.2865C10.2865 4.76576 9.53234 4.75059 9.33342 5.37516L8.87764 6.84431H9.92023C10.0489 6.84326 10.1491 6.82483 10.232 6.79013L10.1693 6.99496ZM10.6842 5.32485C10.6114 5.55906 10.4315 6.12876 10.3891 6.26594H10.0465C10.1192 6.03153 10.2992 5.46203 10.3417 5.32485H10.6842ZM6.27173 6.84456H7.89413C8.33392 6.8382 8.71001 6.59473 8.8144 6.25237C8.8145 6.25227 9.27648 4.76576 9.27648 4.76576H7.67892C7.22513 4.76311 6.84289 5.00387 6.73171 5.3635C6.73101 5.36635 6.60813 5.76228 6.60813 5.76228H6.7647C6.63367 5.854 6.53279 5.99824 6.4871 6.14854L6.27173 6.84456ZM7.4415 6.26594L7.49394 6.09572H7.87894L7.82649 6.26594H7.4415ZM8.11745 5.33281L8.05596 5.53237H7.56013C7.65437 5.47525 7.69681 5.39799 7.72601 5.33281H8.11745ZM15.1634 6.84366H16.5491C17.096 6.84366 17.3892 6.52539 17.4813 6.22739C17.4813 6.22739 17.5328 6.06192 17.4706 5.91908C17.4344 5.83077 17.3785 5.76303 17.2745 5.70906C17.2197 5.68257 17.1122 5.631 17.017 5.58514C17.5736 5.54494 17.7666 5.30773 17.8285 5.10786L17.8799 4.94229L17.9358 4.76366H16.5362C16.0746 4.76846 15.7324 4.99852 15.6191 5.37952C15.5297 5.72883 15.7963 5.85195 15.7963 5.85195L16.1095 6.0042C15.5403 6.02583 15.3401 6.28251 15.2774 6.48528L15.1634 6.84366ZM16.6075 5.38863L16.6264 5.33281H16.7769L16.7386 5.45162L16.6075 5.38863ZM16.3344 6.26584C16.3465 6.22739 16.362 6.17873 16.362 6.17873L16.3761 6.13377C16.4234 6.15675 16.489 6.18854 16.5061 6.19675L16.4846 6.26589L16.3344 6.26584Z" fill="white"/>
<path d="M11.5924 6.6527L12.2508 4.5287C12.3554 4.22524 12.7261 3.99184 13.1131 3.98633L12.2846 6.65265H11.5924V6.6527ZM14.4653 5.88028C14.8712 5.86251 15.1811 5.66154 15.2657 5.38948L15.4311 4.84511H14.046C13.6591 4.85478 13.3431 5.03071 13.2332 5.34057L12.8226 6.65225H14.2318C14.646 6.6509 14.9188 6.46606 15.0322 6.13557L15.0935 5.94096C14.7193 5.93991 14.3672 6.0419 14.2767 6.32732L14.2703 6.35256H13.6111L13.758 5.88113L14.4653 5.88028ZM14.6425 5.15092L14.5085 5.58294H13.8503L13.9841 5.15092H14.6425ZM10.4467 6.35151H9.81619L10.1888 5.15092H10.8195L10.4467 6.35151ZM8.70211 7.37906H10.1364C10.5237 7.37361 10.8899 7.1789 10.9928 6.85923L11.6166 4.84511H10.2431C9.85563 4.85478 9.54123 5.06561 9.42595 5.36795L9.02691 6.65235H9.87658C10.2527 6.65235 10.4025 6.49464 10.4025 6.49464L10.2297 7.07606H9.48309C9.14879 7.07611 8.83873 7.1398 8.70211 7.37906ZM7.88423 6.35151H7.21108L7.34701 5.91383H8.02016L7.88423 6.35151ZM7.63542 4.84531C7.25137 4.84471 6.91362 5.0627 6.82404 5.35163L6.7563 5.57077C7.11719 5.58214 7.48624 5.46478 7.57248 5.18171L7.58222 5.15092H8.25742L8.11224 5.61794H7.3929C6.98171 5.62114 6.66761 5.8535 6.58127 6.13657L6.4209 6.6527H7.84883C8.23598 6.64715 8.54973 6.44268 8.63592 6.15985L9.0423 4.84531H7.63542ZM17.3064 6.13452C17.2189 6.41759 16.9456 6.6517 16.5076 6.6517H15.3162L15.3713 6.47382C15.459 6.19094 15.8002 6.09071 16.1872 6.0851L16.1031 6.35125H16.5424L16.6068 6.14383C16.6193 6.10323 16.6068 6.06998 16.5769 6.0471L15.8238 5.68022C15.7386 5.63756 15.6739 5.49587 15.7135 5.3675V5.3667C15.805 5.0589 16.0782 4.85342 16.4988 4.84501H17.7053L17.6538 5.01489C17.566 5.29786 17.2444 5.3988 16.8383 5.40125L16.9167 5.15082H16.4775L16.4197 5.33751C16.407 5.37822 16.4197 5.41156 16.4496 5.43434L17.189 5.78941C17.3749 5.90131 17.3064 6.13452 17.3064 6.13452Z" fill="#F15A28"/>
<path d="M9.93551 9.94609L10.0918 9.94238C10.1254 9.94158 10.1502 9.93718 10.1665 9.92937C10.1932 9.91615 10.2063 9.89202 10.2054 9.85662C10.2044 9.82318 10.1909 9.80165 10.1653 9.79149C10.1506 9.78543 10.1251 9.78277 10.0893 9.78388L9.95956 9.78683C9.91486 9.78798 9.88262 9.79584 9.86392 9.81071C9.84652 9.82478 9.83802 9.84681 9.83872 9.8766C9.84217 9.92486 9.87437 9.94794 9.93551 9.94609ZM10.2527 10.2075L9.96021 10.2144C9.87772 10.2165 9.81853 10.1928 9.78233 10.144C9.76209 10.117 9.75259 10.0855 9.74819 10.0521C9.74204 10.0078 9.74404 9.89898 9.74339 9.87414C9.74194 9.81031 9.76299 9.77096 9.78468 9.74613C9.80738 9.72029 9.84722 9.69711 9.88212 9.69626C9.91266 9.69511 9.91286 9.69536 9.94306 9.69481L10.0926 9.6912C10.1613 9.68975 10.2093 9.69746 10.2377 9.71543C10.2763 9.73947 10.2965 9.78768 10.2983 9.86053C10.2988 9.92887 10.2786 9.97583 10.2404 10.0014C10.2127 10.02 10.1659 10.03 10.1002 10.0315C10.1002 10.0315 9.84517 10.0357 9.84532 10.0374C9.84587 10.0633 9.85342 10.0936 9.87997 10.1076C9.90566 10.1214 9.93711 10.1232 9.96561 10.1226L10.2529 10.1159L10.2527 10.2075ZM9.56787 9.91099C9.54227 9.88977 9.50298 9.87665 9.46113 9.86894L9.27656 9.83459C9.25191 9.83009 9.19732 9.81512 9.20572 9.76926L9.21312 9.7285C9.21907 9.69661 9.23452 9.68264 9.29751 9.69436C9.29751 9.69436 9.60936 9.75203 9.62101 9.75429C9.62306 9.74267 9.63296 9.68905 9.63511 9.67743L9.32175 9.61956C9.26951 9.6097 9.22902 9.60879 9.20137 9.6168C9.15753 9.62902 9.13093 9.66236 9.12043 9.71939L9.11283 9.76044C9.10499 9.80325 9.11558 9.8382 9.14478 9.86703C9.16833 9.88981 9.19827 9.90489 9.23412 9.91134L9.44773 9.95095C9.50772 9.96221 9.51532 9.98069 9.50917 10.0134L9.50278 10.0484C9.49728 10.0787 9.48603 10.0984 9.43284 10.0884L9.07779 10.0226C9.07574 10.0343 9.06534 10.0903 9.06314 10.102C9.07729 10.1046 9.40554 10.1655 9.40554 10.1655C9.49103 10.1814 9.54677 10.1696 9.57156 10.1311C9.58141 10.1157 9.58936 10.0912 9.59531 10.0585L9.60196 10.0226C9.61086 9.97483 9.60261 9.94033 9.56787 9.91099ZM8.78053 9.7642L8.63141 9.71579C8.59911 9.70542 8.57427 9.70112 8.55622 9.70327C8.52642 9.70687 8.50612 9.72555 8.49518 9.75929C8.48523 9.79139 8.49068 9.81632 8.51177 9.83419C8.52377 9.84496 8.54682 9.85582 8.58081 9.86683L8.7049 9.90704C8.74774 9.92101 8.78083 9.92406 8.80363 9.91625C8.82478 9.90899 8.83983 9.89102 8.84917 9.86238C8.86202 9.81557 8.83908 9.78287 8.78053 9.7642ZM8.56707 9.41113L8.84602 9.5018C8.92511 9.52744 8.97326 9.56949 8.9912 9.62812C9.01495 9.70312 8.97535 9.78388 8.95266 9.85402C8.94491 9.87805 8.93721 9.90173 8.92936 9.92571C8.91756 9.96236 8.89602 9.9935 8.86887 10.0128C8.84257 10.0314 8.81058 10.039 8.77743 10.0283C8.74824 10.019 8.71919 10.0095 8.6901 10.0001L8.54697 9.9535C8.48133 9.93237 8.43859 9.90879 8.41789 9.88261C8.38919 9.84691 8.38614 9.79429 8.40869 9.7248C8.43059 9.65996 8.46528 9.62211 8.51022 9.6107C8.54252 9.60229 8.59011 9.60844 8.6529 9.62877C8.6529 9.62877 8.89567 9.70923 8.89622 9.70787C8.90412 9.68314 8.90737 9.65215 8.88682 9.62982C8.86712 9.60819 8.83782 9.59598 8.81043 9.58717L8.53622 9.4981L8.56707 9.41113ZM11.4664 9.72765L11.3168 9.77506C11.2846 9.78533 11.2618 9.79629 11.2484 9.80851C11.2264 9.82893 11.2205 9.85592 11.2312 9.88977C11.2416 9.92166 11.2607 9.93868 11.2883 9.94108C11.3043 9.94284 11.3293 9.93813 11.3635 9.92731L11.4877 9.88811C11.5307 9.87455 11.5593 9.85772 11.5733 9.83815C11.5864 9.81987 11.5881 9.79649 11.5791 9.76785C11.5624 9.72209 11.5247 9.70878 11.4664 9.72765ZM11.0877 9.56454L11.3674 9.47587C11.4465 9.45084 11.5102 9.45689 11.5588 9.49414C11.6216 9.54155 11.6364 9.63027 11.6584 9.70066L11.681 9.77246C11.6927 9.80911 11.6932 9.84726 11.6823 9.87845C11.6718 9.90914 11.6503 9.93387 11.617 9.94454C11.5878 9.95385 11.5585 9.96311 11.5295 9.97212L11.386 10.0177C11.3204 10.0385 11.2718 10.0443 11.2398 10.0351C11.1957 10.0225 11.1626 9.98174 11.1404 9.91199C11.1208 9.84646 11.1271 9.79524 11.1571 9.75994C11.1786 9.73411 11.2208 9.71163 11.2839 9.6917C11.2839 9.6917 11.5281 9.6159 11.5276 9.61455C11.5198 9.58982 11.5044 9.56253 11.4748 9.55647C11.4461 9.55022 11.4153 9.55753 11.3879 9.56624L11.1128 9.65315L11.0877 9.56454Z" fill="white"/>
<path d="M11.6296 9.1974L11.7156 9.16446L11.9617 9.80866L11.8757 9.84161L11.6296 9.1974ZM12.193 9.70057L12.1077 9.73597L11.8439 9.09877L11.9289 9.06348L12.193 9.70057Z" fill="white"/>
<path d="M8.26663 9.48084L8.26253 9.47653C8.30082 9.47868 8.33007 9.47808 8.35791 9.44819C8.37186 9.43332 8.38936 9.40694 8.41001 9.36949C8.43015 9.33264 8.4382 9.29509 8.4338 9.25754C8.42988 9.22281 8.41461 9.19035 8.39036 9.16522C8.37326 9.14735 8.34592 9.12797 8.30912 9.10744L7.97257 8.92095L7.64127 9.52084L7.98802 9.71289C8.03556 9.73938 8.08201 9.75054 8.12525 9.74594C8.18054 9.73948 8.22298 9.70799 8.25508 9.64981C8.27063 9.62192 8.28158 9.59399 8.28788 9.5662C8.29622 9.53025 8.29142 9.50752 8.26663 9.48084ZM8.16359 9.62177C8.1394 9.65452 8.09385 9.65256 8.03121 9.61787L7.7702 9.47333L7.85929 9.31206L7.86969 9.31772L8.12835 9.46106C8.18859 9.4943 8.21074 9.5294 8.19404 9.5662L8.16359 9.62177ZM8.30227 9.37044C8.28333 9.40479 8.24393 9.40594 8.18559 9.37359L7.91133 9.22164L8.00282 9.05607L8.01317 9.06183L8.26738 9.20267C8.33217 9.23857 8.35451 9.27602 8.33362 9.31376L8.30227 9.37044ZM10.9993 9.91511L10.9851 9.81588C10.976 9.75054 10.9493 9.70223 10.9049 9.67144C10.8602 9.64035 10.8183 9.62783 10.7432 9.63839L10.6788 9.64761L10.4938 9.67364L10.471 9.51288L10.3786 9.5259L10.4015 9.68676L10.4139 9.77593L10.435 9.92582L10.4446 9.99361C10.4538 10.059 10.4807 10.1073 10.5251 10.1384C10.5698 10.1693 10.6116 10.1821 10.6866 10.1713L10.7642 10.1602L10.8158 10.153C10.8907 10.1422 10.9278 10.1185 10.9619 10.0765C10.9963 10.0343 11.0084 9.98055 10.9993 9.91511ZM10.9056 9.91942C10.911 9.95797 10.9032 9.99031 10.8821 10.017C10.8612 10.0437 10.8467 10.0575 10.8036 10.0635L10.7517 10.0709L10.7386 10.0727L10.6737 10.0819C10.6306 10.0881 10.6126 10.0787 10.5852 10.0589C10.5577 10.039 10.5411 10.0099 10.5356 9.97163L10.5274 9.91266L10.5062 9.76276L10.7042 9.73477L10.7563 9.72746C10.7994 9.7214 10.8172 9.73077 10.8446 9.75064C10.872 9.77032 10.8886 9.79946 10.894 9.83766L10.9056 9.91942ZM12.7235 8.49273L13.1802 9.00446C13.187 8.9984 13.2377 8.95294 13.2492 8.94277C13.2368 8.92921 12.805 8.44522 12.7924 8.43115C12.7784 8.44361 12.7269 8.48958 12.7235 8.49273ZM12.3451 8.99014C12.3514 8.94292 12.3592 8.91103 12.4118 8.86868C12.4118 8.86868 12.6624 8.66831 12.6851 8.64994C12.6658 8.62569 12.6464 8.60147 12.627 8.57729C12.6043 8.59567 12.3542 8.79583 12.3542 8.79583C12.2716 8.86192 12.2498 8.91349 12.2397 8.98007C12.2293 9.04892 12.2515 9.11836 12.3052 9.18555L12.3917 9.29409C12.4457 9.36158 12.5084 9.39823 12.5781 9.40343C12.645 9.40804 12.6998 9.39808 12.7822 9.33184C12.7822 9.33184 13.0323 9.13177 13.0552 9.1133C13.0423 9.09728 13.0102 9.05688 12.9974 9.04095C12.9744 9.05913 12.7241 9.25979 12.7241 9.25979C12.6713 9.30195 12.6387 9.30235 12.5912 9.29824C12.5406 9.29374 12.4964 9.26851 12.4604 9.22335L12.3893 9.13428C12.3533 9.08922 12.3384 9.0405 12.3451 8.99014ZM13.9916 7.6419L13.9078 7.58683C13.8526 7.55063 13.7874 7.55659 13.7349 7.56961C13.6824 7.58263 13.645 7.60616 13.6036 7.66944L13.568 7.72411L13.4654 7.88077L13.3298 7.7918L13.2787 7.86996L13.4144 7.95902L13.4897 8.00829L13.6161 8.0911L13.6733 8.12865C13.7285 8.16485 13.7824 8.17626 13.835 8.16334C13.8876 8.15013 13.9247 8.12685 13.9663 8.06341L14.0091 7.99763L14.0376 7.95412C14.0792 7.89073 14.0857 7.84713 14.0767 7.79376C14.0676 7.74018 14.0469 7.67785 13.9916 7.6419ZM13.9219 7.73253C13.9543 7.75375 13.9733 7.78094 13.9795 7.81458C13.9858 7.84793 13.9866 7.86785 13.9626 7.90455L13.934 7.94816L13.9267 7.95932L13.8909 8.0141C13.8668 8.05085 13.848 8.05821 13.8151 8.06582C13.7822 8.07333 13.7493 8.06672 13.7172 8.04559L13.6672 8.01295L13.5409 7.93014L13.6503 7.76231L13.679 7.71851C13.703 7.68186 13.7218 7.6747 13.7547 7.66719C13.7877 7.65948 13.8205 7.66619 13.8526 7.68742L13.9219 7.73253ZM13.5325 8.64623C13.4898 8.69465 13.4415 8.71988 13.3883 8.72123C13.3351 8.72238 13.294 8.71007 13.2382 8.6606L13.0152 8.46374L13.0786 8.39185L13.3016 8.58891C13.3339 8.61744 13.3535 8.6194 13.3867 8.61805C13.4201 8.61669 13.4489 8.60162 13.4742 8.57309L13.5182 8.52312C13.5434 8.49468 13.5548 8.46364 13.5519 8.4304C13.5491 8.39725 13.5446 8.37798 13.5125 8.34944L13.2894 8.15248L13.3526 8.08079L13.5755 8.27754C13.6312 8.32681 13.6486 8.36641 13.6541 8.41943C13.6596 8.47235 13.6407 8.52337 13.5979 8.57208L13.5325 8.64623ZM6.86449 7.9384C6.86189 7.89519 6.84679 7.85088 6.81955 7.80647C6.81955 7.80647 6.62702 7.49286 6.61513 7.47363C6.59538 7.4847 6.03746 7.79806 6.01807 7.80903C6.02692 7.8238 6.05811 7.87466 6.06716 7.88938C6.08581 7.87882 6.28003 7.76967 6.28003 7.76967L6.43295 8.0193C6.4641 8.06997 6.49974 8.10577 6.53919 8.126C6.59163 8.15318 6.64647 8.14988 6.70676 8.11613L6.79755 8.06506C6.84604 8.03793 6.86799 7.99637 6.86449 7.9384ZM6.66157 8.03558C6.63102 8.0526 6.58368 8.05525 6.53159 7.97014L6.37556 7.716L6.56868 7.60766L6.57493 7.61762L6.72481 7.8616C6.73626 7.88027 6.74431 7.902 6.74891 7.92553C6.75606 7.96193 6.74871 7.98656 6.72656 7.99888L6.66157 8.03558ZM6.4581 8.46289L6.73081 8.22848C6.8134 8.15739 6.89288 8.1697 6.97317 8.26708L7.0998 8.42078C7.08846 8.43055 7.04131 8.47115 7.03016 8.48061C7.02062 8.4689 6.90383 8.32726 6.90383 8.32726C6.85659 8.26989 6.81185 8.28746 6.79215 8.30448L6.52029 8.53819C6.49965 8.51302 6.47891 8.48792 6.4581 8.46289ZM7.50344 8.8515C7.49739 8.79693 7.47915 8.75663 7.42185 8.70656L7.37231 8.66336L7.28268 8.5853C7.22543 8.53534 7.18289 8.52282 7.12825 8.52457C7.07381 8.52642 7.02482 8.55236 6.98137 8.60243L6.91508 8.67858C6.87154 8.72864 6.85289 8.78076 6.85854 8.83513C6.86439 8.8895 6.88264 8.92991 6.94008 8.97977L7.01982 9.04932L7.01977 9.04942L7.07911 9.10123C7.1365 9.1512 7.17909 9.16352 7.23373 9.16196C7.28813 9.16001 7.33702 9.13428 7.38056 9.08411L7.4468 9.00811C7.49039 8.95779 7.50914 8.90568 7.50344 8.8515ZM7.31562 9.01557C7.29002 9.04501 7.26008 9.06038 7.22609 9.06213C7.19209 9.06378 7.17189 9.06173 7.1388 9.03289L7.08906 8.98949L7.07916 8.98087L6.99932 8.91133C6.96602 8.8824 6.96137 8.86272 6.95827 8.82882C6.95523 8.79478 6.96647 8.76319 6.99207 8.7337L7.04651 8.67112C7.07206 8.64168 7.1018 8.62626 7.1359 8.62445C7.16989 8.623 7.19004 8.62485 7.22308 8.65369L7.30297 8.72323L7.31292 8.73195L7.36271 8.77525C7.39581 8.80419 7.40061 8.82387 7.40341 8.85776C7.40666 8.89191 7.39571 8.9235 7.36991 8.95289L7.31562 9.01557Z" fill="white"/>
<path d="M7.36035 2.52171L7.29766 2.58634L7.0411 2.33651L6.74179 2.64482L6.99821 2.89465L6.93541 2.95913L6.44214 2.47875L6.50483 2.41411L6.66731 2.57222L6.96646 2.26381L6.80428 2.10586L6.86702 2.04117L7.36035 2.52171ZM10.51 1.27731L10.3538 1.26474C10.3201 1.26204 10.2948 1.26374 10.2779 1.27C10.2497 1.28046 10.2343 1.30324 10.2314 1.33869C10.2292 1.37214 10.2403 1.39497 10.2648 1.40763C10.279 1.41529 10.3041 1.4205 10.3398 1.42325L10.4696 1.43372C10.5145 1.43737 10.5472 1.43257 10.5676 1.41975C10.5864 1.40793 10.597 1.3868 10.5995 1.35677C10.6011 1.30825 10.5712 1.28182 10.51 1.27731ZM10.2208 0.983522L10.5129 1.00695C10.5956 1.01351 10.6523 1.0431 10.6832 1.09597C10.7235 1.16336 10.7039 1.25108 10.6979 1.32457C10.696 1.34971 10.6939 1.37464 10.6918 1.39967C10.6888 1.43787 10.6753 1.47322 10.6533 1.4983C10.6321 1.52248 10.6028 1.53715 10.5681 1.53455C10.5375 1.5322 10.5071 1.52974 10.4764 1.52724L10.3267 1.51532C10.2581 1.50992 10.211 1.49705 10.1848 1.47642C10.1485 1.44834 10.1335 1.39792 10.1394 1.32517C10.1457 1.25713 10.1707 1.21222 10.2116 1.1906C10.2412 1.17492 10.2888 1.16992 10.3545 1.17523C10.3545 1.17523 10.6093 1.19705 10.6093 1.1956C10.6116 1.16977 10.6073 1.13868 10.5822 1.122C10.5581 1.10548 10.5268 1.10038 10.4982 1.09812L10.2108 1.07509L10.2208 0.983522ZM8.01965 1.46836C8.07819 1.43767 8.13283 1.43131 8.18378 1.44919C8.23512 1.46736 8.26991 1.4942 8.30526 1.56154L8.44594 1.82964L8.36625 1.8717L8.22512 1.60289C8.20497 1.56434 8.18688 1.55518 8.15478 1.54441C8.12279 1.53365 8.08944 1.53725 8.0553 1.55518L7.98216 1.59373C7.94786 1.6118 7.92612 1.63724 7.91692 1.66973C7.90737 1.70222 7.90472 1.72235 7.92502 1.761L8.06599 2.02955L7.98621 2.07161L7.84553 1.80341C7.81038 1.73602 7.80793 1.69221 7.82208 1.63954C7.83623 1.58732 7.87257 1.54577 7.93106 1.51507L8.01965 1.46836ZM9.17018 1.06568L9.25227 1.34835C9.26466 1.39041 9.25792 1.40933 9.24222 1.43937C9.22657 1.46951 9.20042 1.48984 9.16313 1.50076L9.10924 1.51643C9.07214 1.52719 9.03895 1.52419 9.00975 1.50711C8.98041 1.49009 8.96446 1.47768 8.95236 1.43572L8.87022 1.15305L8.77959 1.17943L8.86162 1.4621C8.87397 1.50411 8.86737 1.52309 8.85158 1.55327C8.83588 1.58331 8.80948 1.60364 8.77229 1.61461L8.71865 1.63028C8.6816 1.64099 8.64821 1.63789 8.61891 1.62101C8.58952 1.60404 8.57382 1.59148 8.56147 1.54947L8.47938 1.2668L8.39295 1.29193L8.47733 1.58291C8.49853 1.65571 8.52727 1.689 8.57387 1.71694C8.62036 1.74493 8.6752 1.74968 8.73879 1.73111L8.80948 1.71048C8.87287 1.69211 8.91672 1.65846 8.94101 1.61015C8.94386 1.60439 8.94646 1.59863 8.94876 1.59283C8.95381 1.59643 8.95926 1.59979 8.96466 1.60319C9.01115 1.63098 9.06614 1.63573 9.12943 1.61731L9.20042 1.59653C9.26361 1.57826 9.30736 1.54471 9.33175 1.4962C9.35605 1.44759 9.36245 1.40398 9.3413 1.33113L9.25687 1.0402L9.17018 1.06568ZM9.93116 1.0461C9.89122 1.00961 9.83833 0.993886 9.77269 0.999142L9.6727 1.00725C9.62486 1.01116 9.58592 1.02498 9.55487 1.04841L9.53817 0.842285L9.44804 0.849595L9.50373 1.54096L9.59536 1.53355L9.57097 1.23105C9.56747 1.18749 9.57792 1.17022 9.59911 1.14378C9.62056 1.11775 9.65051 1.10293 9.6891 1.09983L9.77139 1.09322C9.80983 1.09001 9.84193 1.09983 9.86722 1.12216C9.89242 1.14473 9.90552 1.16026 9.90902 1.20381L9.93321 1.50636L10.0232 1.49905L9.99885 1.197C9.99275 1.1214 9.97101 1.08295 9.93116 1.0461ZM7.58727 2.03451L7.46149 2.12854C7.43444 2.14866 7.41654 2.16674 7.40779 2.18276C7.39375 2.20904 7.39705 2.23643 7.41824 2.26497C7.43864 2.2915 7.46214 2.30131 7.48883 2.29466C7.50448 2.29115 7.52658 2.27843 7.55562 2.25701L7.65986 2.17895C7.69595 2.15197 7.7173 2.12693 7.72435 2.10375C7.73049 2.08232 7.72465 2.05954 7.70665 2.03536C7.67625 1.99791 7.63616 1.99766 7.58727 2.03451ZM7.17613 2.00522L7.41144 1.82954C7.47773 1.77987 7.53992 1.7646 7.59786 1.78398C7.67265 1.80801 7.71555 1.88687 7.75949 1.94604C7.77449 1.96627 7.78969 1.9864 7.80438 2.00642C7.82733 2.03721 7.84053 2.07266 7.84028 2.10611C7.84043 2.1384 7.82813 2.16884 7.80038 2.18987L7.72675 2.24474L7.60616 2.33461C7.55117 2.37596 7.50708 2.39729 7.47388 2.39914C7.42809 2.4019 7.3835 2.37411 7.33985 2.31553C7.29981 2.26021 7.28916 2.20994 7.30556 2.16669C7.31766 2.13539 7.35 2.1001 7.40289 2.0606C7.40289 2.0606 7.60891 1.90879 7.60781 1.90754C7.59252 1.88682 7.56892 1.86624 7.53892 1.87019C7.50973 1.8738 7.48328 1.89062 7.46024 1.90784L7.22897 2.08052L7.17613 2.00522ZM13.3841 2.12313L12.9004 2.65869C12.9077 2.66514 12.9603 2.71316 12.9726 2.72402C12.9855 2.70965 13.4427 2.20333 13.4561 2.18856C13.4321 2.16679 13.4081 2.14497 13.3841 2.12313ZM13.3884 2.76888L13.4976 2.89194C13.521 2.91843 13.5416 2.9353 13.5589 2.94306C13.5876 2.95568 13.6158 2.94952 13.6436 2.92469C13.6697 2.90141 13.6777 2.87577 13.6685 2.84824C13.6632 2.83242 13.6481 2.81019 13.6229 2.78195L13.5322 2.67976C13.5012 2.64472 13.4728 2.62419 13.4482 2.61928C13.4251 2.61483 13.4015 2.62274 13.3782 2.64387C13.3417 2.67931 13.3452 2.72097 13.3884 2.76888ZM13.3944 3.2014L13.1902 2.9712C13.1326 2.90636 13.111 2.84273 13.1257 2.7804C13.1336 2.74585 13.1525 2.71666 13.176 2.69048C13.2075 2.65523 13.2958 2.58279 13.3154 2.56536C13.3655 2.5207 13.4112 2.51109 13.4458 2.51169C13.482 2.51239 13.5276 2.52851 13.5522 2.55595C13.5738 2.57988 13.5736 2.58003 13.5948 2.60401L13.6994 2.72177C13.7474 2.77594 13.7739 2.81985 13.7787 2.85465C13.7857 2.90196 13.7607 2.95132 13.7038 3.00204C13.6492 3.04895 13.5981 3.06467 13.5516 3.05136C13.5176 3.04169 13.4779 3.01085 13.4319 2.95923C13.4319 2.95923 13.2553 2.75722 13.2539 2.75837C13.2335 2.77644 13.2143 2.80323 13.2212 2.83397C13.2276 2.86391 13.2475 2.89059 13.2676 2.91302L13.4685 3.13937L13.3944 3.2014ZM13.9654 3.57014C13.9634 3.53519 13.9456 3.49544 13.9215 3.45749L13.8161 3.29017C13.8021 3.26779 13.7748 3.21477 13.8161 3.18869L13.853 3.16541C13.8817 3.14733 13.9037 3.14908 13.9395 3.20616C13.9395 3.20616 14.1175 3.48883 14.124 3.4993L14.1933 3.45549L14.0147 3.17176C13.9849 3.12435 13.9567 3.09236 13.9309 3.07664C13.8899 3.05125 13.8453 3.05466 13.7939 3.08705L13.7567 3.11063C13.7178 3.13517 13.6985 3.16801 13.6973 3.21137C13.6963 3.24586 13.7062 3.27986 13.7266 3.3122L13.8486 3.50601C13.8828 3.56028 13.8738 3.5792 13.8444 3.59793L13.8128 3.61775C13.7852 3.63528 13.7622 3.64033 13.7318 3.59222C13.7318 3.59222 13.5373 3.28341 13.5295 3.2707L13.4576 3.31601C13.4657 3.32867 13.653 3.62602 13.653 3.62602C13.7018 3.70347 13.7505 3.73846 13.7979 3.73005C13.8167 3.72665 13.8413 3.71518 13.871 3.69671L13.9033 3.67618C13.9467 3.64895 13.9674 3.61785 13.9654 3.57014ZM12.2178 1.80941L12.0722 1.73126C12.0408 1.71454 12.0158 1.70553 11.9968 1.70442C11.9652 1.70252 11.9408 1.71799 11.9232 1.75104C11.9068 1.78233 11.9079 1.80896 11.9264 1.83159C11.9367 1.84506 11.9588 1.86048 11.9919 1.87835L12.1128 1.94319C12.1545 1.96557 12.1882 1.97498 12.2133 1.97123C12.2363 1.96767 12.2554 1.9517 12.2704 1.92386C12.2924 1.87765 12.2747 1.83965 12.2178 1.80941ZM12.0622 1.40393L12.3343 1.54992C12.4111 1.59128 12.4534 1.64369 12.461 1.70773C12.4715 1.78984 12.4155 1.86594 12.379 1.93433C12.3663 1.95786 12.354 1.98099 12.3416 2.00437C12.3225 2.03982 12.2945 2.06811 12.2626 2.08308C12.2321 2.09754 12.1975 2.0993 12.1652 2.08207C12.1367 2.0669 12.1082 2.05168 12.08 2.03651L11.9405 1.96161C11.8768 1.92737 11.8366 1.89503 11.8201 1.86404C11.7972 1.82168 11.8036 1.76676 11.8399 1.69887C11.8747 1.63588 11.9177 1.60324 11.9664 1.59974C12.0013 1.59708 12.0494 1.6124 12.1106 1.6452C12.1106 1.6452 12.347 1.77382 12.3477 1.77251C12.3607 1.74848 12.3697 1.71689 12.3525 1.69001C12.3364 1.66392 12.3082 1.64585 12.2817 1.63153L12.0142 1.48809L12.0622 1.40393ZM13.0801 2.14035L13.081 2.1393L13.0797 2.1381C13.0773 2.12788 13.0754 2.11732 13.0711 2.10676C13.0548 2.0644 13.0264 2.02735 12.9867 1.99636L12.8524 1.89107C12.7444 1.80661 12.6615 1.80456 12.5986 1.88501L12.4582 2.0648C12.3891 2.15342 12.4078 2.23733 12.5151 2.32139L12.6724 2.44445C12.6941 2.45722 12.7246 2.4767 12.7598 2.47059L12.7308 2.50724C12.7151 2.52481 12.695 2.54098 12.6664 2.54018C12.6361 2.53928 12.6012 2.5212 12.5777 2.50283L12.337 2.31428L12.2863 2.37932L12.5392 2.57733C12.5769 2.60667 12.6108 2.62409 12.6437 2.6309C12.6705 2.63663 12.6982 2.63532 12.7243 2.62709C12.756 2.61753 12.7801 2.59685 12.8024 2.57312L12.8246 2.54459L13.0496 2.2563C13.0778 2.22011 13.0873 2.18171 13.0801 2.14035ZM12.8568 2.34517C12.796 2.42312 12.7227 2.35483 12.7227 2.35483L12.7222 2.35564L12.5789 2.24349C12.5769 2.24184 12.5752 2.24023 12.5731 2.23868L12.5736 2.23808C12.5736 2.23808 12.4884 2.18276 12.5515 2.1042L12.551 2.10375L12.6489 1.97854L12.6494 1.97894C12.7103 1.89828 12.7847 1.96797 12.7847 1.96797L12.7856 1.96657C12.8154 1.99015 12.9122 2.06595 12.9122 2.06595C12.9177 2.07021 12.9254 2.07652 12.9339 2.08423L12.9336 2.08468C12.9336 2.08468 12.9364 2.08658 12.9402 2.08973C12.9471 2.09594 12.9539 2.10295 12.9602 2.11071C12.9781 2.13389 12.9925 2.17149 12.9567 2.21735L12.8568 2.34517ZM11.3406 1.15485C11.3533 1.1179 11.3876 1.09307 11.4574 1.10623C11.4814 1.10959 11.822 1.22915 11.8748 1.24697L11.9104 1.14313C11.8943 1.13768 11.5224 1.00966 11.5224 1.00966C11.4976 1.00107 11.4717 0.995864 11.4455 0.994186C11.3658 0.98978 11.2868 1.01942 11.2592 1.09983L11.2382 1.16101C11.2133 1.23325 11.1749 1.34555 11.1705 1.35837C11.1591 1.39183 11.1476 1.42526 11.136 1.45865C11.1266 1.48624 11.1238 1.51568 11.1312 1.54421C11.1497 1.61621 11.2218 1.66878 11.2883 1.69171C11.2883 1.69171 11.6602 1.81968 11.6765 1.82518C11.6817 1.80976 11.7068 1.73657 11.7121 1.7214C11.6595 1.70312 11.3175 1.58742 11.2965 1.5759C11.2333 1.54306 11.2214 1.50221 11.2339 1.46546L11.2613 1.38545C11.2676 1.36713 11.2659 1.37239 11.2659 1.37239C11.2659 1.37239 11.7024 1.52248 11.7212 1.52904C11.7265 1.51357 11.7513 1.44113 11.7568 1.42551C11.7379 1.41895 11.3015 1.2688 11.3015 1.2688L11.3279 1.19175L11.3406 1.15485Z" fill="white"/>
<path d="M7.68432 9.14835L7.63183 9.224L7.50635 9.14059L7.55894 9.06494L7.68432 9.14835Z" fill="white"/>
</svg>
