<svg width="46" height="34" viewBox="0 0 46 34" fill="none" xmlns="http://www.w3.org/2000/svg">
<path d="M23.1069 0.03125C13.7677 0.03125 6.19604 7.54301 6.19604 16.8099C6.19604 26.0758 13.7677 33.588 23.1069 33.588C32.4466 33.588 40.0182 26.0763 40.0182 16.8099C40.0182 7.54301 32.4466 0.03125 23.1069 0.03125Z" fill="#570514"/>
<path d="M23.1069 32.9737C14.109 32.9737 6.8147 25.7376 6.8147 16.8093C6.8147 7.88256 14.109 0.64502 23.1069 0.64502C32.1057 0.64502 39.4 7.88256 39.4 16.8093C39.4 25.7381 32.1057 32.9737 23.1069 32.9737Z" fill="#7D0521"/>
<path d="M12.2478 9.45741L10.6037 8.22147L10.8963 7.83893L11.5538 8.33321L11.5573 8.32833L11.1152 7.55202L11.4142 7.1607L11.8735 8.05411L13.0745 8.3742L12.7656 8.77918L12.0323 8.55961L12.1337 8.76942L12.5389 9.07438L12.2478 9.45741ZM13.5903 7.83064L12.1223 6.39415L12.4617 6.05162L13.9297 7.48859L13.5903 7.83064ZM15.2487 5.60956L15.2536 5.60663L14.511 4.36532L14.8793 4.09452L15.8349 5.93891L15.3987 6.26095L14.4121 5.19383L14.4082 5.19725L15.1474 6.44636L14.7166 6.7645L13.2082 5.3285L13.583 5.05184L14.5651 6.11847V6.11018L13.8599 4.84691L14.2356 4.56879L15.2487 5.60956ZM16.8106 3.74369C16.7965 3.71519 16.7811 3.68735 16.7644 3.66025C16.7493 3.63355 16.7297 3.60961 16.7064 3.5895C16.6857 3.57029 16.6596 3.55771 16.6316 3.5534C16.5986 3.54868 16.5649 3.55485 16.5357 3.57096C16.5072 3.58276 16.4832 3.60325 16.4672 3.62948C16.4512 3.65571 16.444 3.68631 16.4467 3.71685C16.4477 3.74757 16.4539 3.77791 16.4649 3.80663C16.4767 3.83591 16.4885 3.86665 16.5028 3.89446L16.8775 4.64783C16.8898 4.67321 16.906 4.70102 16.9252 4.73078C16.9434 4.76006 16.9646 4.78494 16.9882 4.80593C17.0108 4.82657 17.0387 4.84073 17.0688 4.84691C17.1017 4.85342 17.1358 4.84824 17.1652 4.83227C17.1957 4.81892 17.2205 4.79522 17.235 4.76543C17.2469 4.73825 17.2515 4.7085 17.2483 4.67906C17.245 4.64641 17.237 4.61439 17.2247 4.58391C17.2125 4.55427 17.1994 4.52498 17.1854 4.49609L16.8106 3.74369ZM17.6009 4.24724C17.6526 4.34971 17.6875 4.44632 17.7072 4.53414C17.7268 4.62295 17.7263 4.70492 17.7072 4.77958C17.6849 4.85756 17.6429 4.92861 17.5852 4.98597C17.5252 5.04989 17.4396 5.10845 17.3295 5.16212C17.2193 5.21579 17.1205 5.24751 17.0324 5.25727C16.9439 5.26702 16.8637 5.25726 16.7914 5.22896C16.7138 5.19642 16.6453 5.14569 16.5918 5.08112C16.5258 5.00234 16.4698 4.91581 16.4251 4.82349L16.0542 4.07793C15.9657 3.89934 15.9495 3.73881 16.0041 3.59487C16.0597 3.4519 16.1831 3.33334 16.3729 3.24014C16.5633 3.14646 16.7319 3.12304 16.8785 3.16695C17.025 3.21282 17.1416 3.32407 17.2296 3.50167L17.6009 4.24724ZM18.9711 2.92006C18.9612 2.89078 18.9514 2.86004 18.9386 2.82979C18.9278 2.80154 18.9126 2.77518 18.8934 2.75172C18.8751 2.72975 18.8514 2.71292 18.8245 2.70292C18.7922 2.69317 18.7576 2.69455 18.7262 2.70683C18.6947 2.71489 18.6666 2.73266 18.646 2.75757C18.6299 2.78081 18.6198 2.80762 18.6165 2.83564C18.6126 2.86618 18.6136 2.89714 18.6194 2.92737C18.6258 2.96007 18.6342 2.99081 18.6426 3.02008L18.8919 3.82274C18.9008 3.85104 18.9126 3.8808 18.9263 3.913C18.9388 3.94287 18.9555 3.97081 18.976 3.99595C18.9962 4.02133 19.0207 4.03938 19.0493 4.0506C19.0807 4.06202 19.1152 4.06202 19.1466 4.0506C19.1791 4.04271 19.2075 4.02348 19.2268 3.99644C19.2427 3.97132 19.252 3.94262 19.2539 3.913C19.2552 3.88007 19.2522 3.84711 19.245 3.81493C19.2382 3.78368 19.23 3.75274 19.2204 3.72222L18.9711 2.92006ZM19.6704 3.54266C19.7048 3.65147 19.7245 3.75247 19.7294 3.84225C19.7343 3.93398 19.7206 4.01401 19.6896 4.08427C19.6555 4.15795 19.603 4.22178 19.5371 4.26968C19.4517 4.32956 19.3566 4.37445 19.2558 4.4024C19.1566 4.43573 19.0522 4.45174 18.9475 4.44973C18.8653 4.44679 18.785 4.42384 18.7139 4.38288C18.6424 4.33858 18.583 4.2776 18.5408 4.20528C18.4881 4.11758 18.4468 4.02364 18.4178 3.92569L18.1709 3.13036C18.1119 2.94055 18.1218 2.78002 18.1985 2.6473C18.2767 2.51361 18.4168 2.41553 18.6194 2.35356C18.8226 2.2916 18.9932 2.29452 19.1299 2.36186C19.2676 2.42968 19.365 2.55801 19.424 2.74733L19.6704 3.54266ZM20.6348 3.97887L20.3948 1.94711L21.072 1.86807L21.4625 3.04009L21.4674 3.03862L21.583 1.80903L22.2548 1.73096L22.4948 3.76223L22.0359 3.8159L21.8968 2.21694L21.8918 2.21792L21.7409 3.85055L21.3833 3.89202L20.8645 2.33746H20.8596L21.0907 3.92569L20.6348 3.97887ZM24.5603 3.84518L24.8869 1.82513L25.3649 1.90125L25.2395 2.67658L25.571 2.72976L25.6959 1.95394L26.1739 2.02957L25.8474 4.04963L25.3693 3.97351L25.5051 3.1328L25.1741 3.08059L25.0379 3.92081L24.5603 3.84518ZM26.6234 4.2409L27.2578 2.29599L28.3122 2.63413L28.1844 3.0235L27.5908 2.83223L27.4742 3.19086L28.0496 3.37579L27.9222 3.76418L27.3468 3.57926L27.2101 3.99986L27.8347 4.20089L27.7088 4.59026L26.6234 4.2409ZM29.4011 4.04816L29.5476 4.12135C29.5744 4.13635 29.605 4.14314 29.6356 4.14087C29.662 4.13818 29.6873 4.12877 29.7089 4.11354C29.7329 4.09691 29.7535 4.07607 29.7699 4.05206C29.7877 4.02697 29.8035 4.00054 29.8171 3.97302C29.8409 3.93108 29.857 3.88534 29.8648 3.83786C29.8704 3.80467 29.8634 3.77061 29.8451 3.74223C29.8245 3.71161 29.7964 3.68661 29.7635 3.66952C29.7195 3.64454 29.6746 3.62126 29.6288 3.59975L29.4011 4.04816ZM28.8665 5.09771L28.4347 4.88107L29.3642 3.05521L29.9942 3.37042C30.1732 3.45971 30.2863 3.56462 30.3345 3.68563C30.3832 3.80761 30.3606 3.95887 30.2686 4.14038C30.2184 4.23797 30.1604 4.3136 30.0945 4.36727C30.0271 4.42192 29.9391 4.44632 29.8279 4.44193L29.826 4.44729C29.8771 4.48687 29.9152 4.54074 29.9352 4.60197C29.953 4.66453 29.9476 4.73137 29.9199 4.79031L29.8584 4.93084L29.7827 5.09771L29.7109 5.26019C29.6926 5.30138 29.6771 5.34377 29.6647 5.38706C29.6622 5.4156 29.6657 5.44434 29.675 5.47147L29.6622 5.49587L29.1901 5.2597C29.194 5.23872 29.1965 5.21872 29.2014 5.1992C29.2062 5.17989 29.2124 5.16096 29.2201 5.1426C29.2575 5.05965 29.2963 4.98256 29.3342 4.91132C29.372 4.84008 29.403 4.7747 29.4252 4.7137C29.4456 4.6642 29.4557 4.61106 29.4547 4.55757C29.4512 4.51365 29.4252 4.47657 29.376 4.44827L29.2334 4.37703L28.8665 5.09771ZM31.7902 5.17041C31.8084 5.14455 31.8261 5.11869 31.8428 5.09039C31.8592 5.06465 31.8713 5.03649 31.8787 5.00695C31.8852 4.97956 31.8843 4.95097 31.8763 4.924C31.8647 4.89252 31.8431 4.86563 31.8148 4.8474C31.7892 4.82741 31.7578 4.81596 31.7253 4.81471C31.6965 4.81588 31.6683 4.82373 31.6432 4.83764C31.6171 4.85381 31.5934 4.87351 31.5728 4.89619C31.5502 4.92059 31.53 4.94499 31.5118 4.96987L31.0156 5.65103C30.9989 5.67445 30.9812 5.70177 30.9635 5.73203C30.9465 5.76025 30.9339 5.79084 30.9261 5.82278C30.9188 5.85233 30.9193 5.88327 30.9276 5.91256C30.9374 5.94452 30.9583 5.97201 30.9866 5.99014C31.0123 6.01076 31.0446 6.0215 31.0776 6.0204C31.1075 6.01783 31.1363 6.00776 31.1612 5.99112C31.189 5.97332 31.2138 5.95144 31.235 5.92622C31.2571 5.89939 31.2773 5.87499 31.294 5.85059L31.7902 5.17041ZM31.71 6.09895C31.6422 6.19166 31.5733 6.26778 31.5035 6.32682C31.4409 6.38142 31.366 6.42039 31.2851 6.44051C31.2053 6.45803 31.1223 6.45467 31.0442 6.43075C30.9446 6.39965 30.8512 6.35161 30.7683 6.28876C30.6819 6.2294 30.6061 6.15618 30.544 6.07212C30.4966 6.00521 30.467 5.9275 30.4579 5.8462C30.4496 5.7696 30.4629 5.68811 30.4948 5.60321C30.5292 5.51782 30.5804 5.42902 30.6473 5.33631L31.1391 4.66198C31.2561 4.50097 31.3909 4.41167 31.5448 4.39362C31.6992 4.37508 31.862 4.42777 32.0341 4.55122C32.2068 4.67467 32.3066 4.81129 32.3351 4.96011C32.3636 5.10893 32.3189 5.26458 32.2013 5.42511L31.71 6.09895ZM31.9279 7.14362L33.3758 5.68665L34.1646 6.45856L33.8754 6.74986L33.4308 6.31462L33.1643 6.58299L33.5956 7.00407L33.3054 7.29586L32.8751 6.87428L32.5618 7.189L33.0295 7.64668L32.7408 7.93847L31.9279 7.14362ZM34.0362 8.41323L33.9202 8.50008C33.8976 8.51682 33.877 8.53596 33.8587 8.55717C33.8409 8.57604 33.8275 8.59852 33.8194 8.62304C33.8111 8.64778 33.8099 8.67429 33.8159 8.69965C33.8231 8.73129 33.8376 8.76086 33.8582 8.78601C33.8926 8.82993 33.9334 8.85042 33.9831 8.84554C34.0323 8.84066 34.078 8.82261 34.1198 8.7904C34.1521 8.7684 34.178 8.73847 34.1951 8.70355C34.2102 8.67258 34.2199 8.63923 34.2236 8.60499C34.2272 8.56957 34.2264 8.53384 34.2211 8.49862C34.2172 8.46192 34.214 8.42516 34.2113 8.38835C34.2003 8.30967 34.1927 8.23055 34.1887 8.15121C34.185 8.07983 34.191 8.00829 34.2064 7.93847C34.2226 7.87113 34.2492 7.80868 34.2856 7.75013C34.323 7.69157 34.3775 7.63546 34.4518 7.58081C34.6067 7.46517 34.7552 7.41979 34.8993 7.44761C35.0424 7.47444 35.1713 7.56325 35.2844 7.71255C35.3473 7.7955 35.3897 7.87845 35.4113 7.9614C35.4329 8.04435 35.4349 8.1234 35.4182 8.19951C35.4019 8.27612 35.369 8.34785 35.3179 8.41616C35.2623 8.48727 35.1952 8.54863 35.1192 8.59767L34.8521 8.2444L34.9239 8.18341C34.9491 8.16358 34.9713 8.14025 34.9898 8.11413C35.0071 8.09065 35.0178 8.06303 35.0208 8.0341C35.0219 8.00107 35.0122 7.96857 34.9933 7.9414C34.9662 7.89943 34.9342 7.87455 34.8974 7.86723C34.8575 7.85997 34.8163 7.86818 34.7823 7.89016C34.7282 7.9209 34.6947 7.95945 34.6829 8.00385C34.6704 8.05342 34.6654 8.10457 34.6682 8.1556C34.6761 8.26392 34.6879 8.36053 34.6997 8.44543C34.7124 8.53082 34.7144 8.61133 34.7065 8.68745C34.6979 8.76493 34.673 8.83975 34.6333 8.90702C34.5925 8.97533 34.5216 9.04755 34.4213 9.12318C34.2615 9.24223 34.1075 9.29151 33.9595 9.27053C33.8115 9.24858 33.6762 9.15782 33.5557 8.99729C33.4959 8.92236 33.4493 8.83788 33.418 8.74747C33.3932 8.67503 33.3844 8.59817 33.392 8.52204C33.3991 8.45537 33.4213 8.39115 33.4569 8.33419C33.4928 8.27807 33.5375 8.22977 33.5916 8.18927L33.7672 8.05753L34.0362 8.41323ZM11.0325 23.7739C11.1491 23.7095 11.2568 23.6358 11.1811 23.5056C11.1353 23.425 11.0729 23.3924 10.9858 23.4407C10.8875 23.4963 10.8845 23.5792 10.8801 23.6812C10.8752 23.7886 10.8624 23.9881 10.8343 24.0911C10.8009 24.2184 10.7375 24.2887 10.6263 24.3516C10.3819 24.4897 10.163 24.4004 10.0288 24.1662C9.86453 23.8798 9.9678 23.6861 10.198 23.5563L10.2924 23.5026L10.4291 23.7417L10.3534 23.7842C10.2255 23.85 10.1557 23.9388 10.223 24.0574C10.2811 24.1574 10.3617 24.1745 10.4591 24.1208C10.5358 24.0769 10.5673 24.014 10.5752 23.9281C10.6012 23.7476 10.583 23.5529 10.6563 23.3836C10.6915 23.3107 10.748 23.2501 10.8186 23.2099C11.0394 23.0864 11.2297 23.1406 11.3743 23.3933C11.5927 23.7739 11.2912 23.931 11.1648 24.0042L11.0325 23.7739ZM10.5383 24.9376L11.7604 24.1033L12.202 24.7391L12.0235 24.8625L11.7383 24.4517L11.4304 24.6615L11.6925 25.0401L11.5135 25.1626L11.2514 24.7835L10.8747 25.0416L11.1599 25.4514L10.9809 25.5734L10.5383 24.9376ZM11.8292 25.8315C11.7343 25.9101 11.5873 26.0443 11.7083 26.1887C11.8346 26.34 11.993 26.2131 12.1027 26.1228L12.3953 25.8813C12.4863 25.8067 12.6928 25.6447 12.5615 25.4875C12.4223 25.3216 12.2345 25.4993 12.146 25.5715L11.8292 25.8315ZM11.9168 25.3934C12.2153 25.1626 12.4509 25.0074 12.7332 25.3456C13.0169 25.6837 12.8187 25.8847 12.5355 26.1336L12.3732 26.2673C12.0683 26.5176 11.8268 26.6781 11.5371 26.3307C11.246 25.9838 11.4491 25.7774 11.7535 25.5271L11.9168 25.3934ZM13.7349 26.4678L13.9322 26.662L13.2043 27.391C12.9732 27.6228 12.7873 27.6584 12.5296 27.4051C12.2689 27.1504 12.3033 26.9665 12.5345 26.7342L13.2623 26.0043L13.46 26.1975L12.7484 26.9099C12.6481 27.0109 12.5546 27.1173 12.6889 27.2495C12.8163 27.3754 12.924 27.2812 13.0243 27.1812L13.7349 26.4678ZM13.2771 28.0516L14.2233 26.9177L14.4358 27.0933L13.6292 28.0604L14.0251 28.3859L13.8874 28.5518L13.2771 28.0516ZM14.8371 29.2315L15.6166 27.9794L15.8516 28.1234L15.5433 28.6196L15.8733 28.8211L16.1816 28.3254L16.4177 28.4693L15.6382 29.7228L15.4021 29.5774L15.7587 29.0056L15.4292 28.8036L15.0721 29.3759L14.8371 29.2315ZM16.0872 29.9648L16.7501 28.6484L17.4475 28.9938L17.3506 29.1876L16.9016 28.9641L16.7334 29.2959L17.148 29.5018L17.0506 29.695L16.6365 29.4896L16.4324 29.8956L16.8819 30.1181L16.7841 30.3113L16.0872 29.9648ZM17.7775 29.8087L17.9811 29.8877C18.0677 29.9151 18.1557 29.8853 18.2093 29.7482C18.2698 29.5945 18.2157 29.5438 18.1188 29.5047L17.927 29.431L17.7775 29.8087ZM17.6988 30.0097L17.4667 30.6011L17.2085 30.5001L17.748 29.1295L18.2363 29.3198C18.4596 29.4047 18.5993 29.5472 18.4995 29.7999C18.4404 29.9492 18.3396 30.0917 18.1572 30.0488L18.1557 30.0522C18.3003 30.1317 18.3091 30.2464 18.2565 30.3776C18.2344 30.4347 18.0947 30.768 18.1414 30.8329L18.1316 30.8578L17.8473 30.748C17.8508 30.648 17.9226 30.4821 17.9565 30.3903C17.9885 30.3049 18.0352 30.1908 17.9565 30.1303C17.8941 30.0839 17.8183 30.0561 17.7445 30.0278L17.6988 30.0097ZM18.9888 30.5943C18.9549 30.7114 18.9101 30.9051 19.0931 30.9554C19.2844 31.0085 19.3404 30.8148 19.3793 30.6787L19.4826 30.3157C19.5145 30.203 19.5912 29.9526 19.3935 29.8985C19.184 29.839 19.1309 30.0912 19.0999 30.201L18.9888 30.5943ZM18.8093 30.1834C18.9229 29.8248 19.0276 29.5647 19.4545 29.6853C19.8804 29.8033 19.8332 30.08 19.7417 30.4435L19.6847 30.6455C19.578 31.0232 19.4707 31.2915 19.033 31.1691C18.5944 31.0471 18.6445 30.7631 18.7517 30.385L18.8093 30.1834ZM19.996 31.372L20.2655 29.9243L21.0327 30.0649L20.9928 30.2766L20.4986 30.1859L20.4302 30.5513L20.8856 30.6353L20.8463 30.847L20.3919 30.7641L20.3083 31.2096L20.8025 31.3003L20.7632 31.5121L19.996 31.372ZM21.8879 30.6118C21.9027 30.4821 21.9036 30.3513 21.7517 30.3367C21.6597 30.3288 21.5968 30.3596 21.5869 30.4586C21.5761 30.5699 21.6425 30.6206 21.7241 30.6831C21.8092 30.748 21.9651 30.8739 22.035 30.9554C22.1205 31.0564 22.1422 31.1461 22.1294 31.2745C22.1023 31.5516 21.9032 31.678 21.6337 31.6526C21.3027 31.6204 21.2024 31.4257 21.2279 31.1637L21.2387 31.0564L21.5141 31.0822L21.5058 31.1691C21.4861 31.3106 21.5196 31.4194 21.6548 31.4316C21.7709 31.4428 21.8323 31.3877 21.8432 31.2759C21.8515 31.1905 21.8176 31.1276 21.7517 31.0725C21.6189 30.9466 21.4478 30.85 21.3494 30.6924C21.3106 30.6217 21.2935 30.5413 21.3002 30.4611C21.3248 30.2103 21.4802 30.0878 21.7714 30.1156C22.2105 30.1586 22.1658 30.4933 22.1535 30.6372L21.8879 30.6118ZM23.6146 31.4638C23.6726 31.4618 23.7316 31.4648 23.7803 31.4413C23.8541 31.4057 23.86 31.3091 23.8566 31.2335C23.8507 31.0749 23.8172 31.009 23.6451 31.0163L23.5374 31.0207L23.5551 31.4662L23.6146 31.4638ZM23.5802 30.8026C23.6476 30.8007 23.7341 30.8007 23.7759 30.7441C23.8005 30.706 23.802 30.6538 23.799 30.5831C23.7951 30.4733 23.7695 30.4201 23.6426 30.4215L23.5148 30.4264L23.5285 30.8046L23.5802 30.8026ZM23.2871 31.6921L23.2286 30.221L23.6751 30.2034C23.7946 30.1986 23.9112 30.202 23.9948 30.2991C24.0607 30.3776 24.0735 30.4611 24.0779 30.5611C24.0828 30.688 24.0607 30.8153 23.9121 30.8758V30.8802C24.069 30.8953 24.1339 31.0227 24.1413 31.213C24.1433 31.2745 24.1428 31.335 24.1285 31.3935C24.0769 31.5828 23.9726 31.6653 23.7754 31.6736L23.2871 31.6921ZM24.8623 30.9944L25.0979 30.9641L24.97 30.5591C24.9474 30.4928 24.9321 30.4274 24.9154 30.3601C24.9089 30.3278 24.9012 30.2957 24.8923 30.2639L24.8888 30.2649C24.8888 30.2962 24.8888 30.3298 24.8918 30.3635C24.8923 30.4318 24.8952 30.4991 24.8903 30.5694L24.8623 30.9944ZM24.5284 31.6316L24.6892 30.1264L25.0595 30.0785L25.5842 31.496L25.2892 31.5331L25.1687 31.173L24.847 31.214L24.8234 31.5936L24.5284 31.6316ZM26.3096 30.2986C26.2831 30.1698 26.2423 30.0463 26.0937 30.0785C26.0033 30.0985 25.9536 30.1478 25.9757 30.2454C25.9998 30.3547 26.079 30.382 26.1759 30.4167C26.2767 30.4523 26.466 30.524 26.5575 30.5796C26.6701 30.6494 26.7188 30.7294 26.7464 30.8539C26.8073 31.1261 26.6578 31.3076 26.3933 31.3662C26.0682 31.4379 25.9123 31.2832 25.8547 31.0266L25.8311 30.9202L26.1016 30.8617L26.1203 30.9461C26.1464 31.0866 26.2113 31.1783 26.3446 31.1496C26.4587 31.1242 26.499 31.0534 26.4749 30.9432C26.4567 30.8602 26.4046 30.8099 26.3244 30.7777C26.1582 30.6997 25.9654 30.6606 25.8223 30.5406C25.7635 30.4852 25.7223 30.414 25.7038 30.3357C25.6497 30.0907 25.7578 29.9258 26.0431 29.8624C26.4739 29.7672 26.5364 30.0995 26.5703 30.2405L26.3096 30.2986ZM27.2859 31.1071L26.8383 29.7033L27.5799 29.4701L27.6463 29.6765L27.1673 29.8272L27.28 30.1805L27.7216 30.041L27.7875 30.2478L27.3458 30.3864L27.4835 30.8187L27.9635 30.668L28.029 30.8739L27.2859 31.1071ZM28.6919 30.3898C28.7445 30.3674 28.8016 30.3508 28.8384 30.3118C28.895 30.2527 28.867 30.159 28.8384 30.0912C28.777 29.9439 28.7219 29.8951 28.563 29.96L28.4637 30.0005L28.6368 30.4118L28.6919 30.3898ZM28.4288 29.7814C28.4908 29.7565 28.5724 29.7277 28.5911 29.6594C28.6009 29.6155 28.5852 29.5662 28.5576 29.5008C28.5153 29.3983 28.4721 29.3579 28.3535 29.4023L28.235 29.452L28.3811 29.8014L28.4288 29.7814ZM28.4637 30.7172L27.8952 29.3579L28.3083 29.1876C28.418 29.1417 28.5291 29.1046 28.6408 29.1676C28.7293 29.2183 28.7716 29.292 28.8109 29.3837C28.8601 29.5018 28.8832 29.6291 28.7657 29.736L28.7671 29.7394C28.9201 29.7004 29.0239 29.798 29.0986 29.9731C29.1222 30.0292 29.1419 30.0878 29.1497 30.1468C29.1675 30.3425 29.0991 30.4557 28.9162 30.5318L28.4637 30.7172ZM29.6952 29.5213L29.9052 29.411L29.6425 29.0768C29.5983 29.0222 29.5624 28.9646 29.5225 28.9085C29.5053 28.8802 29.4857 28.8519 29.4684 28.8265L29.4645 28.828C29.4753 28.8572 29.4881 28.8889 29.5014 28.9192C29.5265 28.9836 29.553 29.0461 29.5732 29.1124L29.6952 29.5213ZM29.6056 30.2332L29.2289 28.7665L29.5599 28.5937L30.5469 29.7423L30.2843 29.878L30.0448 29.5823L29.7576 29.7331L29.8673 30.0961L29.6056 30.2332ZM30.8937 29.5325L30.091 28.2946L30.3242 28.1453L31.0078 29.2032L31.441 28.9275L31.5591 29.109L30.8937 29.5325ZM31.923 28.8519L31.022 27.6828L31.2419 27.5154L32.0105 28.5147L32.4197 28.2039L32.551 28.3751L31.923 28.8519ZM33.6753 26.624C33.693 26.6454 33.7136 26.6669 33.7308 26.6874C33.9133 26.8865 33.9964 27.0972 33.7785 27.3129C33.4564 27.6335 33.2312 27.452 32.9518 27.1743L32.8013 27.026C32.5422 26.7528 32.3641 26.5351 32.6764 26.2238C32.8549 26.0521 33.0423 26.0443 33.2356 26.2077C33.2655 26.2306 33.2936 26.2557 33.3197 26.2829L33.1264 26.4746C33.0512 26.4161 32.9322 26.2843 32.8353 26.381C32.6818 26.5337 32.8781 26.703 32.9582 26.783L33.2503 27.0714C33.3364 27.1568 33.4859 27.29 33.6202 27.1563C33.7279 27.0489 33.5415 26.8909 33.478 26.8196L33.6753 26.624ZM34.3643 26.6474L33.2277 25.7008L33.4058 25.4895L34.3756 26.2975L34.706 25.9072L34.8733 26.0462L34.3643 26.6474ZM34.3111 24.3072L34.47 24.0823L35.3188 24.6703C35.5878 24.8566 35.6552 25.0313 35.4482 25.3275C35.2392 25.6247 35.0498 25.6237 34.7803 25.4368L33.9305 24.8493L34.0893 24.6239L34.919 25.1977C35.0356 25.2782 35.1585 25.3514 35.2662 25.1982C35.3695 25.0518 35.2578 24.964 35.1408 24.8815L34.3111 24.3072ZM35.936 24.0935C35.965 24.0437 35.9985 23.9959 36.0054 23.9423C36.0123 23.8608 35.9331 23.8042 35.8677 23.7681C35.7275 23.6895 35.6537 23.6851 35.5692 23.8325L35.517 23.9252L35.908 24.1448L35.936 24.0935ZM35.3523 23.7739C35.3862 23.7163 35.4319 23.6436 35.4049 23.5787C35.3847 23.5373 35.3419 23.5099 35.2805 23.4748C35.1841 23.4207 35.1236 23.4128 35.0587 23.5221L34.9947 23.6324L35.3272 23.8193L35.3523 23.7739ZM35.9606 24.4902L34.6692 23.7661L34.8895 23.3797C34.9475 23.2772 35.0124 23.1796 35.1388 23.1616C35.2411 23.1459 35.3198 23.1791 35.4069 23.2274C35.52 23.2909 35.6159 23.3763 35.5893 23.5334L35.5933 23.5353C35.6887 23.4104 35.8318 23.4236 35.9985 23.5173C36.0526 23.5475 36.1042 23.5807 36.1475 23.6236C36.2818 23.7661 36.299 23.8979 36.2006 24.0686L35.9606 24.4902Z" fill="white"/>
<path d="M23.1069 28.8779C16.389 28.8779 10.9434 23.4745 10.9434 16.8093C10.9434 10.1441 16.389 4.74121 23.1069 4.74121C29.8248 4.74121 35.2715 10.1446 35.2715 16.8093C35.2715 23.4745 29.8253 28.8779 23.1069 28.8779Z" fill="#570514"/>
<path d="M27.5238 27.382C21.635 29.8012 14.8851 27.0278 12.4458 21.1853C10.0075 15.3442 12.8034 8.64629 18.6911 6.22662C24.5789 3.80792 31.3303 6.58086 33.7676 12.4224C36.2069 18.265 33.4115 24.9624 27.5238 27.382Z" fill="white"/>
<path d="M13.1895 11.9419C13.216 11.8453 13.2937 11.755 13.3616 11.7384C13.4098 11.7267 13.4403 11.7555 13.4457 11.8067C13.4467 11.8336 13.4441 11.8606 13.4378 11.8868C13.3591 12.1585 13.1988 13.0149 13.1988 13.0149C13.1988 13.0149 12.7395 13.4925 12.5221 13.7092C12.4655 13.7648 12.4045 13.7473 12.3863 13.6706C12.3793 13.6271 12.3821 13.5826 12.3944 13.5403C12.4068 13.4979 12.4284 13.4588 12.4577 13.4257C12.6293 13.2525 12.8039 13.0749 12.9839 12.8831C13.0331 12.5645 13.1019 12.2498 13.1895 11.9419ZM13.6271 12.1429C13.6444 12.0419 13.725 11.9385 13.8047 11.9121C13.8686 11.8916 13.9129 11.9224 13.9227 11.9839C13.9252 12.005 13.9245 12.0263 13.9208 12.0473C13.8691 12.3366 13.8057 13.2256 13.8057 13.2256C13.8057 13.2256 13.3109 13.797 13.0729 14.0532C13.01 14.1205 12.9322 14.1137 12.9008 14.0366C12.8688 13.9585 12.8929 13.8414 12.9559 13.7731C13.1403 13.5711 13.3296 13.3535 13.5239 13.1276C13.5352 12.7972 13.5691 12.4703 13.6271 12.1429ZM14.2458 12.2971C14.2512 12.2433 14.2702 12.1916 14.3011 12.147C14.3319 12.1024 14.3737 12.0662 14.4224 12.0419C14.503 12.0097 14.566 12.04 14.5798 12.1122C14.5828 12.1266 14.5841 12.1414 14.5837 12.1561C14.5694 12.444 14.6235 13.3428 14.6235 13.3428C14.6235 13.3428 14.1086 13.9956 13.8563 14.3025C13.7909 14.3835 13.6965 14.3904 13.6449 14.3181C13.5962 14.2464 13.6085 14.1225 13.6744 14.041C13.8735 13.7946 14.0707 13.5496 14.2694 13.2915C14.2378 12.961 14.23 12.6287 14.2463 12.2971M15.0101 12.3488C15.0017 12.2473 15.0774 12.1229 15.1807 12.0722C15.2761 12.0253 15.3617 12.0561 15.3824 12.1405L15.3878 12.1649C15.4143 12.4557 15.6061 13.3418 15.6061 13.3418C15.6061 13.3418 15.0858 14.082 14.8227 14.4289C14.7543 14.5216 14.6417 14.5411 14.5738 14.4748C14.507 14.4089 14.5085 14.2796 14.5758 14.1879C14.7775 13.9166 14.9801 13.6301 15.1812 13.3398C15.0976 13.011 15.0396 12.6811 15.0096 12.3488M15.9543 12.4342C15.9406 12.3888 15.9279 12.3431 15.9164 12.2971C15.8894 12.1995 15.9587 12.0663 16.0719 12.0039C16.185 11.937 16.3001 11.9663 16.3266 12.0649C16.3389 12.1107 16.3517 12.1551 16.3655 12.1985C16.4358 12.4328 16.754 13.1998 16.754 13.1998C16.754 13.1998 16.2455 14.0146 15.9853 14.4118C15.9165 14.5167 15.7886 14.5548 15.6976 14.4992C15.6096 14.4426 15.5929 14.3123 15.6602 14.2059C15.8642 13.8925 16.0641 13.5765 16.2597 13.2579C16.1368 12.9846 16.0355 12.7079 15.9538 12.4342M17.4887 13.0334C17.2822 12.7358 17.1031 12.4323 16.9571 12.1229C16.9113 12.0278 16.9733 11.8916 17.0909 11.8155C17.2133 11.7409 17.3466 11.7535 17.3933 11.8477C17.5236 12.1156 18.042 12.9197 18.042 12.9197C18.042 12.9197 17.5782 13.8004 17.325 14.2308C17.2571 14.3459 17.1135 14.4011 17.0043 14.3542C16.8961 14.3074 16.8617 14.1761 16.9286 14.0605C17.1238 13.7253 17.3102 13.3789 17.4892 13.0334M18.8411 12.6679C18.5797 12.4063 18.3366 12.1274 18.1133 11.8331C18.0489 11.7467 18.0936 11.6057 18.2156 11.5198C18.3385 11.433 18.492 11.432 18.5579 11.5189C18.7448 11.7618 19.4333 12.4952 19.4333 12.4952C19.4333 12.4952 19.0408 13.414 18.818 13.8775C18.7561 14.0029 18.6046 14.0766 18.4762 14.0434C18.3484 14.0107 18.2933 13.8839 18.3508 13.7604C18.5264 13.3911 18.6902 13.029 18.8411 12.6679ZM19.8833 13.2896C20.0259 12.9095 20.1538 12.5362 20.2639 12.1673C19.946 11.938 19.6413 11.6912 19.3511 11.4281C19.2666 11.3495 19.2936 11.2095 19.4131 11.1144C19.5311 11.0187 19.6998 11.0041 19.7849 11.0821C20.0269 11.2968 20.8678 11.8267 20.8678 11.8267C20.8678 11.8267 20.5846 12.8826 20.4026 13.3608C20.3534 13.4906 20.1975 13.5784 20.0539 13.5599C19.9123 13.5404 19.8346 13.4194 19.8833 13.2896ZM21.6675 12.9275C21.5165 12.9197 21.4211 12.808 21.456 12.6767C21.5531 12.308 21.6331 11.9349 21.6955 11.5589C21.3281 11.363 20.9699 11.1507 20.6219 10.9226C20.5201 10.8543 20.5265 10.7186 20.6396 10.6201C20.7523 10.5205 20.9249 10.4932 21.0272 10.561C21.3193 10.7504 22.2822 11.2119 22.2822 11.2119C22.2822 11.2119 22.1352 12.2268 22.0078 12.7045C21.9714 12.8353 21.8209 12.9339 21.6675 12.9275ZM22.9934 11.9599C23.0363 11.5983 23.0616 11.2349 23.0691 10.8709C22.6661 10.7086 22.2679 10.5348 21.875 10.3498C21.758 10.2932 21.7408 10.1643 21.8377 10.0624C21.9336 9.96039 22.1086 9.92281 22.2267 9.97795C22.5512 10.1287 23.6081 10.523 23.6081 10.523C23.6081 10.523 23.6032 11.4666 23.5525 11.937C23.5378 12.0649 23.4011 12.1732 23.2476 12.1795C23.0937 12.1868 22.9791 12.0878 22.9934 11.9599ZM24.4122 11.1534C24.4029 10.8016 24.3655 10.4591 24.3114 10.1316C23.885 10.0047 23.4619 9.8671 23.0426 9.71886C22.9132 9.67397 22.8753 9.55491 22.9565 9.45342C23.0371 9.35388 23.2039 9.30899 23.3312 9.35388C23.6834 9.47831 24.7904 9.80034 24.7904 9.80034C24.7904 9.80034 24.9365 10.6615 24.9507 11.1031C24.9527 11.2246 24.8366 11.3334 24.6876 11.3471C24.5386 11.3622 24.4152 11.2749 24.4122 11.1534ZM25.6491 10.318C25.582 9.99917 25.4926 9.68532 25.3815 9.37877C24.9443 9.27923 24.512 9.17627 24.0896 9.06893C23.9563 9.0338 23.8929 8.92743 23.9543 8.82984C24.0119 8.73372 24.1673 8.68199 24.2986 8.71713C24.6596 8.80788 25.7853 9.06942 25.7853 9.06942C25.7853 9.06942 26.0558 9.82816 26.1458 10.2375C26.1709 10.3498 26.0804 10.4586 25.9441 10.4815C25.8064 10.503 25.6737 10.4312 25.6491 10.318ZM26.6582 9.4744C26.5428 9.18265 26.4044 8.90039 26.2441 8.63027C25.8222 8.56391 25.3983 8.49121 24.9724 8.41314C24.8366 8.38875 24.7579 8.2936 24.7958 8.20138C24.8342 8.11111 24.9714 8.05695 25.1037 8.0833C25.4676 8.15112 26.5692 8.34239 26.5692 8.34239C26.5692 8.34239 26.7768 8.68687 26.8697 8.86936C26.9543 9.0338 27.032 9.20457 27.1013 9.38023C27.1431 9.48026 27.0768 9.58468 26.9553 9.61054C26.8333 9.63688 26.6995 9.57784 26.6582 9.4744ZM27.4348 8.6615C27.2734 8.40086 27.0943 8.15143 26.8987 7.91496C26.493 7.87158 26.0876 7.82522 25.6825 7.7759C25.5517 7.75882 25.4568 7.67831 25.473 7.59341C25.4878 7.51046 25.6058 7.45679 25.7346 7.47143C26.0843 7.51534 27.1353 7.63977 27.1353 7.63977C27.1353 7.63977 27.6094 8.22529 27.814 8.55318C27.8174 8.55708 27.8189 8.5605 27.8208 8.56538C27.8661 8.65125 27.8257 8.74006 27.7274 8.76933C27.6734 8.78345 27.6164 8.78067 27.5641 8.76136C27.5118 8.74206 27.4668 8.70718 27.4353 8.6615M27.9723 7.88617C27.7815 7.65684 27.569 7.44069 27.3467 7.23917C26.9779 7.21965 26.5982 7.19526 26.2068 7.16744C26.0828 7.15866 25.9781 7.0884 25.9756 7.0113C25.9707 6.93519 26.0691 6.88103 26.192 6.89176C26.5264 6.91616 27.5051 6.98447 27.5051 6.98447C27.5051 6.98447 28.051 7.49046 28.291 7.77639C28.2983 7.7845 28.3047 7.79333 28.3102 7.80274C28.352 7.87349 28.3298 7.94716 28.2531 7.974C28.1636 8.00328 28.0397 7.96619 27.9728 7.88617M28.3033 7.17086C28.0771 6.96837 27.8489 6.78539 27.6079 6.6151C27.2715 6.61168 26.9213 6.60583 26.5653 6.59851C26.4473 6.59705 26.3351 6.53849 26.3135 6.46921C26.2933 6.40138 26.3695 6.34966 26.4856 6.35162C26.791 6.35893 27.691 6.37845 27.691 6.37845C27.691 6.37845 28.2836 6.80784 28.5585 7.05571C28.5718 7.06785 28.5837 7.08143 28.5939 7.0962C28.6313 7.15183 28.6249 7.20892 28.5684 7.23575C28.4971 7.26796 28.3785 7.23868 28.3028 7.17037M33.0255 21.6674C32.9984 21.7635 32.9212 21.8543 32.8529 21.8714C32.8052 21.8821 32.7747 21.8538 32.7693 21.8026C32.7684 21.7756 32.7712 21.7487 32.7776 21.7226C32.8553 21.4518 33.0161 20.5935 33.0161 20.5935C33.0161 20.5935 33.4755 20.1163 33.6929 19.9006C33.7484 19.843 33.8104 19.8616 33.8286 19.9396C33.8357 19.9829 33.833 20.0271 33.8206 20.0691C33.8083 20.1112 33.7866 20.1499 33.7573 20.1826C33.5852 20.3568 33.4111 20.5344 33.2301 20.7262C33.1809 21.0433 33.1121 21.3595 33.0255 21.6674ZM32.5878 21.4664C32.5706 21.5664 32.4899 21.6708 32.4093 21.6962C32.3463 21.7172 32.3016 21.6869 32.2912 21.6259C32.2893 21.6043 32.2903 21.5825 32.2942 21.561C32.3449 21.2722 32.4083 20.3832 32.4083 20.3832C32.4083 20.3832 32.904 19.8118 33.1416 19.5556C33.2055 19.4873 33.2822 19.4956 33.3137 19.5727C33.3452 19.6503 33.322 19.7679 33.2581 19.8362C33.0747 20.0377 32.8848 20.2558 32.6911 20.4812C32.68 20.8116 32.6455 21.1408 32.5878 21.4664ZM31.9691 21.3122C31.9637 21.366 31.9446 21.4176 31.9138 21.4622C31.8829 21.5068 31.8412 21.543 31.7926 21.5674C31.7119 21.5996 31.649 21.5693 31.6352 21.4966C31.6313 21.483 31.6308 21.4683 31.6313 21.4522C31.646 21.1644 31.5914 20.2656 31.5914 20.2656C31.5914 20.2656 32.1063 19.6132 32.3586 19.3068C32.4245 19.2253 32.518 19.219 32.5701 19.2912C32.6183 19.3624 32.6065 19.4863 32.5406 19.5673C32.3388 19.815 32.1401 20.0652 31.9445 20.3178C31.9775 20.6506 31.9844 20.9863 31.9691 21.3122ZM31.2049 21.26C31.2127 21.3625 31.1375 21.4859 31.0337 21.5371C30.9388 21.584 30.8528 21.5523 30.8321 21.4698L30.8272 21.4444C30.8001 21.1531 30.6078 20.267 30.6078 20.267C30.6078 20.267 31.1291 19.5264 31.3913 19.1794C31.4601 19.0867 31.5732 19.0672 31.6401 19.1345C31.708 19.2004 31.706 19.3287 31.6382 19.4215C31.4375 19.6927 31.2349 19.9782 31.0332 20.269C31.1168 20.5979 31.1754 20.9277 31.2054 21.2595M30.2606 21.1746C30.2744 21.2205 30.2867 21.2658 30.2985 21.3122C30.3246 21.4098 30.2562 21.543 30.1431 21.6054C30.0295 21.6708 29.9149 21.6425 29.8883 21.5435C29.8756 21.4996 29.8633 21.4542 29.8495 21.4098C29.7787 21.1766 29.461 20.4085 29.461 20.4085C29.461 20.4085 29.969 19.5947 30.2296 19.1975C30.2985 19.0931 30.4259 19.054 30.5173 19.1101C30.6049 19.1663 30.6216 19.297 30.5537 19.4029C30.3491 19.7201 30.1505 20.0309 29.9547 20.351C30.0777 20.6232 30.1795 20.9009 30.2611 21.1746M28.7252 20.5759C28.9328 20.8735 29.1118 21.1766 29.2574 21.4864C29.3026 21.5806 29.2411 21.7172 29.1231 21.7938C29.0011 21.8689 28.8674 21.8543 28.8216 21.7611C28.6908 21.4932 28.1739 20.6891 28.1739 20.6891C28.1739 20.6891 28.6362 19.8089 28.89 19.378C28.9579 19.2629 29.101 19.2072 29.2106 19.2551C29.3188 19.3014 29.3533 19.4332 29.2864 19.5478C29.0916 19.8862 28.9042 20.229 28.7252 20.5759ZM27.3748 20.9404C27.6352 21.2028 27.878 21.4819 28.1017 21.7757C28.1656 21.8626 28.1213 22.0021 27.9989 22.089C27.8759 22.1768 27.7235 22.1778 27.6571 22.0905C27.4702 21.847 26.7817 21.1141 26.7817 21.1141C26.7817 21.1141 27.1736 20.1963 27.3969 19.7303C27.4579 19.6059 27.6103 19.5317 27.7387 19.5644C27.8666 19.5976 27.9207 19.7254 27.8631 19.8484C27.688 20.2178 27.5253 20.5803 27.3748 20.9404ZM26.3312 20.3188C26.1886 20.6998 26.0612 21.0731 25.95 21.4415C26.2815 21.6796 26.5894 21.9319 26.8638 22.1812C26.9474 22.2593 26.9218 22.3983 26.8018 22.4935C26.6838 22.5901 26.5156 22.6047 26.4291 22.5267C26.1876 22.312 25.3471 21.7831 25.3471 21.7831C25.3471 21.7831 25.6294 20.7267 25.8119 20.248C25.861 20.1177 26.0164 20.0299 26.161 20.0494C26.3017 20.0699 26.3799 20.1895 26.3312 20.3188ZM24.5465 20.6828C24.6984 20.6891 24.7938 20.8013 24.7579 20.9316C24.6611 21.3007 24.5814 21.6741 24.5189 22.0504C24.8996 22.2564 25.2556 22.4608 25.5925 22.6862C25.6948 22.7541 25.6884 22.8897 25.5748 22.9892C25.4627 23.0883 25.2896 23.1146 25.1873 23.0478C24.8952 22.8585 23.9327 22.3979 23.9327 22.3979C23.9327 22.3979 24.0788 21.3825 24.2071 20.9043C24.2435 20.774 24.394 20.6754 24.5465 20.6828ZM23.2211 21.6489C23.1779 22.0105 23.1528 22.3739 23.1458 22.7379C23.5634 22.9048 23.9652 23.0844 24.3399 23.26C24.4565 23.3157 24.4732 23.443 24.3773 23.5469C24.2814 23.6484 24.1063 23.6865 23.9873 23.6314C23.6637 23.4796 22.6063 23.0863 22.6063 23.0863C22.6063 23.0863 22.6117 22.1427 22.6634 21.6713C22.6776 21.5449 22.8129 21.4361 22.9668 21.4303C23.1222 21.422 23.2358 21.5205 23.2211 21.6489ZM21.8027 22.4559C21.8126 22.8072 21.8485 23.1503 21.9031 23.4757C22.3368 23.6065 22.7603 23.7441 23.1719 23.8895C23.3007 23.9349 23.3396 24.0554 23.2589 24.1544C23.1778 24.2559 23.0111 24.3008 22.8837 24.2559C22.5316 24.131 21.425 23.809 21.425 23.809C21.425 23.809 21.2785 22.9478 21.2637 22.5052C21.2618 22.3842 21.3783 22.2754 21.5268 22.2603C21.6759 22.2471 21.8003 22.3335 21.8027 22.4559ZM20.5649 23.2908C20.6367 23.6236 20.7242 23.9339 20.8334 24.2305C21.2696 24.3306 21.7024 24.433 22.1254 24.5399C22.2586 24.575 22.3221 24.6814 22.2606 24.779C22.2026 24.8756 22.0486 24.9263 21.9159 24.8922C21.5544 24.8009 20.4287 24.5399 20.4287 24.5399C20.4287 24.5399 20.1592 23.7816 20.0692 23.3718C20.0431 23.2596 20.1341 23.1507 20.2708 23.1283C20.4085 23.1059 20.5413 23.1776 20.5649 23.2908ZM19.5557 24.1349C19.6717 24.4261 19.8102 24.708 19.9698 24.9781C20.3923 25.0454 20.8167 25.1176 21.2426 25.1962C21.3778 25.2206 21.456 25.3152 21.4191 25.4079C21.3808 25.4972 21.2436 25.5519 21.1108 25.5255C20.6228 25.438 20.1346 25.3514 19.6462 25.2659C19.6462 25.2659 19.4382 24.9224 19.3453 24.7395C19.2607 24.575 19.1829 24.4042 19.1126 24.2291C19.0718 24.1286 19.1377 24.0241 19.2592 23.9978C19.3821 23.9724 19.5149 24.032 19.5557 24.1349ZM18.7802 24.9473C18.9469 25.2152 19.1229 25.4606 19.3162 25.6943C19.7218 25.7372 20.1271 25.7834 20.5319 25.8329C20.6628 25.849 20.7577 25.9305 20.7419 26.0149C20.7272 26.0993 20.6091 26.1535 20.4798 26.1384C20.1306 26.094 19.0787 25.9695 19.0787 25.9695C19.0787 25.9695 18.6051 25.384 18.4 25.0556C18.397 25.0521 18.395 25.0479 18.3941 25.0434C18.3489 24.9581 18.3882 24.8688 18.4866 24.839C18.5408 24.825 18.598 24.8279 18.6506 24.8473C18.7031 24.8667 18.7483 24.9016 18.7802 24.9473ZM18.2426 25.7227C18.4335 25.952 18.6459 26.1686 18.8672 26.3696C19.2366 26.3897 19.6162 26.4136 20.0082 26.4414C20.1326 26.4502 20.2369 26.5199 20.2403 26.5975C20.2437 26.6741 20.1454 26.7278 20.0239 26.7176C19.688 26.6922 18.7094 26.6244 18.7094 26.6244C18.7094 26.6244 18.1635 26.1179 17.924 25.8324C17.9166 25.8243 17.91 25.8155 17.9043 25.8061C17.8625 25.7363 17.8846 25.6621 17.9618 25.6343C18.0513 25.6055 18.1753 25.6441 18.2421 25.7227M17.9117 26.4389C18.1379 26.6409 18.3661 26.8244 18.6066 26.9927C18.9425 26.9966 19.2936 27.0025 19.6492 27.0108C19.7672 27.0123 19.8793 27.0708 19.901 27.1401C19.9211 27.2074 19.8454 27.2596 19.7303 27.2572C19.4239 27.2494 18.5239 27.2304 18.5239 27.2304C18.5239 27.2304 17.9313 26.801 17.6564 26.5531C17.6435 26.541 17.6315 26.5279 17.6205 26.5141C17.5831 26.457 17.591 26.3999 17.6466 26.3736C17.7174 26.3418 17.8364 26.3701 17.9122 26.4389" fill="#7D0521"/>
<path d="M41.1981 11.1091L41.1676 11.1115L39.6972 12.73L39.4454 11.2676L35.7702 11.6033L35.5725 12.0093C35.2676 11.8263 34.8948 11.7302 34.4871 11.7302C34.406 11.7302 34.3233 11.7351 34.2422 11.7414L31.9283 11.9522C31.1827 12.0205 30.3413 12.4011 29.6621 12.973C29.2824 12.4968 28.6278 12.2528 27.8892 12.3206L25.5748 12.5309L12.6888 13.7054L14.1224 12.1293L7.66559 12.7188L7.29085 13.4858L3.59157 13.8225L1.93766 17.1961L2.70487 17.1268L0 22.6263L4.19205 22.2457L5.04187 20.5174L6.06579 23.5163L10.0026 23.1576L9.52606 21.7597L10.9818 21.6275L12.8029 17.925L12.6249 21.4767L15.9922 21.1703L16.0281 21.1669L16.5563 20.393L16.5204 21.121L19.8862 20.8146L19.9221 20.8117L20.734 19.6221C20.7586 19.6718 20.7852 19.7197 20.8142 19.766C21.1786 20.3442 21.8485 20.6345 22.6865 20.5589L24.9841 20.351C25.7376 20.2818 26.5849 19.8997 27.2646 19.3249C27.6034 19.7572 28.139 19.9934 28.7862 19.9934C28.8678 19.9934 28.9529 19.9895 29.0395 19.9812L31.3372 19.7724C31.795 19.7304 32.2765 19.5811 32.7412 19.34L32.5848 19.6592L36.7764 19.2771L37.0075 18.8092L37.2559 20.2549L38.268 19.1424L42.0007 18.8009L46 10.6714L41.1981 11.1091Z" fill="#570514"/>
<path d="M6.92185 15.33L7.40971 15.2852L6.38972 16.4064L6.92185 15.33ZM8.3633 19.8957L7.77315 18.1664L10.9123 14.7143L8.3633 19.8957ZM26.3177 15.0061L25.0833 17.5165L24.2571 17.5921L25.4915 15.0812L26.3177 15.0061ZM32.6707 14.4279L31.4354 16.9393L30.6101 17.0139L31.844 14.503L32.6707 14.4279ZM41.4581 11.4846L41.4286 11.488L39.3498 13.7735L38.9947 11.7086L36.1251 11.9706L35.7194 12.8021C35.7003 12.7597 35.6781 12.7187 35.653 12.6796C35.4292 12.3234 35.0171 12.1272 34.4938 12.1272C34.4289 12.1272 34.3596 12.1307 34.2912 12.137L31.9773 12.3478C31.0911 12.4278 30.0928 13.0138 29.4706 13.7974C29.4602 13.6062 29.4015 13.4206 29.3 13.2578C29.0762 12.9016 28.6641 12.7064 28.1393 12.7064C28.0744 12.7064 28.0066 12.7098 27.9382 12.7152L25.6238 12.927C25.1763 12.9675 24.6766 13.1456 24.2104 13.4266L24.4809 13.0304L21.4657 13.3056L19.9938 15.4623L20.096 13.4291L17.5707 13.6603L16.0992 15.8155L16.201 13.7843L11.3549 14.2273L12.788 12.6518L8.02052 13.087L7.64429 13.8531L3.94453 14.1897L2.84586 16.4328L3.61551 16.3635L0.910645 21.8625L3.8378 21.5961L5.1322 18.9637L6.44137 22.8008L9.26722 22.5427L8.78968 21.1448L10.627 20.9784L12.9665 16.2235L13.4258 16.1805L13.1976 20.7427L15.722 20.5129L17.1925 18.3587L17.0922 20.387L19.6161 20.1577L21.7013 17.1027L21.3137 17.8917C21.0447 18.4392 21.0304 18.9535 21.2744 19.3404C21.4986 19.6961 21.9103 19.8927 22.4321 19.8927C22.4985 19.8927 22.5668 19.8888 22.6362 19.883L24.9343 19.6736C25.8328 19.5922 26.8386 19.0032 27.4572 18.2147C27.4685 18.4162 27.5261 18.6002 27.6279 18.7622C27.8802 19.1623 28.3695 19.3609 28.9897 19.3048L31.2868 19.0954C32.3934 18.9944 33.6529 18.1166 34.154 17.0964L35.5974 14.1619L35.8335 14.1405L33.495 18.8944L36.4222 18.629L37.2582 16.9319L37.602 18.9286L39.4885 16.8548L38.7193 18.4197L41.6465 18.1528L45.0886 11.1553L41.4581 11.4846Z" fill="#EB008A"/>
<path d="M11.9 13.0927L8.25634 13.4254L7.5275 14.9141L8.29764 14.8448L5.25146 18.194L6.69291 22.4171L8.77813 22.2268L7.36274 18.0818L11.9 13.0927ZM41.6025 11.8318L39.1194 14.5628L38.6955 12.0958L36.3614 12.3086L35.636 13.7982L36.4406 13.7226L34.1016 18.4795L36.1868 18.2892L37.4271 15.7749L37.8334 18.1389L40.939 14.7248L39.326 18.0037L41.4112 17.8134L44.4824 11.5698L41.6025 11.8318Z" fill="white"/>
<path d="M11.3781 14.585L8.30681 20.8292L10.3915 20.6394L13.4633 14.3948L11.3781 14.585ZM4.18064 14.5294L3.45131 16.0176L4.22196 15.9488L1.51709 21.4469L3.6018 21.2581L7.03945 14.2689L4.18064 14.5294ZM25.319 17.8557L23.6508 18.0074L25.256 14.7427L26.9237 14.5914L25.319 17.8557ZM27.9717 13.0729L25.6573 13.2832C24.7342 13.3676 23.6636 14.0917 23.1708 14.9325L21.6384 18.0494C21.1938 18.9535 21.6261 19.6157 22.6028 19.5259L24.9009 19.3166C25.8791 19.2273 27.0319 18.4227 27.4765 17.518L28.9361 14.5494C29.3812 13.6443 28.9494 12.9841 27.9717 13.0729ZM31.6715 17.277L30.0028 17.4292L31.609 14.1649L33.2767 14.0127L31.6715 17.277ZM34.3247 12.4938L32.0103 12.705C31.0877 12.789 30.0161 13.5126 29.5238 14.3543L27.9914 17.4722C27.5468 18.3753 27.9791 19.0355 28.9563 18.9477L31.2539 18.7384C32.2311 18.6491 33.3844 17.844 33.829 16.9398L35.2891 13.9707C35.7342 13.0661 35.3024 12.4054 34.3247 12.4938ZM21.6689 13.6467L19.5689 16.7242L19.7145 13.8248L17.7743 14.0015L15.6744 17.0784L15.8195 14.1801L13.7293 14.3718L12.9995 15.8605L13.808 15.7859L13.5798 20.3476L15.5185 20.1714L17.617 17.0965L17.4743 19.9938L19.4135 19.8162L23.7536 13.4569L21.6689 13.6467Z" fill="white"/>
<path d="M4.22207 15.9488L5.63105 15.1091L3.81633 15.2735L3.45142 16.0181L4.22207 15.9488ZM8.29756 14.8451L10.1472 13.9683L7.89184 14.1703L7.52742 14.9144L8.29756 14.8451Z" fill="#D1D1D1"/>
<path d="M11.9 13.0927L10.1472 13.968L6.32007 18.177L7.73644 22.3229L6.69285 22.4171L8.77807 22.2268L7.36267 18.0818L11.9 13.0927ZM37.1689 14.2788L35.5101 17.6407L34.1015 18.4795L36.1868 18.2892L37.4271 15.7749L37.1689 14.2788ZM38.2292 15.5421L39.1193 14.5628L38.6954 12.0958L37.7526 12.776L38.2292 15.5421ZM43.0734 12.4096L40.7349 17.165L39.3264 18.0042L41.4106 17.8139L44.4823 11.5698L43.0734 12.4096ZM42.0647 12.4354L38.4598 16.3965L37.8333 18.1389L40.939 14.7248L42.0647 12.4354Z" fill="#D1D1D1"/>
<path d="M12.0503 15.2443L9.71432 19.9924L8.3073 20.8293L10.392 20.6394L13.4638 14.3948L12.0503 15.2443ZM5.63095 15.1092L2.92608 20.6063L1.51709 21.447L3.6018 21.2581L7.03945 14.269L5.63095 15.1092ZM18.4486 18.3652L19.5689 16.7243L19.7145 13.8249L18.635 14.6364L18.4486 18.3652ZM17.6927 15.5522L14.9923 19.5094L13.5798 20.3477L15.5185 20.1715L17.617 17.0965L17.6927 15.5522ZM22.1926 14.3114L18.8868 19.1556L17.4739 19.9934L19.4135 19.8163L23.7536 13.457L22.1926 14.3114ZM13.808 15.786L14.7414 14.9906L13.3649 15.115L12.9995 15.8606L13.808 15.786ZM36.4404 13.723L37.7525 12.7764L36.0485 12.932L35.6319 13.7986L36.4404 13.723Z" fill="#D1D1D1"/>
<path d="M14.5537 18.7196L15.675 17.0782L15.8196 14.1799L14.7416 14.9903L14.5537 18.7196ZM25.6216 13.9993L24.213 14.8371L22.2405 18.8494L23.6509 18.0082L25.2561 14.7425L26.9238 14.5912L28.3323 13.7524L25.6216 13.9993Z" fill="#D1D1D1"/>
<path d="M28.949 13.3856L28.3323 13.7525L26.3582 17.7663L24.9581 18.6026L22.2405 18.8495L21.6282 19.2154C21.8141 19.4462 22.1495 19.5672 22.6029 19.5258L24.9011 19.3164C24.9488 19.3125 24.9979 19.3047 25.0466 19.2969C25.9904 19.1466 27.0532 18.3781 27.4761 17.5179L28.9362 14.5493C29.1743 14.0653 29.161 13.6525 28.949 13.3856ZM31.975 13.4212L30.5665 14.259L28.594 18.2713L30.0029 17.4291L31.6091 14.1648L33.2768 14.0126L34.6858 13.1733L31.975 13.4212Z" fill="#D1D1D1"/>
<path d="M35.3025 12.8071L34.6858 13.1741L32.7113 17.1878L31.3116 18.0241L28.594 18.271L27.9822 18.637C28.1676 18.8678 28.5035 18.9878 28.9564 18.9473L31.2541 18.738C31.3023 18.7341 31.351 18.7258 31.3997 18.7185C32.3429 18.5687 33.4062 17.7997 33.8291 16.9395L35.2893 13.9704C35.5278 13.4868 35.514 13.0731 35.3025 12.8071Z" fill="#D1D1D1"/>
</svg>
