<svg width="46" height="38" viewBox="0 0 46 38" fill="none" xmlns="http://www.w3.org/2000/svg">
<path d="M37.1538 20.4531V20.048L38.4675 18.3006L41.6299 20.4531H37.1538ZM46 12.9018H41.5628L43.1555 10.7845L42.2285 9.61136C39.9804 6.75218 37.1085 4.44196 33.831 2.85631C30.5536 1.27066 26.9568 0.45134 23.3143 0.460629C19.6718 0.45134 16.075 1.27066 12.7976 2.85631C9.52011 4.44196 6.64819 6.75218 4.40012 9.61136L3.47313 10.7845L5.06756 12.9035H0V16.3207H2.88339V23.8897H6.80501V16.4986L12.517 24.0922H9.97973L14.025 28.9045H17.1043L23.3143 37.1587L29.5225 28.9045H32.6036L36.8237 23.8897H46V19.0545L41.923 16.2785H46V12.9018Z" fill="white"/>
<path d="M23.3684 23.2124H25.9887V13.5789H23.3684V23.2124Z" fill="#C00C3F"/>
<path d="M33.9322 18.7733L30.0282 13.5787H27.106L27.8988 14.6338V23.2139H30.4414V18.0176L34.3453 23.2139H36.4748V13.5787H33.9322V18.7733Z" fill="#C00C3F"/>
<path d="M19.1223 13.579V19.4711L18.1265 20.7939L17.1306 19.4711V13.579H14.6375V19.4711L13.6434 20.7939L12.6475 19.4711V13.579H10.1526V19.8216L12.704 23.2124H14.581L15.884 21.4791L17.1889 23.2124H19.0641L21.6173 19.8216V13.579H19.1223Z" fill="#C00C3F"/>
<path d="M23.3137 31.8199V36.0298L30.6467 26.2837H27.479L23.3137 31.8199Z" fill="#231F20"/>
<path d="M23.3139 36.0303V31.8204L19.1486 26.2824H15.981L23.3139 36.0303Z" fill="#C00C3F"/>
<path d="M22.8629 10.4941H20.7017V6.86726H19.6582V11.373H22.8629V10.4941Z" fill="#6D6E71"/>
<path d="M25.2125 11.4399C25.9152 11.4399 26.5985 11.262 26.9711 11.0013V8.81362H25.1613V9.65559H26.0106V10.4447C25.767 10.5232 25.5126 10.563 25.2566 10.5627C24.319 10.5627 24.0047 10.0871 24.0047 9.12011C24.0047 8.19711 24.3014 7.65459 25.2425 7.65459C25.7634 7.65459 26.0618 7.8184 26.3072 8.13018L26.957 7.53481C26.5632 6.97114 25.8693 6.79852 25.2195 6.79852C23.7593 6.79852 22.9912 7.5947 22.9912 9.1113C22.9912 10.6226 23.6834 11.4399 25.2125 11.4399Z" fill="#6D6E71"/>
<path d="M11.4355 24.7688L14.3419 28.2266H32.2885L35.1948 24.7688H11.4355Z" fill="#6D6E71"/>
<path d="M17.9376 26.9905C18.0758 27.0675 18.2312 27.1087 18.3896 27.1103C18.6209 27.1103 18.7074 27.0239 18.7074 26.913C18.7074 26.809 18.6227 26.7562 18.582 26.7351C18.4514 26.6681 18.2978 26.6223 18.1565 26.5642C17.9482 26.4585 17.8422 26.3599 17.8422 26.0992C17.8422 25.7909 18.0629 25.606 18.4708 25.606C18.6602 25.6009 18.8477 25.6453 19.0146 25.7346L18.9016 25.9917C18.7707 25.9165 18.6219 25.8776 18.4708 25.879C18.2589 25.879 18.1742 25.9565 18.1742 26.071C18.1742 26.1274 18.1918 26.1714 18.2254 26.2013C18.257 26.229 18.2928 26.2515 18.3313 26.2683C18.4408 26.3194 18.6032 26.3757 18.7374 26.4391C18.8999 26.5202 19.0341 26.6206 19.0341 26.8936C19.0341 27.2001 18.7939 27.3921 18.3949 27.3921C18.1928 27.3914 17.9938 27.3431 17.814 27.2512L17.9376 26.9905Z" fill="white"/>
<path d="M20.2896 25.6313H21.349V25.9061H20.6215V26.3376H21.3243V26.6054H20.6215V27.0915H21.3772V27.3628H20.2896V25.6313Z" fill="white"/>
<path d="M22.9598 26.5179C22.9598 26.8491 23.0463 27.1221 23.3377 27.1221C23.6802 27.1221 23.7826 26.8913 23.7826 26.4721C23.7826 26.1445 23.6996 25.8679 23.4048 25.8679C23.0728 25.8679 22.9598 26.104 22.9598 26.5179ZM24.1269 26.5056C24.1269 27.0957 23.8709 27.3916 23.3447 27.3916C22.8027 27.3916 22.6226 27.0411 22.6226 26.488C22.6226 25.8961 22.8733 25.6055 23.4012 25.6055C23.9362 25.6055 24.1269 25.949 24.1269 26.5056Z" fill="white"/>
<path d="M25.395 25.6311H25.7252V26.6986C25.7252 26.9645 25.8082 27.1248 26.0254 27.1248C26.2814 27.1248 26.3732 26.998 26.3732 26.6528V25.6311H26.7034V26.6757C26.7034 27.1759 26.4597 27.3926 26.0289 27.3926C25.6016 27.3926 25.395 27.1794 25.395 26.6563V25.6311Z" fill="white"/>
<path d="M28.0361 25.6313H28.3681V27.0915H29.0408V27.3628H28.0361V25.6313Z" fill="white"/>
<path d="M23.3144 3.66389V1.13621C19.7743 1.12757 16.2789 1.92422 13.0939 3.46561C9.90879 5.007 7.11793 7.25255 4.93346 10.0315L4.32959 10.7942L5.25305 12.022H8.42071L7.53963 10.8524C9.49379 8.59014 11.9154 6.7764 14.6383 5.53559C17.3612 4.29479 20.3209 3.65628 23.3144 3.66389Z" fill="#C00C3F"/>
<path d="M42.3008 10.7947L41.6969 10.032C39.5119 7.25319 36.7207 5.00779 33.5354 3.46642C30.3501 1.92506 26.8545 1.12831 23.3142 1.1367V3.66438C29.4182 3.66438 35.1144 6.27133 39.089 10.8511L38.2096 12.0225H41.3773L42.3008 10.7947Z" fill="#231F20"/>
<path d="M0.678223 15.6436H3.56337V23.2144H6.12717V15.6436H9.01056V13.5792H0.678223V15.6436Z" fill="#C00C3F"/>
<path d="M45.3218 15.6009V13.5787H38.1513V17.2672L42.7598 20.4026V21.1301H37.9854V23.2139H45.3218V19.4109L40.6833 16.2544V15.6009H45.3218Z" fill="#C00C3F"/>
</svg>
