<svg width="19" height="13" viewBox="0 0 19 13" fill="none" xmlns="http://www.w3.org/2000/svg">
<path d="M14.1186 6.08042C14.1186 8.40745 12.2351 10.2939 9.91168 10.2939C7.58825 10.2939 5.70459 8.40745 5.70459 6.08042C5.70459 3.75329 7.58825 1.8668 9.91168 1.8668C12.2351 1.8668 14.1186 3.75329 14.1186 6.08042Z" fill="white"/>
<path d="M11.8843 4.39355C11.8843 4.39355 12.1137 4.31724 12.217 4.34239L12.2482 4.26067C12.1593 4.21741 11.9365 4.26945 11.9365 4.26945C11.9365 4.26945 11.8305 4.07564 11.7544 4.05862L11.717 4.15108C11.8231 4.21211 11.8843 4.39355 11.8843 4.39355Z" fill="#C7A079"/>
<path d="M11.017 9.835C11.017 9.835 10.9235 9.70567 10.8649 9.69364L10.8374 9.76193C10.9196 9.81342 10.972 9.92139 10.972 9.92139C10.972 9.92139 11.1782 9.87868 11.2601 9.90285L11.2895 9.83608C11.2196 9.79835 11.017 9.835 11.017 9.835Z" fill="#C7A079"/>
<path d="M11.4358 8.80857C11.4358 8.80857 11.2559 8.63188 11.1807 8.63577L11.1704 8.73018C11.2874 8.76608 11.4093 8.93213 11.4093 8.93213C11.4093 8.93213 11.6229 8.78223 11.7288 8.78396L11.7443 8.69029C11.6479 8.66808 11.4358 8.80857 11.4358 8.80857Z" fill="#C7A079"/>
<path d="M12.0409 4.09277C12.0409 4.09277 12.2693 4.05668 12.3743 4.07065L12.4216 3.97581C12.3288 3.94231 12.0921 3.97972 12.0921 3.97972C12.0921 3.97972 11.991 3.79434 11.914 3.78535L11.8765 3.87718C11.9878 3.92713 12.0409 4.09277 12.0409 4.09277Z" fill="#C7A079"/>
<path d="M12.2251 3.79586C12.2251 3.79586 12.4053 3.78687 12.5084 3.80713L12.5621 3.71479C12.4725 3.67554 12.2865 3.6813 12.2865 3.6813C12.2865 3.6813 12.1665 3.53116 12.0964 3.50286L12.0535 3.58524C12.1607 3.64108 12.2251 3.79586 12.2251 3.79586Z" fill="#C7A079"/>
<path d="M12.3895 3.52556C12.3895 3.52556 12.5619 3.50736 12.6628 3.53467L12.7242 3.43907C12.6381 3.39484 12.4585 3.41522 12.4585 3.41522C12.4585 3.41522 12.3627 3.25078 12.2883 3.23223L12.2434 3.30757C12.3459 3.37034 12.3895 3.52556 12.3895 3.52556Z" fill="#C7A079"/>
<path d="M12.5608 3.27179C12.5608 3.27179 12.7129 3.28425 12.8112 3.31787L12.8667 3.24403C12.7837 3.19353 12.6176 3.18484 12.6176 3.18484C12.6176 3.18484 12.5321 3.02541 12.4593 3.00188L12.4126 3.07082C12.5105 3.13954 12.5608 3.27179 12.5608 3.27179Z" fill="#C7A079"/>
<path d="M10.9054 10.0348C10.9054 10.0348 10.8107 9.90739 10.7565 9.89524L10.7312 9.96321C10.8073 10.0148 10.8638 10.1216 10.8638 10.1216C10.8638 10.1216 11.0476 10.08 11.1238 10.1043L11.1507 10.0374C11.0864 9.99973 10.9054 10.0348 10.9054 10.0348Z" fill="#C7A079"/>
<path d="M11.1279 9.61404C11.1279 9.61404 10.9989 9.45057 10.9307 9.44103L10.9055 9.5269C11.0046 9.58206 11.0845 9.72363 11.0845 9.72363C11.0845 9.72363 11.3067 9.64308 11.4026 9.66542L11.4302 9.58074C11.3469 9.54173 11.1279 9.61404 11.1279 9.61404Z" fill="#C7A079"/>
<path d="M11.2469 9.38488C11.2469 9.38488 11.0865 9.19658 11.0116 9.19443L10.9941 9.28818C11.1069 9.33568 11.212 9.50684 11.212 9.50684C11.212 9.50684 11.4381 9.371 11.5435 9.38282L11.5644 9.29003C11.4708 9.25849 11.2469 9.38488 11.2469 9.38488Z" fill="#C7A079"/>
<path d="M11.3495 9.08965C11.3495 9.08965 11.18 8.90591 11.1052 8.90645L11.0908 9.00043C11.2054 9.0426 11.3187 9.21191 11.3187 9.21191C11.3187 9.21191 11.5393 9.06991 11.645 9.07728L11.6633 8.98363C11.5685 8.95642 11.3495 9.08965 11.3495 9.08965Z" fill="#C7A079"/>
<path d="M8.05342 3.04395L8.13124 2.97739C8.06604 2.94011 7.99699 2.72415 7.99699 2.72415C7.99699 2.72415 7.84615 2.71961 7.77727 2.69846L7.67798 2.7698L7.91571 2.79765C7.91571 2.79765 7.97106 3.00232 8.05342 3.04395Z" fill="#C7A079"/>
<path d="M8.32198 2.85303L8.40365 2.79103C8.3209 2.74928 8.26516 2.54268 8.26516 2.54268C8.26516 2.54268 8.11017 2.52739 8.05238 2.49357L7.97217 2.55537C8.02482 2.59646 8.1868 2.61324 8.1868 2.61324C8.1868 2.61324 8.23643 2.81694 8.32198 2.85303Z" fill="#C7A079"/>
<path d="M7.79638 3.25977C7.81931 3.23672 7.84301 3.21444 7.86743 3.19299C7.79204 3.09869 7.76575 2.92036 7.76575 2.92036C7.76575 2.92036 7.58967 2.91277 7.50518 2.90768C7.47926 2.93098 7.44263 2.97641 7.44263 2.97641L7.67434 3.00361C7.67434 3.00361 7.72084 3.17403 7.79638 3.25977Z" fill="#C7A079"/>
<path d="M7.58224 3.49902C7.60329 3.47768 7.6278 3.45037 7.65275 3.42879C7.57715 3.33403 7.54014 3.1413 7.54014 3.1413C7.54014 3.1413 7.37087 3.13394 7.28719 3.12841C7.26047 3.15193 7.23774 3.17122 7.22437 3.19756L7.45149 3.2226C7.45149 3.2226 7.50625 3.41372 7.58224 3.49902Z" fill="#C7A079"/>
<path d="M8.58186 2.66211L8.669 2.60465C8.56724 2.58372 8.51605 2.36076 8.51605 2.36076C8.51605 2.36076 8.37952 2.35913 8.33391 2.32899C8.29883 2.34796 8.26201 2.36108 8.22681 2.38394C8.27859 2.40889 8.43138 2.4207 8.43138 2.4207C8.43138 2.4207 8.50394 2.62742 8.58186 2.66211Z" fill="#C7A079"/>
<path d="M7.41747 3.67857C7.3463 3.60083 7.28359 3.40193 7.28359 3.40193C7.28359 3.40193 7.12368 3.40985 7.03913 3.40777L6.96484 3.4867C7.04872 3.50058 7.20149 3.4931 7.20149 3.4931C7.20149 3.4931 7.2536 3.66577 7.35075 3.76562L7.41747 3.67857Z" fill="#C7A079"/>
<path d="M8.8315 2.45752C8.85373 2.44115 8.91207 2.40962 8.91207 2.40962C8.81883 2.3734 8.81249 2.21103 8.81249 2.21103C8.81249 2.21103 8.60771 2.20765 8.55999 2.18523C8.53083 2.20452 8.4996 2.21492 8.47168 2.23866C8.51074 2.27183 8.71812 2.28115 8.71812 2.28115C8.71812 2.28115 8.7397 2.43812 8.8315 2.45752Z" fill="#C7A079"/>
<path d="M6.84362 3.6864C6.81964 3.71903 6.80157 3.73972 6.77856 3.77214L6.99611 3.78265C6.99611 3.78265 7.04223 3.98299 7.1156 4.0542L7.17676 3.96357C7.11459 3.89029 7.07481 3.68553 7.07481 3.68553C7.07481 3.68553 6.91673 3.69215 6.84362 3.6864Z" fill="#C7A079"/>
<path d="M6.84082 3.9903C6.84082 3.9903 6.70245 4.00948 6.63031 3.99203L6.5686 4.06834C6.62565 4.08905 6.7776 4.08936 6.7776 4.08936C6.7776 4.08936 6.85652 4.35159 6.91863 4.38379L6.97508 4.28547C6.89531 4.21966 6.84082 3.9903 6.84082 3.9903Z" fill="#C7A079"/>
<path d="M6.44333 4.31982L6.38672 4.40891L6.59048 4.40871C6.59048 4.40871 6.6396 4.62333 6.7282 4.69141L6.7816 4.59667C6.72278 4.5339 6.66163 4.31472 6.66163 4.31472L6.44333 4.31982Z" fill="#C7A079"/>
<path d="M6.26335 4.66663L6.22119 4.7616L6.42024 4.75096C6.42024 4.75096 6.4994 4.94739 6.57311 5.01611C6.59288 4.98348 6.60267 4.93894 6.62042 4.90696C6.53335 4.8224 6.47782 4.65655 6.47782 4.65655L6.26335 4.66663Z" fill="#C7A079"/>
<path d="M8.9644 2.12794C8.97396 2.21228 9.0598 2.29932 9.0598 2.29932L9.13285 2.25021C9.06695 2.19472 9.04033 2.07754 9.04033 2.07754L8.90779 2.06268C8.84128 2.05901 8.7002 2.1082 8.7002 2.1082C8.76633 2.10593 8.9644 2.12794 8.9644 2.12794Z" fill="#C7A079"/>
<path d="M16.566 6.45217L16.5566 6.50355C16.5494 6.54106 16.1342 6.6151 15.7192 6.70139C15.7324 6.57629 15.741 6.4499 15.7461 6.32275C16.1717 6.38983 16.566 6.45217 16.566 6.45217ZM13.0492 5.62129L12.8966 6.87667C12.8842 6.95363 12.8572 7.04968 12.7919 7.06854L12.3771 7.11233L12.5296 5.85727C12.5412 5.77901 12.5692 5.6835 12.6338 5.66475L13.0492 5.62129ZM9.91149 10.3922C8.61787 10.3921 7.45836 9.82004 6.66911 8.91536C6.71642 8.91058 6.7517 8.90667 6.77 8.90483C6.78012 8.90396 6.78579 8.89639 6.78748 8.88283C6.824 8.58289 7.24758 5.10573 7.24839 5.0989C7.24855 5.09152 7.23984 5.08871 7.23334 5.08992C7.22706 5.09089 7.00291 5.13163 6.79339 5.17131C6.67437 5.1943 6.55688 5.23625 6.44399 5.29304C6.44519 5.28817 6.44631 5.28339 6.44741 5.27972C6.36005 5.19635 6.3441 5.00881 6.3441 5.00881L6.1042 5.04339L6.07547 5.13598L6.26643 5.10823C6.26643 5.10823 6.27781 5.23798 6.3533 5.34281C6.02957 5.53369 5.75401 5.84882 5.60929 6.20459C5.6081 6.16306 5.60615 6.12177 5.60615 6.07993C5.60615 3.69827 7.53375 1.7682 9.91149 1.76776C11.6848 1.76776 13.2071 2.84169 13.8669 4.37544C13.1965 4.44622 12.3891 4.53174 12.3891 4.53174C12.2877 4.54238 12.1885 4.56547 12.0918 4.597L12.1033 4.5632C12.0128 4.52612 11.7931 4.59354 11.7931 4.59354C11.7931 4.59354 11.6701 4.4034 11.5938 4.3916L11.5599 4.48438C11.6687 4.53825 11.7465 4.71756 11.7465 4.71756C11.7465 4.71756 11.8378 4.6819 11.9308 4.66064C11.8224 4.71043 11.7197 4.77182 11.6244 4.84373C11.5771 4.7906 11.5129 4.72817 11.4692 4.72439L11.4396 4.81815C11.4791 4.83474 11.5164 4.86812 11.5483 4.90402C11.2339 5.17034 11.01 5.55148 10.9598 5.96491C10.9598 5.96491 10.6637 8.40175 10.662 8.41943C10.66 8.4371 10.6589 8.45204 10.6834 8.45064C10.6908 8.4501 10.9263 8.42527 11.2456 8.39156L11.2443 8.41736C11.3632 8.44523 11.4977 8.60522 11.4977 8.60522C11.4977 8.60522 11.7012 8.44478 11.8069 8.43883L11.8176 8.34516C11.7201 8.32913 11.5168 8.48089 11.5168 8.48089C11.5168 8.48089 11.4498 8.42322 11.3795 8.37737C12.0735 8.30418 13.0365 8.20198 13.0365 8.20198C13.3244 8.17173 13.5977 8.04999 13.8279 7.86884C13.8128 7.89974 13.7986 7.93113 13.7856 7.96295C13.0875 9.40099 11.6152 10.3921 9.91149 10.3922ZM18.4822 3.85988C17.7191 3.94051 16.9561 4.02105 16.193 4.10151C15.9439 4.12774 15.7057 4.2228 15.4966 4.36493C14.7647 1.97113 12.5414 0.230211 9.9112 0.230211C7.32799 0.230211 5.13799 1.91052 4.36748 4.23897C3.7356 4.30303 2.13595 4.47061 2.13595 4.47061C0.971797 4.59354 0.642053 5.50009 0.549533 6.03018C0.469594 6.48448 0.509267 6.80501 0.514037 6.89488C0.514613 6.91016 0.520463 6.92881 0.530471 6.93196C0.544277 6.93629 0.562889 6.92913 0.586865 6.9016C0.612624 6.87202 1.0467 6.33369 1.11083 6.26257C1.1748 6.19158 1.45215 5.85945 1.99343 5.80265L3.82749 5.60892C3.82377 5.64784 3.58674 7.72316 3.58674 7.72316C3.54565 7.99655 3.36561 8.16609 3.02964 8.22635C3.02964 8.22635 3.31766 5.71418 3.31793 5.71006C3.31912 5.70584 3.31793 5.70063 3.31107 5.70193C3.30376 5.70333 2.89583 5.77305 2.89583 5.77305C2.25292 5.9117 1.70784 6.51157 1.6284 7.1674L1.48851 8.38722C1.1019 8.42668 0.848677 8.39102 0.689952 8.37889C0.636276 8.3751 0.585893 8.36836 0.542873 8.36327C0.525017 8.36111 0.511319 8.37791 0.521273 8.39277C0.58665 8.49453 0.742944 8.77117 0.945013 8.98484C1.21788 9.2747 1.61618 9.41855 2.11043 9.41855L3.33969 9.30732C4.07417 9.22971 4.5138 9.07818 4.78283 8.8811C5.77391 10.6978 7.69879 11.9302 9.9112 11.9302C12.4959 11.9302 14.6866 10.2482 15.4563 7.91828C16.1997 7.84002 16.9058 7.76533 16.9058 7.76533C18.0385 7.64577 18.0818 7.11103 18.1052 6.82388C18.1075 6.7969 18.1609 6.32956 18.1678 6.19841C18.1901 5.85065 17.9356 5.53793 17.5644 5.45576C17.4139 5.42226 16.8021 5.3157 16.4099 5.24827C16.417 5.24283 16.425 5.23885 16.4337 5.23657L17.5367 5.11875C17.9204 5.07831 18.2189 4.79614 18.357 4.34433L18.4999 3.87669C18.4999 3.87669 18.5028 3.85729 18.4822 3.85988Z" fill="#C7A079"/>
<path d="M10.9849 4.70634C10.9674 4.70807 8.63304 4.95415 8.63304 4.95415C7.91968 5.03011 7.29191 5.65972 7.20295 6.38827C7.20295 6.38827 6.90325 8.856 6.90239 8.86164C6.90179 8.86727 6.90748 8.87302 6.91538 8.87194C6.92177 8.87129 8.29822 8.72851 8.46247 8.71192C8.47264 8.71086 8.47871 8.6997 8.48027 8.69274C8.4813 8.68559 8.77787 6.23879 8.77787 6.23879C8.79177 6.18036 8.81898 6.10601 8.87084 6.08952L9.29289 6.04508C9.29289 6.04508 8.98428 8.58577 8.9794 8.62294C8.97665 8.64353 8.98703 8.65611 9.00764 8.65427C9.23048 8.63064 10.5242 8.49404 10.5307 8.49319C10.5374 8.49276 10.5527 8.48539 10.5534 8.47367C10.5872 8.20062 11.0069 4.75034 11.008 4.73105C11.0108 4.71099 11.0043 4.70406 10.9849 4.70634Z" fill="#C7A079"/>
<path d="M5.18825 4.59478C5.01823 4.41906 4.78001 4.33713 4.50502 4.36648L2.14179 4.61666C1.31723 4.70318 0.867134 5.27423 0.731953 5.73698C0.647965 6.02642 0.631837 6.20311 0.622027 6.32094C0.622027 6.32094 0.605701 6.59108 0.609445 6.67531C0.609445 6.68714 0.608833 6.69242 0.615655 6.69579C0.619561 6.69752 0.625285 6.69622 0.633457 6.68744C0.677395 6.63844 0.788005 6.48474 0.814538 6.45103C0.905024 6.33871 1.07149 6.12627 1.18138 6.0313C1.31858 5.91304 1.60471 5.70826 1.98865 5.66794L3.89693 5.46675C3.93091 5.46242 3.95289 5.46913 3.9553 5.47325C3.98464 5.50338 3.96787 5.56053 3.96787 5.56053L3.72477 7.73545C3.67212 8.09274 3.40137 8.30662 2.89029 8.37243L3.16771 5.87998C3.16855 5.86794 3.16191 5.86123 3.14902 5.86393C3.13583 5.86631 2.91637 5.91194 2.91637 5.91194C2.3331 6.03747 1.83939 6.58056 1.76667 7.17437L1.64524 8.2381L1.61016 8.50673L1.5409 8.51454C1.40089 8.52916 1.22334 8.53958 0.868754 8.51454C0.807176 8.51019 0.776215 8.50305 0.769069 8.51227C0.763939 8.52137 0.766855 8.53253 0.784549 8.56233C0.791749 8.57502 0.931592 8.83983 1.2348 9.06282C1.42341 9.20093 1.72201 9.27832 2.09947 9.27832C2.3068 9.27832 2.52636 9.25836 2.7338 9.23617L3.05085 9.20266C4.52652 9.04666 4.97607 8.85045 5.10536 7.84809L5.40539 5.30826C5.43986 5.02707 5.36284 4.77396 5.18825 4.59478Z" fill="#071D3D"/>
<path d="M4.51222 4.50425L2.14861 4.75412C0.94295 4.88116 0.794882 6.02142 0.787087 6.06749C0.778483 6.11356 0.758954 6.29784 0.757712 6.31161C0.755156 6.32471 0.760519 6.33014 0.770905 6.31671C0.781723 6.30216 0.919334 6.12104 0.919334 6.12104C0.92243 6.11606 1.31235 5.61015 1.98107 5.5397L3.89014 5.33816C3.96284 5.33047 4.01841 5.34467 4.05401 5.38262C4.12524 5.45785 4.10267 5.60647 4.08049 5.76376C4.0747 5.80191 3.85672 7.75246 3.85672 7.75246C3.76509 8.39093 3.06018 8.46562 2.8279 8.48981L2.7611 8.49706C2.7611 8.49706 3.02922 6.02911 3.0297 6.01839C3.03028 6.00753 3.01996 6.00342 3.00956 6.0057C2.99982 6.00799 2.93417 6.02196 2.93417 6.02196C2.39815 6.13795 1.94417 6.63605 1.8782 7.18076L1.6993 8.60881C1.568 8.62118 1.42323 8.63288 1.29924 8.63288C1.22413 8.63288 0.98948 8.61662 0.971624 8.61489C0.954866 8.61327 0.950258 8.62248 0.960644 8.63452C0.970976 8.64698 1.04533 8.74053 1.04533 8.74053C1.28918 9.03029 1.65016 9.18031 2.07584 9.15917C2.50113 9.13869 2.81215 9.09511 3.11661 9.06843C4.00201 8.98974 4.83725 8.90052 4.97504 7.84525L5.27437 5.30306C5.30369 5.06283 5.23826 4.84658 5.09176 4.69589C4.9504 4.54988 4.74 4.47975 4.51222 4.50425Z" fill="#1D467D"/>
<path d="M16.4156 5.10266L17.5316 4.98408C17.8117 4.95438 18.0681 4.72013 18.1731 4.45714C18.2133 4.35536 18.2872 4.09249 18.304 4.03189C18.3061 4.02356 18.2997 4.02019 18.29 4.02062C18.2801 4.02269 16.1984 4.24707 16.1984 4.24707C15.5628 4.31427 14.9808 4.89736 14.9024 5.54658C14.9024 5.54658 14.848 6.02581 14.8474 6.0307C14.8474 6.03524 14.8492 6.03785 14.8525 6.03827C14.8546 6.03872 16.7214 6.3559 16.7214 6.3559C16.7214 6.3559 16.7075 6.43437 16.6897 6.5548C16.6708 6.67458 15.8644 6.77106 15.5385 6.86461C15.0457 7.00564 14.5505 7.12835 14.0913 7.67674C14.0214 7.76107 13.9679 7.87946 13.9392 7.92455C13.9333 7.9343 13.937 7.94633 13.9513 7.94524C13.9667 7.94405 16.9486 7.62568 16.9486 7.62568C17.5608 7.5612 17.8977 7.32833 17.9492 6.9341L17.9552 6.88608C17.9777 6.7213 18.0181 6.41388 18.0295 6.20466C18.0465 5.92727 17.8303 5.66646 17.5266 5.59839C17.343 5.55817 16.4686 5.40771 16.206 5.36306C16.239 5.21606 16.3111 5.12824 16.4156 5.10266Z" fill="#071D3D"/>
<path d="M16.4036 4.97632L17.5253 4.85687C17.8843 4.81849 18.0382 4.48429 18.0987 4.28905C18.0987 4.28905 18.1243 4.20257 18.1255 4.19431C18.1272 4.18597 18.1212 4.18337 18.1096 4.18434C18.0985 4.18533 16.2065 4.38542 16.2065 4.38542C15.631 4.44582 15.1062 4.97414 15.0343 5.56352C15.0343 5.56352 14.9911 5.9323 14.9908 5.93664C14.9908 5.94086 14.9928 5.94391 14.9965 5.94477C15.0006 5.94497 16.8646 6.27614 16.8646 6.27614C16.8636 6.28846 16.8623 6.30075 16.8608 6.31301L16.8387 6.49426C16.7972 6.74932 16.6155 6.78378 15.8599 6.92491C15.6818 6.9582 14.6356 7.19527 14.2717 7.65856C14.2329 7.70953 14.2053 7.74865 14.1905 7.77272C14.1804 7.78898 14.1845 7.79657 14.2012 7.79527C14.3953 7.77336 16.4798 7.54865 16.7621 7.51874C17.4204 7.44937 17.7466 7.33738 17.8193 6.88568C17.8607 6.62519 17.8873 6.39734 17.8982 6.20882C17.9113 5.99256 17.7372 5.78953 17.4924 5.7348C17.2822 5.68818 16.1033 5.48688 16.0919 5.48548C16.0818 5.48396 16.0585 5.47171 16.0603 5.44829C16.0974 5.11355 16.2662 5.00655 16.4036 4.97632Z" fill="#1D467D"/>
<path d="M16.2982 4.5469L17.9914 4.36772C18.0059 4.33152 18.0182 4.29693 18.0272 4.26745L16.2147 4.4591C15.6711 4.51611 15.1746 5.01573 15.1078 5.57172L15.0718 5.88272L15.1642 5.89941L15.1918 5.65909C15.2642 5.07156 15.7553 4.60414 16.2982 4.5469Z" fill="white"/>
<path d="M16.1635 5.64682C16.286 5.66708 17.3653 5.85168 17.5607 5.89515C17.6358 5.91165 17.7033 5.94458 17.758 5.98828C17.6958 5.90112 17.5968 5.83045 17.4765 5.80681C17.2708 5.76724 16.2015 5.57972 16.0788 5.55825C16.0765 5.55825 16.0742 5.55727 16.073 5.55695C16.0807 5.60476 16.1209 5.63923 16.1635 5.64682Z" fill="white"/>
<path d="M16.9956 6.59413L17.0164 6.42644C17.0235 6.37007 17.0378 6.30612 16.9833 6.29559L16.9378 6.28727C16.9366 6.30418 16.9113 6.50612 16.9113 6.50612C16.8574 6.83576 16.722 6.84421 15.8729 6.99772C15.5475 7.05721 14.5474 7.36963 14.3347 7.69873C14.3958 7.69211 14.4561 7.68647 14.5149 7.6802C14.8419 7.39163 15.667 7.13832 15.9574 7.08584C16.8074 6.93278 16.9421 6.92301 16.9956 6.59413Z" fill="white"/>
<path d="M6.68178 5.35069C6.18023 5.49888 5.71411 6.04976 5.64776 6.59524C5.64776 6.59524 5.37085 8.87348 5.36918 8.89268C5.36837 8.91208 5.38118 8.91651 5.39326 8.91597C5.40424 8.91424 6.54655 8.79393 6.65408 8.78255C6.65899 8.78145 6.66236 8.7782 6.66317 8.77256C6.68806 8.5718 7.08874 5.26809 7.08912 5.26018C7.08939 5.25412 7.08246 5.2464 7.07289 5.24923C7.06407 5.25107 6.88097 5.29173 6.68178 5.35069Z" fill="#071D3D"/>
<path d="M6.83485 5.45036C6.29954 5.56602 5.84619 6.06391 5.77974 6.60938C5.77974 6.60938 5.52138 8.74062 5.51992 8.7531C5.51694 8.76633 5.521 8.77338 5.54059 8.77174C5.55835 8.76914 6.44705 8.67527 6.53673 8.66615C6.54188 8.6653 6.54391 8.66247 6.54463 8.6576C6.56634 8.48111 6.93444 5.44852 6.93493 5.44201C6.93637 5.4355 6.93119 5.42944 6.92291 5.43118C6.91457 5.43323 6.83485 5.45036 6.83485 5.45036Z" fill="#1D467D"/>
<path d="M6.8374 5.63729L6.85148 5.52259C6.34958 5.63199 5.91623 6.10417 5.85383 6.61863L5.60181 8.69092L5.69829 8.68073L5.93771 6.7059C5.99477 6.1871 6.37882 5.78189 6.8374 5.63729Z" fill="white"/>
<path d="M8.63815 5.10009C8.00168 5.1674 7.41986 5.75093 7.34054 6.40122C7.34054 6.40122 7.06085 8.70353 7.06026 8.71036C7.05918 8.71828 7.06242 8.72401 7.0714 8.72304C7.08022 8.72206 8.20337 8.60391 8.34104 8.5883C8.35031 8.58819 8.35571 8.57865 8.35679 8.5715C8.35738 8.5652 8.64117 6.2294 8.64117 6.2294C8.67602 6.07341 8.74897 5.98137 8.85224 5.95579L9.45157 5.89207C9.45157 5.89207 9.14253 8.4501 9.13738 8.47198C9.13282 8.49291 9.14343 8.50472 9.16254 8.50254C9.35234 8.48251 10.4081 8.37031 10.4153 8.36976C10.4191 8.36966 10.4227 8.36812 10.4254 8.36545C10.4282 8.36277 10.4298 8.35916 10.43 8.35534C10.4588 8.12349 10.8499 4.91732 10.8499 4.89673C10.8512 4.87494 10.8328 4.86811 10.8192 4.86962C10.8053 4.87169 8.63815 5.10009 8.63815 5.10009Z" fill="#071D3D"/>
<path d="M8.64522 5.23806C8.07076 5.29909 7.54469 5.82721 7.47364 6.41562C7.47364 6.41562 7.21345 8.55523 7.21241 8.56574C7.21144 8.5756 7.21306 8.57994 7.22155 8.57897C7.23012 8.57799 8.10248 8.48564 8.22315 8.47295C8.23289 8.47186 8.2382 8.46503 8.23982 8.45636C8.2402 8.45115 8.51077 6.21802 8.51077 6.21802C8.57329 5.93085 8.74213 5.85084 8.83949 5.82885L9.56367 5.75167C9.57089 5.75167 9.58068 5.75167 9.59026 5.76035C9.59735 5.7675 9.59972 5.77715 9.59773 5.7882C9.59773 5.7882 9.28953 8.31165 9.28953 8.33062C9.28813 8.34904 9.29635 8.35989 9.31682 8.35751C9.48721 8.33972 10.2864 8.25485 10.2942 8.25463C10.3077 8.25377 10.3129 8.24086 10.3139 8.2335C10.3381 8.03372 10.7001 5.04533 10.7031 5.03601C10.7033 5.02669 10.6959 5.0218 10.6879 5.02245C10.6788 5.02355 8.64522 5.23806 8.64522 5.23806Z" fill="#1D467D"/>
<path d="M8.73768 5.39965L10.6077 5.2027L10.6188 5.10491L8.6532 5.31205C8.10926 5.36961 7.61398 5.86805 7.54629 6.42469L7.29517 8.49707L7.39141 8.48667L7.63157 6.51272C7.6984 5.95638 8.1947 5.45699 8.73768 5.39965Z" fill="white"/>
<path d="M9.72714 5.797C9.71292 5.78117 9.69238 5.7712 9.67098 5.76783C9.67229 5.77764 9.67247 5.78757 9.67152 5.79743L9.36938 8.27783L9.46597 8.26754L9.75572 5.886C9.76004 5.85194 9.74917 5.82009 9.72714 5.797Z" fill="white"/>
<path d="M1.85007 8.76486L2.0358 7.27836C2.09491 6.7961 2.47838 6.35209 2.93945 6.20834C2.94752 6.13116 2.95006 6.09494 2.95006 6.09494C2.44775 6.20325 2.01443 6.67598 1.95107 7.19022L1.76588 8.67695C1.51601 8.7023 1.25306 8.70686 1.10181 8.6932C1.13291 8.73028 1.1814 8.77623 1.18607 8.78123C1.3442 8.80919 1.60108 8.78957 1.85007 8.76486Z" fill="white"/>
<path d="M2.24114 4.91553L4.60508 4.66609C4.79053 4.64648 4.95737 4.6931 5.0819 4.79737C5.0687 4.77989 5.05441 4.76327 5.03909 4.74762C4.91176 4.61677 4.72749 4.55641 4.52125 4.57808L2.1565 4.82816C0.995966 4.95077 0.86084 6.07617 0.86084 6.07617C0.86084 6.07617 0.909872 6.01145 1.0036 5.92387C1.11529 5.58511 1.42359 5.00192 2.24114 4.91553Z" fill="white"/>
<path d="M2.92096 8.65166C3.16101 8.62618 3.91422 8.54717 4.01466 7.85124C4.01466 7.85124 4.23226 5.90013 4.23855 5.86348C4.2643 5.68757 4.28779 5.52063 4.1927 5.41991C4.17795 5.4047 4.16109 5.39171 4.14264 5.38133C4.19637 5.48344 4.17571 5.62533 4.15456 5.77493C4.1479 5.81266 3.93019 7.76354 3.93019 7.76354C3.83018 8.45979 3.07739 8.5386 2.8361 8.56363L2.76358 8.57004L2.75195 8.66846L2.92096 8.65166Z" fill="white"/>
<path d="M12.8128 7.21186L12.22 7.2745L12.3923 5.85305C12.4116 5.72623 12.4658 5.5672 12.6141 5.53209L13.2077 5.46944L13.034 6.88968C13.0155 7.01737 12.9606 7.17663 12.8128 7.21186ZM12.3946 4.67681C11.7589 4.7438 11.1767 5.32731 11.0978 5.97782C11.0978 5.97782 10.8197 8.26994 10.8191 8.28002C10.8178 8.29001 10.8217 8.30095 10.8355 8.29911C10.8492 8.29781 13.0332 8.06724 13.0332 8.06724C13.6676 7.99982 14.2499 7.41618 14.3292 6.76601C14.3292 6.76601 14.6069 4.47811 14.6086 4.46488C14.6095 4.45058 14.5959 4.44397 14.5846 4.44571C14.5718 4.44656 12.3946 4.67681 12.3946 4.67681Z" fill="#071D3D"/>
<path d="M13.1675 6.89802L13.1653 6.90939C13.1205 7.22028 12.9579 7.32098 12.8285 7.35004L12.1089 7.42603C12.1014 7.42701 12.0922 7.42668 12.0825 7.41682C12.0755 7.4102 12.073 7.40045 12.0744 7.38906L12.2616 5.84675C12.3074 5.53272 12.4717 5.43321 12.5993 5.40555L12.6091 5.40436L13.3179 5.32913C13.3287 5.32827 13.3381 5.33151 13.345 5.33791C13.3517 5.34496 13.3545 5.35493 13.3529 5.36654L13.1675 6.89802ZM14.4434 4.5996C14.436 4.60047 12.4017 4.81509 12.4017 4.81509C11.8274 4.87591 11.3003 5.40458 11.2303 5.99288C11.2303 5.99288 10.9706 8.1239 10.9698 8.13508C10.9684 8.14689 10.9807 8.15578 10.9908 8.1547C11.0005 8.15405 13.025 7.94027 13.025 7.94027C13.5999 7.87925 14.1265 7.35123 14.1986 6.76218C14.1986 6.76218 14.4564 4.6217 14.4586 4.61206C14.4597 4.60231 14.451 4.59852 14.4434 4.5996Z" fill="#1D467D"/>
<path d="M13.4266 5.37482L13.2389 6.91985C13.184 7.2947 12.9651 7.39605 12.8393 7.42304L12.1157 7.49989C12.1056 7.50093 12.0953 7.50016 12.0854 7.49762C12.089 7.51996 12.0982 7.54065 12.1137 7.55681C12.1359 7.57979 12.1683 7.59117 12.2013 7.5878L12.9242 7.51139C13.0496 7.48471 13.268 7.38271 13.3231 7.00797L13.5109 5.46241C13.5161 5.42967 13.505 5.39726 13.4817 5.37406C13.467 5.35866 13.4474 5.34869 13.426 5.34469C13.4266 5.35477 13.4278 5.36506 13.4266 5.37482Z" fill="white"/>
<path d="M12.4938 4.97685L14.3631 4.77946L14.375 4.68179L12.4094 4.88873C11.8662 4.94573 11.3702 5.44492 11.3032 6.00178L11.0515 8.07373L11.1479 8.06344L11.3874 6.08914C11.4546 5.53315 11.9515 5.03387 12.4938 4.97685Z" fill="white"/>
<path d="M15.976 6.35922C15.902 6.34761 15.8246 6.33537 15.7462 6.32302V6.32313C15.7441 6.3705 15.7415 6.41783 15.7384 6.46514C15.7355 6.5098 15.7321 6.55442 15.7282 6.59899C15.7252 6.63315 15.7228 6.66752 15.7192 6.70166C15.799 6.68497 15.8786 6.66892 15.9556 6.65342C15.9646 6.55574 15.9717 6.45764 15.976 6.35922Z" fill="#071D3D"/>
<path d="M4.36726 4.2394C4.46248 3.95178 4.57999 3.67205 4.71869 3.40275C4.7199 3.40048 4.72108 3.3981 4.72227 3.39583C4.75623 3.33019 4.79137 3.26518 4.82768 3.20082C4.82849 3.1994 4.82932 3.1981 4.83 3.19669C4.9746 2.94178 5.1381 2.6981 5.31912 2.4677C5.32621 2.45871 5.33314 2.44971 5.34023 2.44072C5.38117 2.38929 5.42292 2.33851 5.46546 2.2884C5.47405 2.27832 5.48283 2.26835 5.49149 2.25838C5.62752 2.10058 5.77182 1.95013 5.92378 1.80765C5.93037 1.80149 5.93681 1.79518 5.94342 1.7889C5.9859 1.74944 6.02935 1.71117 6.07296 1.67302C6.09257 1.65579 6.1121 1.63877 6.13186 1.62186C6.17306 1.58675 6.21476 1.55224 6.25696 1.51834C6.27998 1.49982 6.30322 1.48157 6.32667 1.46359C6.36834 1.43096 6.41007 1.39833 6.4526 1.367C6.47527 1.35031 6.49854 1.33415 6.52154 1.31789C6.59664 1.26422 6.67298 1.21232 6.7505 1.16224C6.78256 1.14142 6.81432 1.12051 6.84673 1.10044C6.88457 1.07702 6.92298 1.05471 6.96136 1.03205C7.03401 0.989128 7.10765 0.947893 7.1822 0.908375C7.22246 0.887082 7.26298 0.866301 7.30376 0.846035C7.33893 0.828458 7.37394 0.810466 7.40956 0.793682C7.46736 0.765937 7.52595 0.739905 7.58485 0.714216C7.62067 0.698603 7.65665 0.683316 7.69285 0.668461C7.75256 0.643741 7.81268 0.620001 7.87317 0.597252C7.9051 0.585335 7.93741 0.574266 7.9696 0.562891C8.02059 0.544881 8.07189 0.527322 8.12357 0.510736C8.15685 0.500136 8.19008 0.489626 8.22352 0.47953C8.27797 0.463053 8.33273 0.447765 8.38776 0.43282C8.4178 0.424672 8.44763 0.416325 8.47781 0.408627C8.55996 0.387765 8.64254 0.368687 8.72551 0.351407C8.73363 0.349676 8.74173 0.348144 8.74992 0.34663C8.8314 0.330293 8.9132 0.315622 8.99528 0.302624C9.02408 0.298171 9.05297 0.294493 9.08188 0.290383C9.14292 0.281585 9.20424 0.273671 9.26582 0.266947C9.29759 0.263485 9.32947 0.260132 9.36138 0.257104C9.42417 0.251227 9.48715 0.246684 9.55035 0.24279C9.57893 0.241041 9.60734 0.238877 9.63603 0.237688C9.72716 0.233361 9.81878 0.230639 9.91098 0.230639C10.0038 0.230639 10.096 0.233361 10.1876 0.237688C10.2167 0.238986 10.2454 0.241149 10.2743 0.243006C10.3373 0.246675 10.4002 0.251441 10.463 0.257302C10.5558 0.266202 10.6484 0.277232 10.7407 0.290383C10.7716 0.294818 10.8025 0.298928 10.8332 0.303813C10.902 0.314843 10.9706 0.327092 11.039 0.340554C11.0586 0.344466 11.0786 0.347711 11.0983 0.351731C11.1849 0.369654 11.271 0.389605 11.3567 0.411566C11.3804 0.417641 11.4037 0.424347 11.4273 0.430747C11.4894 0.447567 11.5512 0.464802 11.6124 0.483424C11.6432 0.492914 11.6739 0.502674 11.7046 0.512701C11.7586 0.530213 11.8124 0.548465 11.866 0.567452C11.8973 0.578436 11.9284 0.58974 11.9595 0.601362C12.0146 0.622137 12.0693 0.643749 12.1237 0.66619C12.1505 0.677259 12.1777 0.687769 12.2044 0.699162C12.2828 0.732636 12.3605 0.767799 12.4374 0.804625C12.454 0.812539 12.4701 0.821535 12.4866 0.829557C12.5476 0.8597 12.6081 0.890365 12.6679 0.922454C12.6975 0.938391 12.7265 0.955085 12.7558 0.971345C12.802 0.99729 12.848 1.02378 12.8937 1.05079C12.9247 1.06939 12.9556 1.08821 12.9864 1.10728C13.0301 1.13448 13.0735 1.1623 13.1164 1.19074C13.146 1.21027 13.1758 1.22954 13.205 1.2496C13.2533 1.28278 13.3006 1.31681 13.3477 1.35117C13.37 1.36754 13.3929 1.38315 13.415 1.39985C13.4799 1.44878 13.5439 1.49909 13.6068 1.55074C13.635 1.57394 13.6624 1.5979 13.6903 1.62163C13.7274 1.65328 13.7644 1.68483 13.8007 1.71746C13.8307 1.74412 13.8602 1.77154 13.8895 1.79887C13.9226 1.82986 13.9554 1.86119 13.9879 1.89285C14.0174 1.92145 14.0465 1.95032 14.0754 1.97948C14.1074 2.01209 14.1386 2.04548 14.1698 2.07876C14.1972 2.10792 14.2249 2.13686 14.2517 2.16668C14.2988 2.21916 14.345 2.2725 14.3902 2.32667C14.4214 2.36456 14.4523 2.4028 14.4827 2.44137C14.51 2.47562 14.5373 2.50976 14.5638 2.54479C14.5907 2.58011 14.6166 2.616 14.6427 2.65209C14.6666 2.68495 14.6901 2.71809 14.7132 2.7515C14.7391 2.78877 14.7645 2.82635 14.7895 2.86422C14.8113 2.89746 14.8327 2.93092 14.8538 2.96462C14.8783 3.00353 14.9029 3.04223 14.9265 3.08168C14.9467 3.11571 14.9659 3.15029 14.9855 3.18478C15.0275 3.25828 15.0678 3.33273 15.1064 3.40807C15.124 3.44201 15.1421 3.47582 15.1589 3.5105C15.1798 3.55321 15.1995 3.59669 15.2194 3.63994C15.2353 3.67463 15.2512 3.70933 15.2665 3.74445C15.2856 3.78842 15.3041 3.83261 15.3221 3.87701C15.3364 3.91235 15.3504 3.94784 15.364 3.98346C15.3814 4.02844 15.3982 4.07361 15.4146 4.11896C15.4272 4.15485 15.4391 4.19105 15.4511 4.22725C15.4664 4.2732 15.4822 4.31885 15.4964 4.36523C15.5617 4.32116 15.63 4.28169 15.7008 4.2471C15.6439 4.06704 15.5793 3.88905 15.5052 3.71377C15.1994 2.98943 14.7619 2.33913 14.2044 1.78099C13.6466 1.22272 12.9975 0.783713 12.2746 0.477908C11.5258 0.160836 10.7302 0.000406265 9.91098 0.000406265C9.09178 0.000406265 8.29686 0.160836 7.54803 0.477908C6.82529 0.783713 6.17585 1.22272 5.61823 1.78099C5.06087 2.33913 4.62318 2.98943 4.3172 3.71377C4.2412 3.89421 4.17396 4.07824 4.11572 4.2652C4.20958 4.25555 4.29497 4.24688 4.36726 4.2394Z" fill="#071D3D"/>
<path d="M15.4562 7.9185C15.3613 8.20576 15.2442 8.48516 15.1058 8.75415C15.1041 8.75741 15.1025 8.7607 15.1009 8.76402C15.0672 8.82923 15.0323 8.89381 14.9961 8.95772C14.9953 8.95924 14.9944 8.96088 14.9934 8.96239C14.8491 9.21709 14.6859 9.46059 14.5052 9.69084C14.4979 9.70027 14.4904 9.70981 14.4829 9.71925C14.4422 9.77056 14.4007 9.82115 14.3583 9.87101C14.3496 9.8812 14.3407 9.8914 14.3319 9.90168C14.197 10.058 14.0541 10.2071 13.9037 10.3484C13.8956 10.3561 13.8877 10.364 13.8794 10.3716C13.8373 10.4106 13.7943 10.4487 13.7512 10.4865C13.7312 10.504 13.7113 10.5215 13.691 10.5386C13.6501 10.5736 13.6086 10.6079 13.5667 10.6416C13.5433 10.6604 13.5198 10.679 13.496 10.6972C13.4546 10.7295 13.4132 10.7619 13.3709 10.7932C13.3476 10.8104 13.3236 10.8267 13.3001 10.8436C13.2261 10.8964 13.1509 10.9476 13.0746 10.9971C13.0418 11.0182 13.0093 11.0398 12.9759 11.0604C12.9383 11.0834 12.9004 11.106 12.8623 11.1281C12.8261 11.1496 12.7896 11.1706 12.7529 11.1911C12.7159 11.2119 12.6786 11.2322 12.641 11.2521C12.6005 11.2735 12.5597 11.2944 12.5187 11.3148C12.4837 11.3325 12.449 11.3501 12.4136 11.367C12.3541 11.3953 12.294 11.4224 12.2335 11.4484C12.1991 11.4635 12.1646 11.4781 12.1298 11.4924C12.0702 11.5169 12.0102 11.541 11.9495 11.5636C11.9176 11.5754 11.8853 11.5864 11.8533 11.5977C11.8022 11.6161 11.7508 11.6335 11.6991 11.6501C11.6659 11.6608 11.6327 11.6712 11.5993 11.6812C11.5446 11.6976 11.4896 11.7132 11.4344 11.728C11.4046 11.7361 11.3749 11.7446 11.3449 11.7522C11.2622 11.7732 11.1791 11.7924 11.0957 11.8099C11.0873 11.8116 11.079 11.8129 11.0707 11.8146C10.9898 11.8308 10.9087 11.8454 10.8272 11.8582C10.7983 11.8628 10.7693 11.8666 10.7405 11.8706C10.6793 11.8794 10.618 11.8872 10.5566 11.894C10.5247 11.8974 10.4928 11.9007 10.4609 11.9038C10.3981 11.9096 10.3351 11.9143 10.2721 11.918C10.2435 11.9198 10.2149 11.9219 10.1863 11.9233C10.095 11.9275 10.0035 11.9304 9.91114 11.9304C9.8215 11.9304 9.73236 11.9275 9.6436 11.9236C9.62022 11.9224 9.59689 11.9213 9.57358 11.92C9.49505 11.9154 9.41691 11.9096 9.33931 11.9021C9.32858 11.901 9.31776 11.9004 9.30711 11.8993C9.22097 11.8903 9.13505 11.8793 9.0494 11.8664C9.0271 11.8631 9.00481 11.8594 8.98251 11.8559C8.91147 11.8446 8.84063 11.8319 8.77004 11.818C8.7536 11.8146 8.7371 11.8118 8.72076 11.8083C8.63799 11.7911 8.55562 11.7721 8.4737 11.7512C8.45293 11.7461 8.43247 11.7404 8.41184 11.735C8.34533 11.7173 8.27932 11.6984 8.21378 11.6785C8.19423 11.6726 8.17454 11.6669 8.15523 11.6608C8.07603 11.6359 7.99739 11.6093 7.91937 11.5809C7.90108 11.5742 7.88312 11.567 7.86494 11.5603C7.80185 11.5367 7.73919 11.512 7.67698 11.4862C7.65573 11.4774 7.63436 11.4686 7.6133 11.4595C7.53814 11.4274 7.46368 11.3937 7.38995 11.3584C7.37487 11.3511 7.36018 11.3435 7.34515 11.3359C7.28426 11.3061 7.22393 11.2752 7.1642 11.2431C7.14209 11.2313 7.11997 11.2196 7.0981 11.2074C7.02731 11.1686 6.95733 11.1283 6.8882 11.0866C6.87807 11.0804 6.86822 11.0739 6.8581 11.0677C6.77509 11.0163 6.6933 10.963 6.61278 10.9077C6.5564 10.8691 6.5007 10.8294 6.44572 10.7888C6.43386 10.78 6.4218 10.7718 6.41012 10.7629C6.34712 10.7156 6.28558 10.6666 6.22459 10.6169C6.20316 10.5994 6.18189 10.5817 6.1608 10.5638C6.11376 10.5243 6.06736 10.484 6.0216 10.443C6.00522 10.4284 5.98856 10.4141 5.97232 10.3991C5.91528 10.3469 5.85931 10.2934 5.80443 10.2389C5.78453 10.2192 5.76505 10.1991 5.74534 10.1791C5.70483 10.1378 5.66498 10.096 5.6258 10.0534C5.60789 10.034 5.58969 10.015 5.57207 9.99522C5.52081 9.93849 5.47077 9.88067 5.42199 9.82179C5.40418 9.80043 5.38692 9.77855 5.36944 9.75697C5.33412 9.71325 5.29943 9.66901 5.26538 9.62428C5.24769 9.60099 5.22994 9.57811 5.21257 9.55459C5.16733 9.49334 5.12323 9.43126 5.08031 9.36836C5.06546 9.34635 5.05124 9.32401 5.03675 9.30202C5.00546 9.25471 4.97488 9.20693 4.945 9.15872C4.92882 9.13258 4.91264 9.10645 4.89694 9.08013C4.85761 9.01461 4.81954 8.94832 4.78277 8.88132C4.7254 8.92338 4.65965 8.96326 4.58545 9.00088C4.86155 9.5057 5.2071 9.96804 5.61838 10.3803C6.17601 10.9386 6.82545 11.3769 7.54819 11.683C8.29701 12.0001 9.09193 12.1606 9.91114 12.1606C10.7303 12.1606 11.5259 12.0001 12.2748 11.683C12.9977 11.377 13.6468 10.9386 14.2046 10.3803C14.7621 9.82158 15.1995 9.17139 15.5054 8.44739C15.5825 8.26495 15.6498 8.07947 15.7083 7.89194C15.6254 7.90061 15.5412 7.9095 15.4562 7.9185Z" fill="#071D3D"/>
<path d="M6.44835 2.24293L6.41383 2.2052C6.39088 2.18059 6.36971 2.1652 6.35013 2.15947C6.33016 2.1535 6.31328 2.15696 6.29964 2.16933C6.27951 2.18851 6.27003 2.20585 6.27145 2.22287C6.27328 2.24 6.2834 2.25898 6.30262 2.28022L6.57002 2.57203C6.58575 2.58905 6.60198 2.59913 6.6179 2.60032C6.63397 2.60237 6.65069 2.595 6.66779 2.57908C6.67895 2.56922 6.68559 2.55847 6.68793 2.54634C6.69002 2.53489 6.68893 2.52308 6.68478 2.5122C6.68074 2.5004 6.67486 2.48931 6.66736 2.47935C6.65962 2.46906 6.65107 2.4581 6.64101 2.4478L6.59144 2.39359L6.72977 2.26655L6.79622 2.33864C6.84529 2.39208 6.86759 2.44942 6.86365 2.50969C6.85953 2.57041 6.82322 2.63241 6.75536 2.69475C6.69333 2.75166 6.63397 2.77701 6.57695 2.77115C6.51983 2.7652 6.46275 2.73149 6.40569 2.66971L6.18352 2.42752C6.12451 2.36368 6.09654 2.30266 6.09822 2.24423C6.10048 2.18591 6.13285 2.12705 6.19585 2.06915C6.25645 2.0129 6.31609 1.98395 6.37356 1.98135C6.43142 1.97919 6.48722 2.00715 6.54095 2.06624L6.58667 2.11533L6.44835 2.24293Z" fill="#071D3D"/>
<path d="M7.21257 2.28906L6.78613 1.61134L6.94475 1.51107L7.10868 1.77134L7.21907 1.70197L7.05487 1.44179L7.21403 1.34122L7.6402 2.01958L7.48153 2.1192L7.30365 1.83736L7.19369 1.90653L7.37135 2.18879L7.21257 2.28906Z" fill="#071D3D"/>
<path d="M7.94033 1.15955L7.93838 1.16042L8.02005 1.51423L8.12152 1.47369L7.94033 1.15955ZM7.91478 1.87598L7.78149 1.06666L7.99168 0.983296L8.44928 1.66296L8.27261 1.733L8.19046 1.59835L8.05358 1.65288L8.09032 1.80594L7.91478 1.87598Z" fill="#071D3D"/>
<path d="M8.82203 1.10598L8.82039 1.10836L8.92344 1.54315L8.74891 1.57764L8.59424 0.7915L8.78347 0.754327L9.01207 1.16538L9.01555 1.16495L8.91136 0.72907L9.08557 0.694385L9.24044 1.4805L9.05205 1.51791L8.82203 1.10598Z" fill="#071D3D"/>
<path d="M9.95912 1.44165L9.95041 1.37075H9.9479C9.92881 1.40424 9.90775 1.42777 9.88411 1.44131C9.86051 1.45465 9.82793 1.46137 9.78693 1.46191C9.74881 1.46202 9.7157 1.45683 9.68854 1.44457C9.66236 1.43306 9.63964 1.4149 9.62262 1.39189C9.60547 1.36891 9.59334 1.34246 9.58544 1.31178C9.57813 1.28077 9.57435 1.24729 9.57374 1.20902L9.56985 0.880229C9.56904 0.793299 9.5883 0.729138 9.62889 0.686737C9.66943 0.644588 9.73253 0.623117 9.81861 0.622035C9.90127 0.620719 9.96437 0.639053 10.0087 0.675686C10.053 0.712552 10.0754 0.77107 10.0766 0.850753L10.0772 0.910479L9.88913 0.912859L9.88849 0.868529C9.88849 0.832004 9.88411 0.805431 9.87616 0.789513C9.86802 0.77455 9.8524 0.766852 9.82898 0.765878C9.80115 0.766852 9.78209 0.773468 9.77208 0.787007C9.76218 0.800564 9.757 0.821909 9.7577 0.850321L9.76218 1.24652C9.76245 1.27004 9.76825 1.28749 9.77933 1.29954C9.79125 1.31189 9.80873 1.31785 9.83215 1.31742C9.84703 1.31697 9.85906 1.31416 9.86869 1.30842C9.87758 1.30267 9.88411 1.29476 9.88849 1.28609C9.89234 1.2761 9.8952 1.26591 9.89606 1.25521C9.89682 1.24381 9.89731 1.23026 9.89731 1.21389L9.89671 1.1507L9.82939 1.15167L9.82729 1.0074L10.0823 1.00458L10.0873 1.44024L9.95912 1.44165Z" fill="#071D3D"/>
<path d="M11.0077 1.3268L11.0102 1.32734L11.1763 0.788054L11.3505 0.822415L11.0656 1.58252L10.8583 1.54133L10.9104 0.977309L10.9085 0.976678L10.7388 1.51812L10.5349 1.47769L10.5574 0.665988L10.7355 0.700908L10.6823 1.26415L10.6848 1.26199L10.8673 0.726597L11.0451 0.761823L11.0077 1.3268Z" fill="#071D3D"/>
<path d="M12.0069 1.31865C12.0132 1.30446 12.0183 1.29177 12.0214 1.28016C12.0245 1.26939 12.0261 1.25822 12.026 1.247C12.026 1.23604 12.0234 1.22586 12.0178 1.2161C12.0118 1.20687 12.0024 1.19984 11.9885 1.19377C11.9753 1.18782 11.9637 1.1865 11.9524 1.18868C11.9414 1.19128 11.9322 1.19573 11.9241 1.20363C11.9159 1.21191 11.9087 1.22115 11.9026 1.23116C11.8958 1.24251 11.8897 1.25428 11.8843 1.2664L11.7555 1.56905C11.7504 1.58115 11.7459 1.59349 11.742 1.60601C11.7389 1.61826 11.7371 1.63079 11.7366 1.64342C11.7366 1.65577 11.7394 1.66673 11.7451 1.67713C11.7508 1.68753 11.7603 1.69523 11.7729 1.70087C11.7862 1.70628 11.7984 1.70779 11.8097 1.70509C11.8208 1.7023 11.8308 1.69617 11.8383 1.68753C11.8465 1.67868 11.8537 1.6689 11.8597 1.65838C11.8658 1.64755 11.8719 1.63529 11.8779 1.62151L12.0069 1.31865ZM12.0567 1.6807C12.0198 1.767 11.975 1.82303 11.9223 1.84874C11.8696 1.87518 11.801 1.86963 11.7164 1.83356C11.6319 1.7968 11.5796 1.75052 11.5615 1.69371C11.5434 1.63723 11.5525 1.56579 11.589 1.48007L11.7168 1.18088C11.747 1.10976 11.7908 1.06467 11.8479 1.04407C11.9049 1.02324 11.9707 1.0291 12.046 1.06173C12.1214 1.0935 12.171 1.13718 12.1942 1.19247C12.2179 1.24731 12.2147 1.3103 12.1848 1.3812L12.0567 1.6807Z" fill="#071D3D"/>
<path d="M12.6435 1.79759L12.6406 1.79813L12.4077 2.17906L12.2593 2.08063L12.7028 1.41385L12.8633 1.52063L12.7364 1.97374L12.7389 1.97581L12.9717 1.59316L13.1201 1.69233L12.6764 2.35889L12.5168 2.25191L12.6435 1.79759Z" fill="#071D3D"/>
<path d="M5.91994 2.69225L5.98449 2.87979L6.14988 2.77139L6.07894 2.95621L6.27545 2.97973L6.10205 3.07577L6.23766 3.22015L6.04342 3.18222L6.05431 3.38017L5.92984 3.2258L5.81117 3.38428L5.815 3.18603L5.6224 3.23187L5.75218 3.08217L5.57544 2.99252L5.77112 2.96174L5.69336 2.77973L5.86295 2.88195L5.91994 2.69225Z" fill="#071D3D"/>
<path d="M13.376 2.10609L13.4402 2.29362L13.606 2.18534L13.5349 2.37005L13.7314 2.39356L13.5581 2.48983L13.6936 2.634L13.4992 2.59618L13.5104 2.794L13.3857 2.63964L13.2674 2.79834L13.2709 2.60029L13.0784 2.64561L13.2082 2.496L13.0317 2.40658L13.2274 2.37535L13.1493 2.19345L13.3186 2.29578L13.376 2.10609Z" fill="#071D3D"/>
<path d="M7.25541 10.3841L7.42907 10.2879L7.2321 10.2641L7.30331 10.0792L7.13792 10.1881L7.07375 10.0007L7.01626 10.1898L6.84682 10.0877L6.9248 10.2701L6.72925 10.3011L6.90565 10.3903L6.77589 10.54L6.96843 10.4946L6.96485 10.6929L7.08317 10.5341L7.20778 10.6882L7.19685 10.4904L7.39113 10.5282L7.25541 10.3841Z" fill="#071D3D"/>
<path d="M13.6389 9.60381L13.7105 9.41932L13.5445 9.52772L13.48 9.34018L13.423 9.52988L13.2538 9.42723L13.3316 9.60978L13.136 9.6409L13.3123 9.7301L13.1824 9.87926L13.3749 9.83405L13.3715 10.0322L13.4901 9.87364L13.6144 10.0278L13.6036 9.82983L13.7977 9.86789L13.6623 9.72348L13.8356 9.62745L13.6389 9.60381Z" fill="#071D3D"/>
<path d="M7.83947 10.2966L8.26418 10.4783L8.19909 10.6311L7.96108 10.5294L7.9088 10.652L8.13177 10.7474L8.06909 10.8942L7.84613 10.7988L7.78536 10.9417L8.03228 11.0473L7.9672 11.2002L7.53345 11.0145L7.83947 10.2966Z" fill="#071D3D"/>
<path d="M8.74157 10.8505L8.74607 10.8323C8.75721 10.7879 8.74844 10.7463 8.71036 10.7366C8.66791 10.726 8.64064 10.7542 8.63214 10.7881C8.59481 10.9378 8.93519 10.9453 8.86598 11.2223C8.82561 11.3838 8.71327 11.4321 8.53948 11.3886C8.37633 11.3477 8.29921 11.2686 8.33844 11.1115L8.34512 11.085L8.53581 11.1328L8.53133 11.1507C8.51514 11.2155 8.53581 11.2457 8.57395 11.2552C8.61423 11.2653 8.6455 11.2393 8.65583 11.1978C8.69324 11.0481 8.36519 11.0449 8.43234 10.7764C8.47054 10.6236 8.5731 10.56 8.73946 10.6018C8.91116 10.6449 8.96653 10.7342 8.92594 10.8967L8.74157 10.8505Z" fill="#071D3D"/>
<path d="M9.32388 10.9001L9.17163 10.8859L9.18756 10.7139L9.6943 10.7607L9.6785 10.9329L9.52616 10.9188L9.47025 11.5244L9.26791 11.5058L9.32388 10.9001Z" fill="#071D3D"/>
<path d="M9.82373 11.323L10.0073 11.3199L10.0109 11.5366L9.82729 11.5396L9.82373 11.323Z" fill="#071D3D"/>
<path d="M10.507 10.9938C10.4939 10.9151 10.492 10.85 10.5204 10.798C10.5489 10.7462 10.6064 10.7092 10.7097 10.6905C10.9095 10.6544 10.9714 10.7399 10.992 10.854C11.0106 10.9573 10.9849 11.0297 10.9382 11.097L10.8407 11.2335C10.8266 11.2539 10.806 11.2809 10.8025 11.3048L11.0647 11.2574L11.0919 11.4082L10.5911 11.4985C10.5722 11.3932 10.5816 11.2914 10.6525 11.1865L10.7613 11.0267C10.793 10.981 10.8029 10.9492 10.7925 10.8922C10.7809 10.8277 10.7568 10.8109 10.7257 10.8166C10.6978 10.8216 10.6725 10.8416 10.688 10.9278L10.6939 10.96L10.507 10.9938Z" fill="#071D3D"/>
<path d="M11.5363 11.0162C11.5728 11.1205 11.599 11.1425 11.6391 11.1284C11.6795 11.1144 11.6861 11.0807 11.6497 10.9764L11.5652 10.7349C11.5288 10.6306 11.5025 10.6085 11.4624 10.6226C11.4221 10.6367 11.4154 10.6703 11.4518 10.7746L11.5363 11.0162ZM11.4206 10.5028C11.5915 10.4427 11.6958 10.4932 11.7992 10.7883C11.9024 11.0837 11.8522 11.1882 11.681 11.2483C11.51 11.3082 11.4057 11.2578 11.3024 10.9626C11.1992 10.6674 11.2494 10.5628 11.4206 10.5028Z" fill="#071D3D"/>
<path d="M12.3842 10.9282L12.1342 10.464L12.0055 10.5338L11.9453 10.4219C12.0544 10.3617 12.0887 10.3147 12.0672 10.2194L12.1959 10.1499L12.5631 10.8317L12.3842 10.9282Z" fill="#071D3D"/>
<path d="M13.0133 10.5449L12.7034 10.1187L12.5851 10.205L12.5105 10.1024C12.6105 10.0282 12.6382 9.97679 12.6041 9.88541L12.7223 9.79902L13.1777 10.425L13.0133 10.5449Z" fill="#071D3D"/>
<path d="M13.8279 7.86923C13.7764 7.90948 13.7226 7.94679 13.6669 7.981C13.4967 8.31763 13.2823 8.62988 13.0292 8.90943C12.9827 8.96076 12.935 9.011 12.8862 9.06011C12.8427 9.10331 12.7984 9.14564 12.7532 9.18706C12.7488 9.19117 12.7446 9.1953 12.7402 9.1993C12.7262 9.21221 12.7114 9.22402 12.6972 9.2366C11.9552 9.89415 10.9802 10.294 9.9116 10.294H9.91149C8.74937 10.294 7.69827 9.82238 6.93647 9.06011C6.88359 9.00711 6.83261 8.95238 6.78266 8.89665C6.77964 8.90143 6.77573 8.90467 6.76995 8.90522C6.75165 8.90705 6.71637 8.91097 6.66919 8.91573C6.66924 8.91594 6.66946 8.91618 6.66957 8.91637C7.0138 9.31075 7.42851 9.64192 7.89401 9.89004C7.89975 9.89296 7.90565 9.89588 7.91139 9.89882C7.96973 9.92961 8.02877 9.95907 8.08846 9.98715C8.10252 9.99377 8.11686 9.99984 8.13092 10.0062C8.18285 10.03 8.23525 10.0528 8.28808 10.0744C8.30747 10.0823 8.32705 10.0898 8.34655 10.0975C8.3951 10.1165 8.44399 10.1347 8.49319 10.1519C8.51607 10.1599 8.53909 10.1676 8.56221 10.1753C8.60902 10.1907 8.65609 10.2053 8.7034 10.2191C8.72889 10.2266 8.75437 10.2341 8.78011 10.241C8.82589 10.2535 8.87208 10.265 8.91839 10.2759C8.94582 10.2824 8.97311 10.289 9.00065 10.2949C9.04643 10.3049 9.09265 10.3135 9.13893 10.322C9.16728 10.3271 9.19552 10.3326 9.22403 10.3372C9.27123 10.3447 9.31875 10.3508 9.36638 10.3568C9.39446 10.3605 9.42227 10.3646 9.45042 10.3676C9.50188 10.3731 9.55388 10.377 9.60583 10.3804C9.63051 10.3823 9.65487 10.3848 9.67965 10.3862C9.7564 10.3903 9.83368 10.3926 9.91144 10.3926C9.97784 10.3926 10.0437 10.3904 10.1095 10.3875C10.128 10.3867 10.1464 10.3856 10.1648 10.3846C10.2167 10.3814 10.2685 10.3775 10.3198 10.3726C10.3348 10.3713 10.3498 10.3702 10.3647 10.3686C10.4286 10.3619 10.4922 10.3538 10.5552 10.3443C10.5696 10.3422 10.584 10.3396 10.5984 10.3373C10.6487 10.3292 10.6987 10.3202 10.7484 10.3105C10.7668 10.3067 10.785 10.3031 10.8033 10.2994C10.8612 10.2872 10.9188 10.2739 10.9762 10.2595C10.9806 10.2584 10.9852 10.2574 10.9896 10.2561C11.0502 10.2406 11.11 10.2232 11.1696 10.205C11.2329 10.1854 11.2959 10.1645 11.3584 10.1423C11.3744 10.1364 11.3906 10.131 11.4065 10.125C11.4635 10.104 11.52 10.0817 11.5759 10.0581C11.5906 10.0521 11.605 10.0454 11.6197 10.0391C11.6626 10.0205 11.7052 10.0012 11.7475 9.9812C11.7662 9.97231 11.7849 9.96343 11.8034 9.95443C11.8491 9.93199 11.8944 9.90871 11.9392 9.88461C11.949 9.8794 11.9591 9.87453 11.9688 9.86921C12.0205 9.84084 12.0717 9.81138 12.1222 9.78088C12.1406 9.76981 12.1587 9.75843 12.1769 9.74727C12.2127 9.72493 12.2482 9.70213 12.2833 9.67888C12.3006 9.66727 12.3181 9.65622 12.3351 9.64452C12.3827 9.61201 12.4297 9.57858 12.476 9.54425C12.4917 9.53264 12.5069 9.52038 12.5224 9.50846C12.5555 9.48322 12.5881 9.45749 12.6204 9.43128C12.639 9.41632 12.6576 9.40114 12.676 9.38553C12.7087 9.35803 12.7409 9.33002 12.7728 9.30152C12.7882 9.28787 12.8039 9.27432 12.8191 9.26034C12.8586 9.22398 12.8974 9.18686 12.9355 9.149C12.9532 9.13155 12.9706 9.11378 12.988 9.096C13.0138 9.06952 13.0393 9.04278 13.0645 9.01578C13.0813 8.99736 13.0984 8.97936 13.115 8.96083C13.1519 8.91975 13.1881 8.8779 13.2234 8.83539C13.2383 8.81753 13.2525 8.7993 13.2671 8.78111C13.2904 8.7521 13.3134 8.72279 13.336 8.69319C13.3524 8.67169 13.3685 8.65005 13.3845 8.62825C13.4065 8.59812 13.4281 8.56773 13.4493 8.53709C13.4653 8.5141 13.4812 8.49133 13.4967 8.46804C13.5244 8.42633 13.5514 8.38416 13.5778 8.34154C13.5919 8.31834 13.6057 8.29481 13.6196 8.27141C13.637 8.24182 13.6541 8.21204 13.6709 8.18209C13.6843 8.15813 13.6977 8.13428 13.7105 8.11021C13.7349 8.06449 13.7585 8.01834 13.7813 7.97177C13.7826 7.96896 13.7841 7.96624 13.7855 7.96334C13.7986 7.93151 13.8127 7.90013 13.8279 7.86923Z" fill="#071D3D"/>
<path d="M5.81253 5.13282C5.99209 4.34984 6.38806 3.64991 6.93633 3.10064C7.31719 2.71917 7.77054 2.4109 8.27382 2.19778C8.77716 1.98443 9.33055 1.8665 9.91145 1.8665C11.6331 1.8665 13.1124 2.90291 13.7634 4.38627C13.7981 4.38258 13.8327 4.37901 13.8667 4.37542C13.8319 4.29446 13.7943 4.21523 13.7548 4.13695C13.7438 4.11537 13.7329 4.0937 13.7217 4.07223C13.705 4.0405 13.6878 4.00899 13.6703 3.97771C13.6585 3.95651 13.6464 3.93544 13.634 3.91451C13.5946 3.84657 13.5534 3.7797 13.5104 3.71396C13.5057 3.70681 13.5012 3.69933 13.4964 3.69219C13.4771 3.66302 13.4569 3.63462 13.4368 3.60589C13.4222 3.58486 13.4074 3.56397 13.3924 3.54324C13.3722 3.51552 13.3517 3.48802 13.3309 3.46075C13.3146 3.43961 13.2982 3.41865 13.2814 3.39788C13.2526 3.3614 13.2231 3.3254 13.1931 3.2899C13.1677 3.25999 13.1422 3.22995 13.116 3.2007C13.0947 3.17717 13.073 3.15408 13.0512 3.13089C13.0313 3.1095 13.0111 3.08832 12.9907 3.06736C12.9688 3.04483 12.9466 3.02253 12.9242 3.00048C12.9016 2.97835 12.8787 2.95653 12.8555 2.935C12.8337 2.91431 12.812 2.89359 12.7897 2.87344C12.7501 2.83785 12.7098 2.80294 12.669 2.76871C12.6476 2.75094 12.6258 2.7336 12.6041 2.71615C12.5776 2.69485 12.5508 2.67381 12.5239 2.65305C12.5017 2.63603 12.4796 2.61934 12.4571 2.60275C12.4261 2.57996 12.3947 2.55763 12.3631 2.53576C12.3446 2.52287 12.3264 2.50975 12.3077 2.49707C12.2602 2.46518 12.212 2.43424 12.1632 2.40427C12.1427 2.39172 12.1219 2.37968 12.1011 2.36731C12.0677 2.34742 12.034 2.32801 12 2.3091C11.9786 2.29712 11.9572 2.2853 11.9356 2.27365C11.8951 2.25212 11.8543 2.2312 11.8131 2.21088C11.7987 2.20374 11.7847 2.19637 11.7703 2.18943C11.7162 2.16352 11.6616 2.13877 11.6065 2.11517C11.5871 2.10693 11.5674 2.09902 11.5479 2.09089C11.508 2.07448 11.4678 2.05865 11.4274 2.04342C11.407 2.03572 11.3868 2.02803 11.3663 2.02065C11.3161 2.0026 11.2656 1.98551 11.2148 1.96938C11.2056 1.96644 11.1964 1.9632 11.1873 1.96017C11.1275 1.94182 11.0674 1.92476 11.0069 1.90899C10.9882 1.90401 10.9693 1.89958 10.9504 1.89491C10.9054 1.88364 10.8601 1.87313 10.8144 1.86336C10.7948 1.85914 10.7753 1.85501 10.7556 1.85101C10.6968 1.83929 10.6377 1.82857 10.5782 1.81935C10.5737 1.8186 10.5695 1.81773 10.5651 1.81708C10.5014 1.80731 10.437 1.79952 10.3724 1.79258C10.3533 1.79042 10.3342 1.78901 10.3152 1.78705C10.2667 1.78251 10.2181 1.77881 10.1691 1.77611C10.1496 1.77479 10.13 1.77362 10.1105 1.77263C10.0444 1.76971 9.97807 1.76776 9.91129 1.76776C7.53357 1.76819 5.60596 3.69826 5.60596 6.07991C5.60596 6.12175 5.60792 6.16305 5.60911 6.20459C5.63659 6.13693 5.6702 6.07136 5.70663 6.00717C5.71187 5.70711 5.74791 5.41456 5.81253 5.13282Z" fill="#071D3D"/>
<path d="M10.3791 3.30314L11.1577 3.21787C11.1777 3.21567 11.1959 3.19735 11.1984 3.17692L11.2524 2.73272C11.2548 2.71229 11.2407 2.69751 11.2207 2.69969L10.2023 2.81123C10.1865 2.81298 10.1706 2.82127 10.1582 2.83418L9.83678 3.17092L9.58964 2.89645C9.58015 2.88592 9.56584 2.88096 9.55004 2.88267L8.60773 2.98588C8.59189 2.98761 8.57593 2.99593 8.56361 3.00889L8.26024 3.32749C8.24874 3.33959 8.24129 3.35477 8.23943 3.36989L8.08793 4.61617C8.08546 4.6366 8.09961 4.6514 8.11959 4.6492L8.55373 4.60164C8.57368 4.59946 8.59189 4.58114 8.59438 4.5607L8.71694 3.55241C8.72104 3.51871 8.75105 3.48848 8.78399 3.48487L9.2465 3.43422C9.27942 3.43061 9.30281 3.455 9.29872 3.4887L9.17612 4.49699C9.17364 4.51741 9.1878 4.5322 9.20778 4.53002L9.64191 4.48246C9.66187 4.48028 9.68007 4.46194 9.68255 4.44152L9.71735 4.15524L9.96435 4.42908C9.97381 4.43959 9.98812 4.44455 10.0039 4.44282L11.0224 4.33128C11.0423 4.3291 11.0605 4.31076 11.063 4.29034L11.117 3.84613C11.1195 3.82571 11.1053 3.81092 11.0854 3.81311L10.3068 3.89838C10.2739 3.90198 10.2505 3.87759 10.2546 3.8439L10.3121 3.37069C10.3162 3.33697 10.3462 3.30674 10.3791 3.30314Z" fill="#071D3D"/>
</svg>
